<?xml version="1.0" encoding="utf-8"?>
<!-- Generator: Adobe Illustrator 23.0.0, SVG Export Plug-In . SVG Version: 6.00 Build 0)  -->
<svg version="1.1" id="Camada_1" xmlns="http://www.w3.org/2000/svg" xmlns:xlink="http://www.w3.org/1999/xlink" x="0px" y="0px"
	 viewBox="0 0 1800 1800" style="enable-background:new 0 0 1800 1800;" xml:space="preserve">
<style type="text/css">
	.st0{fill:#F5A571;}
	.st1{opacity:0.5;fill:#808080;}
	.st2{fill:#E63C1E;}
	.st3{fill:#F3CBA2;}
	.st4{fill:#FACB99;}
	.st5{fill:#FBD7B0;}
	.st6{opacity:0.5;fill:#FACB99;}
	.st7{fill:#E74527;}
	.st8{fill:#C33917;}
	.st9{fill:#E95A1C;}
	.st10{fill:#FCCB68;}
	.st11{fill:#FFFFFF;}
	.st12{stroke:#1D1E1C;stroke-linecap:round;stroke-linejoin:round;stroke-miterlimit:10;}
	.st13{opacity:0.3;fill:#F3C89D;}
	.st14{fill:#1D1E1C;}
	.st15{opacity:0.1;fill:#EC686A;}
	.st16{fill:#FFEBC9;stroke:#CDA058;stroke-miterlimit:10;}
	.st17{fill:none;stroke:#1D1E1C;stroke-miterlimit:10;}
	.st18{fill:#C6DCA1;}
	.st19{opacity:0.2;fill:#1D1D1B;}
	.st20{fill:#F6AD7A;}
	.st21{fill:#F08741;}
	.st22{fill:url(#SVGID_1_);}
	.st23{fill:url(#SVGID_2_);}
	.st24{fill:url(#SVGID_3_);}
	.st25{fill:url(#SVGID_4_);}
	.st26{fill:#FCFBFA;}
	.st27{fill:#F9F7F4;}
	.st28{fill:#F7F3EF;}
	.st29{fill:#F3EFE9;}
	.st30{fill:#F1EAE3;}
	.st31{fill:#EEE7DE;}
	.st32{fill:#EBE3D8;}
	.st33{fill:#E8DED3;}
	.st34{fill:#E5DBCE;}
	.st35{fill:#E3D7C8;}
	.st36{fill:#DFD2C2;}
	.st37{fill:#F6B9AB;}
	.st38{fill:url(#SVGID_5_);}
	.st39{fill:url(#SVGID_6_);}
	.st40{fill:url(#SVGID_7_);}
	.st41{fill:url(#SVGID_8_);}
	.st42{fill:url(#SVGID_9_);}
	.st43{fill:url(#SVGID_10_);}
	.st44{fill:url(#SVGID_11_);}
	.st45{fill:url(#SVGID_12_);}
	.st46{fill:#484747;}
	.st47{fill:#C9C8C8;}
	.st48{fill:url(#SVGID_13_);}
	.st49{fill:url(#SVGID_14_);}
</style>
<rect x="2.38" class="st0" width="1800" height="1800"/>
<g>
	<path id="XMLID_16_" class="st1" d="M1423.11,1110.41l-237.99-84.57c0-0.28,0.24-0.28,0.24-0.55
		c-16.85-30.98-38.11-51.72-67.72-63.57c-13.26-6.95-27.65-11.36-42.58-13.33v-37.73c54.19-47.21,96.13-116.52,118.25-198.03
		c3.5,0.01,7-0.55,10.46-1.68c25.74-8.09,49.42-46.14,56.76-94.84c8.7-57.98-8.79-109.49-39.35-115.97
		c-0.28-0.17-0.82-0.38-1.14-0.38c-5.04-0.91-10.18-0.49-15.27,0.98c-0.01-0.08-0.03-0.15-0.04-0.23
		c13.83-6.34,5.65-17.07,5.65-69.63c0-9.25-13.06-25.9-7.58-46.53c-27.2-106.78-81.58-135.55-119.69-132.26
		c-5.79,0.54-10.77,1.66-14.34,3.59c-9.99-16.61-22.39-30.71-36.51-42.31c-111.7-93.43-332.58-34.55-403.13,151.81
		c9.14-8.02,19.92-16.02,31.81-24.07c13.84-9.1,29.32-18.26,46.22-26.79c-0.07,0.19-0.13,0.4-0.2,0.59
		c-16.57,8.47-31.92,17.45-45.54,26.6c-0.27,0-0.27,0-0.27,0c-41.17,27.65-66.91,56.69-66.91,76.04c0,51.74,0.86,75.53,13.75,82.46
		c-1.11,0.24-2.16,0.65-3.23,1.01c-0.47,0.16-0.96,0.26-1.42,0.44c-1.76,0.67-3.46,1.51-5.11,2.48c-0.02,0.01-0.04,0.02-0.06,0.03
		c-24.57,14.48-37.39,60.65-29.55,112.12c4.8,32.47,16.95,60.09,32.12,77.28c4.97,5.69,10.25,10.26,15.71,13.51
		c0.41,0.25,0.83,0.4,1.24,0.63c0.03,0.01,0.05,0.03,0.08,0.04c0.47,0.27,0.95,0.48,1.42,0.72c1.23,4.71,2.54,9.37,3.9,14
		c0.02,0.08,0.05,0.16,0.07,0.24c23.6,79.98,66.35,147.43,120.94,192.79v38.07c-14.65,0.82-29.32,4.16-37.05,8.33
		c-29.54,11.85-50.86,32.59-67.73,63.57l-230.05,85.41c-0.5,0.27-1.37,0.27-1.9,0.55c-0.3,0-0.3,0.31-0.57,0.31
		c-22.66,7.14-38.99,26.52-38.99,49.19v387.07c0,28.74,26.53,52.28,58.62,52.28h980.13c32.34,0,58.63-23.53,58.63-52.28v-387.07
		C1465.19,1136.97,1447.49,1116.78,1423.11,1110.41z M868.35,265.37c0.24-0.27,0.51-0.27,0.82,0c12.44-1.13,24.58-1.97,37.02-1.97
		c34.9,0,69.84,5.35,103.06,14.17c-33.07-8.74-67.83-14.03-102.54-14.03c-13.31,0-26.59,0.85-39.78,2.29
		C867.41,265.68,867.87,265.51,868.35,265.37z M1025.11,282.07c-5.03-1.52-10.1-2.96-15.21-4.32
		C1015.01,279.12,1020.09,280.54,1025.11,282.07z"/>
	<path id="XMLID_15_" class="st2" d="M1455.44,1149.27v387.07c0,28.74-26.29,52.28-58.63,52.28H416.69
		c-32.08,0-58.62-23.53-58.62-52.28v-387.07c0-22.67,16.33-42.06,38.99-49.19c0.27,0,0.27-0.31,0.57-0.31
		c0.52-0.28,1.4-0.28,1.9-0.55l230.05-85.41c32.62,86.27,105.1,150.67,185.79,197.12c3.08-18.79,11.94-39.82,24.07-59.15
		c15.2,63.58,16.3,274.79,16.3,274.79h58.33c30.71-194.37,0-330.93,0-330.93c36.23,25.43,69.13,74.66,75.78,115.29
		c80.43-46.45,152.87-110.61,185.52-196.57l237.99,84.57C1437.74,1105.3,1455.44,1125.5,1455.44,1149.27z"/>
	<path id="XMLID_14_" class="st3" d="M631.54,700.67c-8.36,1.55-16.79-0.36-24.84-5.25c-22.03-13.09-41.25-47.68-47.83-90.79
		c-8.79-58.7,9.28-110.69,40.68-116.35c2.81-0.48,5.78-0.65,8.44-0.11c1.78,0,3.37,0.11,5.01,0.65c6.69,1.59,13.41,5.28,19.66,10.81
		c18.36,16.1,33.74,47.19,39.38,84.71C680.96,643.05,662.7,695.04,631.54,700.67z"/>
	<path id="XMLID_13_" class="st4" d="M1250.78,604.63c-7.34,48.71-31.02,86.75-56.76,94.85c-5.25,1.71-10.58,2.27-15.86,1.2
		c-31.21-5.63-49.46-57.62-40.47-116.33c5.43-35.58,19.36-65.44,36.65-82.01c6.19-6.18,12.82-10.49,19.68-12.8
		c5.41-1.72,10.89-2.21,16.26-1.24c0.32,0,0.86,0.2,1.14,0.38C1241.99,495.13,1259.48,546.64,1250.78,604.63z"/>
	<path id="XMLID_12_" class="st4" d="M1081.93,985.57c-5.28,5.84-10.81,11.36-16.63,16.61c-1.94,1.67-3.86,3.61-5.78,5.26
		c-2.49,2.77-5.26,5.24-8.32,7.44c-3.33,2.76-6.64,5.55-9.94,8.32c-18.82,15.19-38.18,27.89-54.77,36.75
		c-8.56,4.44-17.38,9.14-26.55,13.57c-14.63,7.47-30.12,15.19-45.89,22.11c0,0,30.71,136.55,0,330.93v-14.08
		c0-111.7-22.95-316.85-22.95-316.85c-17.13-7.75-34.01-16.05-50-24.07c-7.75-3.85-15.23-7.73-22.43-11.6
		c-16.85-8.86-36.19-21.57-54.74-36.75c-3.29-2.77-6.62-5.56-9.92-8.32c-6.92-5.76-13.31-11.9-19.67-17.96l-5.79-5.82
		c-0.57-0.54-1.13-1.1-1.37-1.64c2.21-1.1,4.71-1.97,7.16-2.77V841.54h330.95v135.48C1070.84,979.78,1076.36,982.55,1081.93,985.57z
		"/>
	<path id="XMLID_11_" class="st5" d="M1201.05,563.67v4.71c-0.25,13.81-0.81,27.65-1.94,41.46c-1.88,21.85-4.43,42.87-8.8,63.33
		c-35.14,168.36-153.18,292.49-293.11,292.49c-141.25,0-259.87-125.78-294.16-296.37c-6.37-32.34-9.96-66.37-9.96-100.92v-4.71
		c0-26,1.97-50.86,5.55-74.91c1.1-8.86,2.76-17.73,4.42-26.28c9.67-48.37,26.28-93.19,48.37-132.45c0,0,0,0,0.27,0
		c60.03-40.35,152.37-77.98,245.28-77.98c92.57,0,185.52,37.63,245.76,77.98c21.55,38.45,37.9,81.85,47.59,128.6
		c1.64,8.02,2.46,16.3,3.58,24.3c0.24,0.86,0.55,1.43,0.55,2.25c0.24,1.36,0.54,2.48,0.54,3.85c0.81,4.69,1.67,9.38,2.25,14.68
		c0.24,0.81,0.24,1.35,0.24,2.18c0.54,5.82,1.12,11.9,1.64,17.72C1199.97,536.88,1201.05,549.86,1201.05,563.67z"/>
	<path id="XMLID_10_" class="st6" d="M1115.17,335.49c-29.03,29.56-29.41,15.35-70.33,7.9c-55.3-11.36-150.13,159.01-205.41,172.85
		C775,532.29,720.86,614.28,684.08,667.11c-16.02,22.95-39.24,45.89-66.33,57.78c-3.04-9.17-5.82-18.54-8.31-28.2
		c-1.08-0.3-1.93-0.86-2.75-1.43c-22.13-12.95-41.46-47.52-47.83-90.63c-8.85-58.08,8.58-109.49,39.54-116.14
		c2.75,1.66,6.06,2.22,9.96,2.22c0,44.79-27.43-41.66,9.87-41.66c5.82,0,11.71-91.21,18.35-95.06
		c35.11-19.37,86.56-114.2,230.34-114.2C1001.86,239.79,1080.06,312.55,1115.17,335.49z"/>
	<path id="XMLID_9_" class="st7" d="M891.11,1095.64c-19.33,13.54-37.6,33.74-51.41,55.82l-0.27,0.32
		c-12.13,19.33-20.99,40.36-24.07,59.15c-80.68-46.45-153.16-110.85-185.79-197.12c16.87-30.98,38.2-51.72,67.73-63.57
		c7.22,13.25,17.72,26.52,29.89,39.23c0.24,0.54,0.81,1.1,1.37,1.64l5.79,5.82c6.36,6.06,12.75,12.2,19.67,17.96
		c3.3,2.76,6.64,5.55,9.92,8.32c18.55,15.19,37.88,27.89,54.74,36.75c7.2,3.88,14.67,7.75,22.43,11.6
		C857.1,1079.59,873.99,1087.88,891.11,1095.64z"/>
	<path id="XMLID_8_" class="st7" d="M1175.61,1013.81c0,0.27-0.24,0.27-0.24,0.55c-32.65,85.96-105.09,150.12-185.52,196.57
		c-6.65-40.63-39.55-89.86-75.78-115.29c15.78-6.92,31.26-14.63,45.89-22.11c9.17-4.43,17.99-9.13,26.55-13.57
		c16.59-8.86,35.95-21.57,54.77-36.75c3.3-2.77,6.61-5.56,9.94-8.32c3.06-2.21,5.83-4.67,8.32-7.44c1.91-1.66,3.84-3.59,5.78-5.26
		c5.82-5.25,11.35-10.77,16.63-16.61c10.49-11.6,19.33-23.48,25.96-35.33C1137.49,962.09,1158.75,982.83,1175.61,1013.81z"/>
	<path id="XMLID_7_" class="st8" d="M914.07,1412.48v14.08h-58.33c0,0-1.1-211.2-16.3-274.79l0.27-0.32
		c13.81-22.08,32.08-42.27,51.41-55.82C891.11,1095.64,914.07,1300.78,914.07,1412.48z"/>
	<path id="XMLID_6_" class="st9" d="M985.51,1247.73c0,10.16-8.27,18.39-18.42,18.39c-10.2,0-18.44-8.23-18.44-18.39
		c0-10.2,8.24-18.46,18.44-18.46C977.25,1229.27,985.51,1237.52,985.51,1247.73z"/>
	<path id="XMLID_5_" class="st9" d="M979.74,1349.09c0,10.15-8.25,18.44-18.43,18.44c-10.16,0-18.42-8.29-18.42-18.44
		c0-10.2,8.25-18.44,18.42-18.44C971.48,1330.64,979.74,1338.88,979.74,1349.09z"/>
	<rect id="XMLID_4_" x="1055.17" y="1434.32" class="st7" width="240.74" height="57.61"/>
	<path id="XMLID_3_" class="st8" d="M734.35,941.91v44.79c-2.45,0.81-4.95,1.67-7.16,2.77c-12.17-12.71-22.67-25.98-29.89-39.23
		C705.03,946.07,719.7,942.73,734.35,941.91z"/>
	<path id="XMLID_2_" class="st8" d="M1107.89,950.24c-6.62,11.85-15.47,23.72-25.96,35.33c-5.57-3.02-11.09-5.79-16.63-8.55v-40.11
		C1080.24,938.88,1094.63,943.29,1107.89,950.24z"/>
	<g>
		<rect x="508.95" y="1264.58" class="st10" width="212.05" height="212.05"/>
		<circle class="st11" cx="614.97" cy="1377.45" r="70.37"/>
		<g>
			<path d="M575.85,1392.31l-0.21-21.22l-0.14-21.22l0.69-0.05c0.65,3.71,1.57,7.4,2.74,10.98c1.18,3.58,2.6,7.1,4.6,10.27
				c1,1.57,2.15,3.06,3.56,4.25c0.68,0.62,1.46,1.1,2.26,1.52c0.82,0.38,1.68,0.68,2.54,0.74c0.85,0.04,1.65-0.25,2.23-0.85
				c0.59-0.6,0.99-1.43,1.3-2.28c0.62-1.72,0.89-3.6,1.15-5.46c0.49-3.74,0.72-7.55,1.47-11.32c0.39-1.88,0.92-3.77,1.85-5.51
				c0.48-0.86,1.05-1.71,1.82-2.38c0.75-0.65,1.63-1.33,2.83-1.33c0.6-0.02,1.16,0.29,1.59,0.63c0.4,0.38,0.72,0.8,0.97,1.25
				c0.49,0.89,0.8,1.83,1.03,2.77c0.48,1.88,0.7,3.79,0.87,5.7c0.3,3.82,0.32,7.62,0.16,11.44l-0.06-0.24l12.34,22.15l-0.55-0.02
				c1.69-2.65,3-5.59,3.98-8.61c0.95-3.03,1.59-6.17,1.7-9.35c0.13-3.18-0.26-6.38-1.18-9.43c-0.92-3.06-2.4-5.93-4.23-8.55
				c1.89,2.58,3.43,5.43,4.41,8.49c0.99,3.05,1.44,6.28,1.38,9.5c-0.05,3.22-0.62,6.42-1.57,9.5c-0.96,3.08-2.24,6.04-3.96,8.81
				l-0.28,0.45l-0.27-0.47l-12.53-22.04l-0.06-0.11l0.01-0.13c0.15-3.77,0.12-7.57-0.2-11.32c-0.17-1.87-0.4-3.75-0.87-5.54
				c-0.23-0.9-0.52-1.78-0.95-2.55c-0.42-0.77-1.03-1.41-1.76-1.39c-0.73-0.02-1.52,0.51-2.16,1.09c-0.67,0.58-1.17,1.34-1.61,2.13
				c-0.85,1.61-1.37,3.42-1.73,5.25c-0.75,3.68-1,7.47-1.5,11.25c-0.27,1.89-0.54,3.8-1.22,5.66c-0.34,0.92-0.77,1.85-1.52,2.61
				c-0.74,0.78-1.88,1.18-2.93,1.11c-2.08-0.19-3.86-1.22-5.34-2.5c-1.49-1.28-2.69-2.83-3.71-4.46c-2.04-3.28-3.48-6.85-4.64-10.49
				c-1.14-3.65-2.03-7.35-2.64-11.13l0.69-0.05l-0.14,21.22L575.85,1392.31z"/>
		</g>
	</g>
	<ellipse class="st12" cx="752.16" cy="578.56" rx="36.33" ry="47.59"/>
	<ellipse class="st12" cx="1049.21" cy="578.56" rx="36.33" ry="47.59"/>
	<path d="M1108.04,487.84c-9.84-22.22-30.99-37.16-54.72-38.67c-36.1-2.3-66.3,27.23-62.63,38.67
		C993.32,496,1015.46,501.82,1108.04,487.84"/>
	<path d="M693.34,487.84c9.84-22.22,30.99-37.16,54.72-38.67c36.1-2.3,66.3,27.23,62.63,38.67
		C808.06,496,785.92,501.82,693.34,487.84"/>
	<path class="st13" d="M941.44,671.66c-59.08-43.86-88.75,9-88.75,9"/>
	<g>
		<path class="st14" d="M778.68,768.08c1.88,2.43,3.85,4.79,5.88,7.07c2.02,2.3,4.1,4.55,6.23,6.73c4.27,4.37,8.69,8.58,13.33,12.52
			c4.6,3.98,9.4,7.71,14.37,11.17c4.97,3.46,10.07,6.71,15.38,9.58c21.1,11.6,45.04,17.87,68.93,16.55
			c5.96-0.28,11.91-0.97,17.79-2.04c5.89-1.08,11.68-2.65,17.43-4.41c5.74-1.77,11.36-3.96,16.91-6.32l4.11-1.89
			c1.37-0.62,2.74-1.27,4.09-1.96l4.06-2.02c1.35-0.68,2.67-1.43,4-2.15c21.31-11.61,40.74-26.69,59.25-42.84
			c-16.47,18.23-35.18,34.76-56.53,47.58c-5.29,3.28-10.82,6.16-16.45,8.86c-5.67,2.6-11.45,5.03-17.39,7.04
			c-5.95,1.98-12.02,3.61-18.2,4.82c-6.18,1.18-12.44,1.98-18.74,2.31c-12.6,0.58-25.31-0.79-37.48-4.01
			c-12.16-3.3-23.82-8.29-34.49-14.8c-10.73-6.42-20.5-14.28-29.35-22.95c-4.39-4.38-8.58-8.94-12.46-13.75
			C785.48,778.36,781.81,773.38,778.68,768.08z"/>
	</g>
	<circle class="st15" cx="715.2" cy="717.77" r="50.31"/>
	<circle class="st15" cx="1086.6" cy="713.63" r="50.31"/>
	<path class="st16" d="M518.1,835.36"/>
	<g>
		<path d="M941.44,671.66c-7.72-3.9-15.3-7.64-23.16-10.19l-2.94-0.94c-0.98-0.3-1.98-0.52-2.96-0.78
			c-1.96-0.56-3.96-0.86-5.94-1.26c-3.98-0.58-7.96-0.86-11.92-0.65c-7.91,0.44-15.61,2.84-22.66,6.88
			c-3.54,1.99-6.9,4.39-10.09,7.08c-3.21,2.67-6.24,5.63-9.1,8.87c0.75-2.04,1.78-3.97,2.89-5.85c1.11-1.89,2.37-3.69,3.74-5.41
			c2.73-3.46,5.93-6.6,9.53-9.28c7.18-5.38,16.13-8.8,25.3-9.27c4.57-0.22,9.14,0.22,13.56,1.14c2.17,0.59,4.38,1.05,6.46,1.88
			c1.05,0.39,2.12,0.71,3.14,1.16l3.03,1.37C928.35,660.16,935.44,665.42,941.44,671.66z"/>
	</g>
	<path class="st17" d="M852.69,677.71"/>
	<g>
		<path d="M593.07,622.3c0,0-68.45-200.1,34.41-269.63S593.07,622.3,593.07,622.3z"/>
		<path d="M1197.34,622.88c0,0,60.26-200.1-42.59-269.63C1051.89,283.71,1197.34,622.88,1197.34,622.88z"/>
	</g>
	<path id="XMLID_1_" d="M1197.33,432.84c-12.42-16.24-31.34-34.13-54.96-51.7c-64.41-47.45-163.38-91.37-262.08-91.37
		c-13.29,0-26.27,0.98-39.56,2.31c-0.33-0.32-0.62-0.32-0.88,0c-58.53,19.15-105.19,60.79-128.26,126.8
		c-5.32-32.2-3.25-64.68,10.04-93.65c-26,13.99-44.89,37.04-58.21,64.37c-2.04-11.33-0.3-27.01,4.19-39.96
		c-18.06,10.04-34.6,20.8-49.39,31.5c-12.7,9.47-24.23,18.87-34,28.31c75.39-219.13,311.44-288.37,430.81-178.51
		c15.09,13.65,28.34,30.22,39.02,49.76c3.81-2.28,9.14-3.59,15.32-4.23C1110.18,272.59,1191.74,307.37,1197.33,432.84z"/>
	<path d="M1197.33,552.78c0,0,57.45-168.55-54.59-229.03s41.64,84.28,41.64,84.28L1197.33,552.78z"/>
	<polygon points="654.92,373.32 693.34,329.7 674.13,325.73 	"/>
	<path d="M881.97,270.49c0,0-36.76,50.29-29.29,102.84c0,0,38.16-55.52,88.75-83.28s-35.31-37.97-35.31-37.97L881.97,270.49z"/>
	<path d="M1060.84,333.09c0,0,47.39,23.5,74.56,122.09c27.16,98.59,48.98-47.16,48.98-47.16l-82.54-78.33L1060.84,333.09z"/>
	<path d="M696.66,343.27c0,0-39.75,62.77-44.21,81.12c-4.46,18.34-15.86-70.4-15.86-70.4L696.66,343.27z"/>
</g>
<rect x="1160.88" y="1316.87" class="st18" width="625.1" height="468.06"/>
<g>
	<g>
		<ellipse class="st19" cx="1479.75" cy="1627.26" rx="272.09" ry="9.05"/>
		<polygon class="st20" points="1239.98,1521.16 1261.9,1521.16 1255.37,1493.54 1233.45,1493.54 		"/>
		<path class="st21" d="M1586.04,1511c0,0-39.32-62.42-144.93-62.42c-74.03,0-127.06,51.49-127.06,51.49l-88.02,21.09
			c-1.8,0-4.35,0.98-5.55,2.33c-4.32,4.83-13.7,17.52-18.85,40.95c-0.39,1.76,0.18,4.39,1.22,5.87l19.92,34.75h518.19
			c3.61,0,6.53-2.92,6.53-6.53c0-4.36,0-10.04,0-14.27c0-7.88-6.24-18.73-10.75-26.54C1724.68,1536.86,1665.29,1497.6,1586.04,1511z
			"/>
		
			<linearGradient id="SVGID_1_" gradientUnits="userSpaceOnUse" x1="4.7335" y1="1602.9083" x2="232.3918" y2="1602.9083" gradientTransform="matrix(-1 0 0 1 1596.2949 0)">
			<stop  offset="0" style="stop-color:#5F5A5E"/>
			<stop  offset="0.2754" style="stop-color:#262529"/>
			<stop  offset="0.4741" style="stop-color:#29282C"/>
			<stop  offset="0.6249" style="stop-color:#333135"/>
			<stop  offset="0.7595" style="stop-color:#434044"/>
			<stop  offset="0.8093" style="stop-color:#4B484B"/>
		</linearGradient>
		<rect x="1363.9" y="1600.76" class="st22" width="227.66" height="4.3"/>
		<rect x="1586.86" y="1588.8" width="110.87" height="16.3"/>
		<polygon class="st20" points="1266.54,1605.06 1222.76,1605.06 1212.09,1586.45 1266.54,1591.1 		"/>
		<rect x="1258.61" y="1588.8" width="110.87" height="16.3"/>
		<g>
			
				<linearGradient id="SVGID_2_" gradientUnits="userSpaceOnUse" x1="30.235" y1="1558.0527" x2="31.3282" y2="1558.0527" gradientTransform="matrix(-1 0 0 1 1596.2949 0)">
				<stop  offset="0" style="stop-color:#989898"/>
				<stop  offset="0.3181" style="stop-color:#B5B5B5"/>
				<stop  offset="0.7618" style="stop-color:#D9D8D8"/>
				<stop  offset="1" style="stop-color:#E6E5E5"/>
			</linearGradient>
			<rect x="1564.97" y="1514.06" class="st23" width="1.09" height="87.98"/>
		</g>
		<g>
			
				<linearGradient id="SVGID_3_" gradientUnits="userSpaceOnUse" x1="185.6922" y1="1533.27" x2="186.7854" y2="1533.27" gradientTransform="matrix(-1 0 0 1 1596.2949 0)">
				<stop  offset="0" style="stop-color:#989898"/>
				<stop  offset="0.3181" style="stop-color:#B5B5B5"/>
				<stop  offset="0.7618" style="stop-color:#D9D8D8"/>
				<stop  offset="1" style="stop-color:#E6E5E5"/>
			</linearGradient>
			<rect x="1409.51" y="1464.5" class="st24" width="1.09" height="137.55"/>
		</g>
		<path class="st20" d="M1255.36,1590.15c0.03-32.34,26.35-60.31,58.69-60.31c22.64,0,43.51,13.28,53.16,33.84l0.1,0.21l4.74,15.66
			l0.03,0.23c0.44,2.88,0.66,17.95,0.67,20.85L1255.36,1590.15z"/>
		<polygon class="st20" points="1216.23,1500.07 1267.95,1500.07 1265.11,1487.02 1204.21,1487.02 		"/>
		<g>
			
				<linearGradient id="SVGID_4_" gradientUnits="userSpaceOnUse" x1="-136.9498" y1="1553.2744" x2="-93.2346" y2="1553.2744" gradientTransform="matrix(-1 0 0 1 1596.2949 0)">
				<stop  offset="0" style="stop-color:#FFFFFF"/>
				<stop  offset="0.0598" style="stop-color:#EAEAEA"/>
				<stop  offset="0.2445" style="stop-color:#B0B0B0"/>
				<stop  offset="0.4229" style="stop-color:#808080"/>
				<stop  offset="0.5908" style="stop-color:#5A5A5A"/>
				<stop  offset="0.7455" style="stop-color:#3F3F3F"/>
				<stop  offset="0.8825" style="stop-color:#2F2F2F"/>
				<stop  offset="0.9873" style="stop-color:#292929"/>
			</linearGradient>
			<path class="st25" d="M1729.12,1551.28c-5.38-8.74-18.21-14.79-38.29-14.86c-5.73-0.02,7.18,32.81,42.41,33.7
				C1733.24,1570.12,1731.65,1555.39,1729.12,1551.28z"/>
			<path class="st11" d="M1730.91,1567.95c-0.73-5.59-2.1-13.25-3.54-15.59c-5.32-8.64-18.34-13.68-35.79-13.87
				c0.02,1.37,0.89,4.96,4.25,9.9C1699.58,1553.91,1710.34,1566.54,1730.91,1567.95z"/>
			<g>
				<path class="st11" d="M1707.62,1554.83c-1.21-0.26-3.52-2.74-1.53-4.34c2-1.63,1.42-4.34,1.54-5.51
					c0.12-1.17,2.61-1.35,4.28,0.71C1713.57,1547.76,1716.33,1556.73,1707.62,1554.83z"/>
				<path class="st26" d="M1707.73,1554.48c-1.13-0.24-3.26-2.53-1.41-4.02c1.85-1.51,1.32-4.02,1.43-5.1
					c0.11-1.08,2.42-1.25,3.96,0.66C1713.25,1547.92,1715.8,1556.23,1707.73,1554.48z"/>
				<path class="st27" d="M1707.85,1554.12c-1.04-0.22-3-2.33-1.3-3.7c1.71-1.39,1.21-3.7,1.31-4.69c0.1-1,2.23-1.15,3.65,0.6
					C1712.93,1548.08,1715.28,1555.74,1707.85,1554.12z"/>
				<path class="st28" d="M1707.97,1553.76c-0.95-0.21-2.74-2.13-1.19-3.38c1.56-1.27,1.11-3.38,1.2-4.29
					c0.09-0.91,2.04-1.05,3.33,0.55C1712.61,1548.25,1714.75,1555.24,1707.97,1553.76z"/>
				<path class="st29" d="M1708.08,1553.4c-0.86-0.19-2.48-1.93-1.08-3.07c1.41-1.14,1-3.06,1.09-3.88c0.08-0.82,1.84-0.95,3.02,0.5
					C1712.28,1548.41,1714.23,1554.74,1708.08,1553.4z"/>
				<path class="st30" d="M1708.2,1553.05c-0.77-0.17-2.22-1.73-0.96-2.74c1.26-1.02,0.9-2.74,0.97-3.48
					c0.08-0.74,1.65-0.85,2.7,0.45C1711.96,1548.58,1713.7,1554.24,1708.2,1553.05z"/>
				<path class="st31" d="M1708.32,1552.69c-0.68-0.15-1.96-1.52-0.85-2.43c1.12-0.9,0.79-2.42,0.86-3.07
					c0.07-0.65,1.46-0.75,2.38,0.39C1711.64,1548.74,1713.17,1553.74,1708.32,1552.69z"/>
				<path class="st32" d="M1708.43,1552.33c-0.59-0.13-1.71-1.32-0.74-2.11c0.97-0.79,0.69-2.1,0.75-2.67
					c0.06-0.57,1.27-0.65,2.07,0.34C1711.32,1548.9,1712.64,1553.26,1708.43,1552.33z"/>
				<path class="st33" d="M1708.55,1551.97c-0.5-0.11-1.45-1.12-0.63-1.79c0.82-0.67,0.58-1.78,0.63-2.26
					c0.05-0.48,1.07-0.55,1.75,0.29C1710.99,1549.07,1712.12,1552.76,1708.55,1551.97z"/>
				<path class="st34" d="M1708.67,1551.62c-0.41-0.09-1.19-0.92-0.52-1.47c0.67-0.55,0.48-1.46,0.52-1.85
					c0.04-0.39,0.88-0.45,1.44,0.24C1710.67,1549.23,1711.59,1552.27,1708.67,1551.62z"/>
				<path class="st35" d="M1708.78,1551.26c-0.32-0.07-0.93-0.72-0.4-1.15c0.52-0.43,0.37-1.14,0.4-1.45
					c0.03-0.31,0.69-0.35,1.12,0.19C1710.35,1549.39,1711.06,1551.77,1708.78,1551.26z"/>
				<path class="st36" d="M1708.9,1550.9c-0.23-0.06-0.67-0.52-0.29-0.83c0.37-0.31,0.27-0.82,0.29-1.04
					c0.02-0.22,0.5-0.25,0.81,0.13C1710.03,1549.56,1710.54,1551.25,1708.9,1550.9z"/>
			</g>
			<g>
				<path class="st11" d="M1723.46,1558.33c-1.75,3.81-5.78,5.7-9.01,4.22c-3.24-1.49-4.43-5.77-2.68-9.58
					c1.76-3.82,5.79-5.7,9.02-4.22C1724.02,1550.23,1725.21,1554.52,1723.46,1558.33z"/>
				<path class="st26" d="M1723.13,1558.18c-1.65,3.6-5.46,5.37-8.5,3.98c-3.05-1.4-4.18-5.45-2.53-9.04
					c1.66-3.6,5.46-5.38,8.51-3.98C1723.66,1550.54,1724.79,1554.58,1723.13,1558.18z"/>
				<path class="st27" d="M1722.8,1558.03c-1.55,3.38-5.13,5.05-7.99,3.74c-2.87-1.32-3.93-5.12-2.38-8.5
					c1.56-3.39,5.13-5.06,8-3.74C1723.3,1550.84,1724.36,1554.65,1722.8,1558.03z"/>
				<path class="st28" d="M1722.47,1557.88c-1.45,3.16-4.8,4.73-7.48,3.5c-2.69-1.24-3.68-4.8-2.23-7.96
					c1.46-3.17,4.81-4.74,7.49-3.5C1722.94,1551.15,1723.93,1554.71,1722.47,1557.88z"/>
				<path class="st29" d="M1722.14,1557.73c-1.35,2.95-4.48,4.41-6.98,3.26c-2.5-1.15-3.43-4.47-2.08-7.42
					c1.36-2.95,4.48-4.41,6.98-3.27S1723.5,1554.77,1722.14,1557.73z"/>
				<path class="st30" d="M1721.81,1557.58c-1.25,2.73-4.15,4.09-6.47,3.03c-2.32-1.07-3.18-4.15-1.93-6.88
					c1.26-2.74,4.15-4.09,6.47-3.03C1722.21,1551.76,1723.07,1554.84,1721.81,1557.58z"/>
				<path class="st31" d="M1721.48,1557.43c-1.16,2.52-3.82,3.76-5.96,2.79c-2.14-0.98-2.93-3.82-1.77-6.34
					c1.16-2.52,3.83-3.77,5.96-2.79C1721.85,1552.07,1722.64,1554.9,1721.48,1557.43z"/>
				<path class="st32" d="M1721.15,1557.27c-1.06,2.3-3.5,3.44-5.45,2.55c-1.95-0.9-2.68-3.49-1.62-5.8
					c1.06-2.31,3.5-3.45,5.46-2.55C1721.49,1552.37,1722.21,1554.97,1721.15,1557.27z"/>
				<path class="st33" d="M1720.82,1557.12c-0.96,2.09-3.17,3.12-4.94,2.31c-1.77-0.82-2.43-3.17-1.47-5.26
					c0.96-2.09,3.17-3.13,4.95-2.31C1721.13,1552.68,1721.78,1555.03,1720.82,1557.12z"/>
				<path class="st34" d="M1720.49,1556.97c-0.86,1.87-2.84,2.8-4.43,2.07c-1.59-0.73-2.18-2.84-1.32-4.72
					c0.86-1.87,2.85-2.81,4.44-2.07C1720.77,1552.98,1721.35,1555.09,1720.49,1556.97z"/>
				<path class="st35" d="M1720.16,1556.82c-0.76,1.65-2.52,2.48-3.92,1.84c-1.41-0.65-1.93-2.52-1.17-4.18
					c0.76-1.66,2.52-2.48,3.93-1.84C1720.41,1553.29,1720.93,1555.16,1720.16,1556.82z"/>
				<path class="st36" d="M1719.83,1556.67c-0.66,1.44-2.19,2.16-3.42,1.6c-1.22-0.56-1.68-2.19-1.02-3.64
					c0.66-1.44,2.19-2.16,3.42-1.6C1720.05,1553.6,1720.5,1555.22,1719.83,1556.67z"/>
			</g>
			<path class="st37" d="M1701.2,1543.25c-0.04-0.7-1.56-5.33-3.45-1.43c-1.9,3.91,0.29,8.1,2.79,7.76
				C1702.77,1549.29,1701.33,1545.18,1701.2,1543.25z"/>
		</g>
		<g>
			<path d="M1642.29,1533.36c22.18,0,41.35,13.1,50.21,31.96l4.6,15.21c0.41,2.7,0.63,5.46,0.63,8.27c-6.29,0-10.55,0-10.55,0
				h-100.32C1586.86,1558.23,1611.73,1533.36,1642.29,1533.36z"/>
			
				<radialGradient id="SVGID_5_" cx="-45.9994" cy="1588.7949" r="47.5097" gradientTransform="matrix(-1 0 0 1 1596.2949 0)" gradientUnits="userSpaceOnUse">
				<stop  offset="0.8558" style="stop-color:#303031"/>
				<stop  offset="0.8699" style="stop-color:#353435"/>
				<stop  offset="0.9483" style="stop-color:#49484A"/>
				<stop  offset="1" style="stop-color:#514F51"/>
			</radialGradient>
			<path class="st38" d="M1594.79,1588.8c0,26.24,21.27,47.51,47.51,47.51c26.24,0,47.51-21.27,47.51-47.51
				c0-26.24-21.27-47.52-47.51-47.52C1616.06,1541.28,1594.79,1562.55,1594.79,1588.8z"/>
			
				<radialGradient id="SVGID_6_" cx="-46.001" cy="1588.7933" r="30.9521" gradientTransform="matrix(-1 0 0 1 1596.2949 0)" gradientUnits="userSpaceOnUse">
				<stop  offset="0" style="stop-color:#FFFFFF"/>
				<stop  offset="0.0651" style="stop-color:#F7F7F7"/>
				<stop  offset="0.1737" style="stop-color:#EFEFEF"/>
				<stop  offset="0.6285" style="stop-color:#EFEFEF"/>
				<stop  offset="0.7034" style="stop-color:#EFEFEF"/>
				<stop  offset="0.8455" style="stop-color:#EDEDED"/>
				<stop  offset="0.8967" style="stop-color:#E6E6E6"/>
				<stop  offset="0.9332" style="stop-color:#DBDBDB"/>
				<stop  offset="0.9627" style="stop-color:#CACACA"/>
				<stop  offset="0.9876" style="stop-color:#B5B5B4"/>
				<stop  offset="1" style="stop-color:#A7A7A6"/>
			</radialGradient>
			<path class="st39" d="M1642.29,1619.74c17.08,0,30.96-13.89,30.96-30.96c0-17.06-13.88-30.94-30.96-30.94
				c-17.06,0-30.95,13.88-30.95,30.94C1611.34,1605.86,1625.23,1619.74,1642.29,1619.74z"/>
			<g>
				<path d="M1634.86,1562.69c0-1.89,3.33-3.42,7.44-3.42c4.11,0,7.44,1.53,7.44,3.42c0,0.32-7.45,23.03-7.45,23.03
					S1634.86,1563,1634.86,1562.69z"/>
				<path d="M1661.18,1569.3c1.64-0.94,4.63,1.18,6.69,4.73c2.05,3.56,2.4,7.21,0.76,8.16c-0.27,0.16-23.67,5.06-23.67,5.06
					S1660.91,1569.46,1661.18,1569.3z"/>
				<path d="M1668.62,1595.41c1.64,0.95,1.3,4.6-0.76,8.15c-2.05,3.56-5.04,5.68-6.69,4.74c-0.27-0.16-16.22-17.96-16.22-17.96
					S1668.35,1595.25,1668.62,1595.41z"/>
				<path d="M1649.73,1614.9c0,1.9-3.34,3.42-7.44,3.42c-4.11,0-7.45-1.53-7.45-3.43c0-0.31,7.45-23.03,7.45-23.03
					S1649.73,1614.58,1649.73,1614.9z"/>
				<path d="M1623.41,1608.29c-1.64,0.94-4.63-1.18-6.68-4.73c-2.05-3.56-2.4-7.21-0.76-8.16c0.27-0.16,23.67-5.06,23.67-5.06
					S1623.68,1608.13,1623.41,1608.29z"/>
				<path d="M1615.97,1582.18c-1.64-0.94-1.3-4.6,0.76-8.15c2.06-3.56,5.05-5.69,6.69-4.74c0.27,0.15,16.22,17.97,16.22,17.97
					S1616.24,1582.34,1615.97,1582.18z"/>
				<path d="M1654.6,1564.27l-12.57,24.37c-0.08,0.15-0.02,0.33,0.13,0.41c0.14,0.07,0.3,0.03,0.39-0.1l15.41-22.68
					c0.61-0.9,0.38-2.12-0.52-2.73c-0.9-0.61-2.12-0.38-2.73,0.52C1654.68,1564.13,1654.64,1564.2,1654.6,1564.27z"/>
				<path d="M1669.69,1587.19l-27.39,1.3c-0.17,0.01-0.3,0.15-0.29,0.32c0.01,0.15,0.13,0.28,0.28,0.29l27.35,2.01
					c1.08,0.08,2.02-0.73,2.1-1.81c0.08-1.08-0.73-2.02-1.81-2.1C1669.85,1587.19,1669.77,1587.19,1669.69,1587.19z"/>
				<path d="M1657.38,1611.72l-14.82-23.07c-0.09-0.14-0.28-0.18-0.42-0.09c-0.13,0.08-0.18,0.25-0.11,0.39l11.93,24.69
					c0.47,0.98,1.64,1.39,2.62,0.92c0.98-0.47,1.39-1.64,0.91-2.62C1657.47,1611.86,1657.42,1611.78,1657.38,1611.72z"/>
				<path d="M1629.99,1613.32l12.57-24.37c0.08-0.15,0.02-0.33-0.13-0.41c-0.14-0.07-0.3-0.03-0.39,0.1l-15.41,22.68
					c-0.61,0.9-0.38,2.12,0.52,2.73c0.9,0.61,2.12,0.38,2.73-0.52C1629.91,1613.46,1629.96,1613.39,1629.99,1613.32z"/>
				<path d="M1614.9,1590.4l27.39-1.31c0.17-0.01,0.3-0.15,0.29-0.32c-0.01-0.15-0.13-0.28-0.28-0.29l-27.34-2.01
					c-1.08-0.08-2.02,0.73-2.1,1.81c-0.08,1.08,0.73,2.02,1.81,2.1C1614.74,1590.4,1614.83,1590.4,1614.9,1590.4z"/>
				<path d="M1627.21,1565.88l14.82,23.06c0.09,0.14,0.28,0.18,0.42,0.09c0.13-0.08,0.18-0.25,0.11-0.39l-11.93-24.68
					c-0.47-0.98-1.64-1.39-2.62-0.92c-0.98,0.47-1.39,1.64-0.91,2.62C1627.13,1565.74,1627.17,1565.82,1627.21,1565.88z"/>
			</g>
		</g>
		<path class="st20" d="M1724.54,1582.6h22.94c0,4.08,0,9.15,0,13.14c0,0.79-0.11,1.53-0.28,2.23h-28.13L1724.54,1582.6z"/>
		<polygon class="st11" points="1725.09,1594.49 1728.34,1594.49 1729.96,1585.4 1726.71,1585.4 		"/>
		<polygon class="st37" points="1725.69,1591.1 1728.94,1591.1 1728.34,1594.49 1725.09,1594.49 		"/>
		
			<linearGradient id="SVGID_7_" gradientUnits="userSpaceOnUse" x1="42.9705" y1="1463.5364" x2="42.9705" y2="1512.282" gradientTransform="matrix(-1 0 0 1 1596.2949 0)">
			<stop  offset="0" style="stop-color:#5F5A5E"/>
			<stop  offset="0.2754" style="stop-color:#262529"/>
			<stop  offset="0.4741" style="stop-color:#29282C"/>
			<stop  offset="0.6249" style="stop-color:#333135"/>
			<stop  offset="0.7595" style="stop-color:#434044"/>
			<stop  offset="0.8093" style="stop-color:#4B484B"/>
		</linearGradient>
		<path class="st40" d="M1578.07,1507.35c-10.59-9.32-39.35-27.76-54.72-36.84c-6.86-4.05-5.63-5.81-1.29-7.22
			c45.6,18.51,63.98,47.7,63.98,47.7c0.71-0.12,1.4-0.2,2.1-0.32C1586.5,1513.25,1584.09,1512.65,1578.07,1507.35z"/>
		
			<linearGradient id="SVGID_8_" gradientUnits="userSpaceOnUse" x1="106.4707" y1="1459.8746" x2="106.4707" y2="1515.988" gradientTransform="matrix(-1 0 0 1 1596.2949 0)">
			<stop  offset="0" style="stop-color:#5F5A5E"/>
			<stop  offset="0.2754" style="stop-color:#262529"/>
			<stop  offset="0.4741" style="stop-color:#29282C"/>
			<stop  offset="0.6249" style="stop-color:#333135"/>
			<stop  offset="0.7595" style="stop-color:#434044"/>
			<stop  offset="0.8093" style="stop-color:#4B484B"/>
		</linearGradient>
		<path class="st41" d="M1491.66,1461.39c3.57,0.52,8.41,3.64,11.32,5.77l61.34,44.83c2.91,2.13,2.35,3.85-1.26,3.85h-143.08
			c-3.61,0-6.53-2.92-6.53-6.53v-46.01c0-2.04,18.86-3.7,42.13-3.7C1470.89,1459.6,1484.28,1460.32,1491.66,1461.39z"/>
		
			<linearGradient id="SVGID_9_" gradientUnits="userSpaceOnUse" x1="219.8642" y1="1464.7479" x2="219.8642" y2="1515.9752" gradientTransform="matrix(-1 0 0 1 1596.2949 0)">
			<stop  offset="0" style="stop-color:#5F5A5E"/>
			<stop  offset="0.2754" style="stop-color:#262529"/>
			<stop  offset="0.4741" style="stop-color:#29282C"/>
			<stop  offset="0.6249" style="stop-color:#333135"/>
			<stop  offset="0.7595" style="stop-color:#434044"/>
			<stop  offset="0.8093" style="stop-color:#4B484B"/>
		</linearGradient>
		<path class="st42" d="M1351.95,1515.84h46.26c3.61,0,6.53-2.92,6.53-6.53v-39.49c0-3.61-2.86-5.93-6.39-5.19l-14.99,3.14
			c-3.53,0.74-8.03,3.76-10.04,6.75l-24.24,35.91C1347.06,1513.42,1348.35,1515.84,1351.95,1515.84z"/>
		
			<linearGradient id="SVGID_10_" gradientUnits="userSpaceOnUse" x1="366.7068" y1="1539.1656" x2="388.6363" y2="1539.1656" gradientTransform="matrix(-1 0 0 1 1596.2949 0)">
			<stop  offset="0" style="stop-color:#DA2A24"/>
			<stop  offset="1" style="stop-color:#A01916"/>
		</linearGradient>
		<path class="st43" d="M1213.38,1533.39h16.21v11.55h-21.93C1209.54,1540.38,1211.51,1536.55,1213.38,1533.39z"/>
		<g>
			<path d="M1314.05,1533.25c22.18,0,41.35,13.1,50.21,31.96l4.6,15.21c0.41,2.7,0.63,17.91,0.63,20.71
				c-6.29,0-110.87-7.48-110.87-7.48C1258.62,1563.08,1283.49,1533.25,1314.05,1533.25z"/>
			
				<radialGradient id="SVGID_11_" cx="282.2433" cy="1588.6801" r="47.5097" gradientTransform="matrix(-1 0 0 1 1596.2949 0)" gradientUnits="userSpaceOnUse">
				<stop  offset="0.8558" style="stop-color:#303031"/>
				<stop  offset="0.8699" style="stop-color:#353435"/>
				<stop  offset="0.9483" style="stop-color:#49484A"/>
				<stop  offset="1" style="stop-color:#514F51"/>
			</radialGradient>
			<path class="st44" d="M1266.54,1588.68c0,26.24,21.27,47.51,47.51,47.51c26.24,0,47.51-21.27,47.51-47.51
				c0-26.24-21.26-47.52-47.51-47.52C1287.82,1541.17,1266.54,1562.44,1266.54,1588.68z"/>
			
				<radialGradient id="SVGID_12_" cx="282.2417" cy="1588.6785" r="30.9521" gradientTransform="matrix(-1 0 0 1 1596.2949 0)" gradientUnits="userSpaceOnUse">
				<stop  offset="0" style="stop-color:#FFFFFF"/>
				<stop  offset="0.0651" style="stop-color:#F7F7F7"/>
				<stop  offset="0.1737" style="stop-color:#EFEFEF"/>
				<stop  offset="0.6285" style="stop-color:#EFEFEF"/>
				<stop  offset="0.7034" style="stop-color:#EFEFEF"/>
				<stop  offset="0.8455" style="stop-color:#EDEDED"/>
				<stop  offset="0.8967" style="stop-color:#E6E6E6"/>
				<stop  offset="0.9332" style="stop-color:#DBDBDB"/>
				<stop  offset="0.9627" style="stop-color:#CACACA"/>
				<stop  offset="0.9876" style="stop-color:#B5B5B4"/>
				<stop  offset="1" style="stop-color:#A7A7A6"/>
			</radialGradient>
			<path class="st45" d="M1314.05,1619.63c17.08,0,30.96-13.89,30.96-30.96c0-17.06-13.88-30.94-30.96-30.94
				c-17.06,0-30.95,13.88-30.95,30.94C1283.1,1605.74,1296.99,1619.63,1314.05,1619.63z"/>
			<g>
				<path d="M1306.61,1562.58c0-1.89,3.33-3.42,7.44-3.42c4.11,0,7.44,1.53,7.44,3.42c0,0.32-7.45,23.03-7.45,23.03
					S1306.61,1562.89,1306.61,1562.58z"/>
				<path d="M1332.94,1569.18c1.64-0.94,4.63,1.18,6.69,4.73c2.05,3.56,2.4,7.21,0.76,8.16c-0.27,0.16-23.67,5.06-23.67,5.06
					S1332.67,1569.34,1332.94,1569.18z"/>
				<path d="M1340.38,1595.29c1.64,0.95,1.3,4.6-0.76,8.15c-2.05,3.56-5.04,5.68-6.69,4.74c-0.27-0.16-16.22-17.96-16.22-17.96
					S1340.1,1595.14,1340.38,1595.29z"/>
				<path d="M1321.49,1614.78c0,1.9-3.34,3.42-7.44,3.42c-4.11,0-7.45-1.53-7.45-3.43c0-0.31,7.45-23.03,7.45-23.03
					S1321.49,1614.47,1321.49,1614.78z"/>
				<path d="M1295.16,1608.17c-1.64,0.94-4.63-1.18-6.68-4.73c-2.05-3.56-2.4-7.21-0.76-8.16c0.27-0.16,23.67-5.06,23.67-5.06
					S1295.44,1608.02,1295.16,1608.17z"/>
				<path d="M1287.73,1582.07c-1.64-0.94-1.3-4.6,0.76-8.15c2.06-3.56,5.05-5.69,6.69-4.74c0.27,0.15,16.22,17.97,16.22,17.97
					S1288,1582.22,1287.73,1582.07z"/>
				<path d="M1326.36,1564.15l-12.57,24.37c-0.08,0.15-0.02,0.33,0.13,0.41c0.14,0.07,0.3,0.03,0.39-0.1l15.41-22.68
					c0.61-0.9,0.38-2.12-0.52-2.73c-0.9-0.61-2.12-0.38-2.73,0.52C1326.44,1564.01,1326.39,1564.08,1326.36,1564.15z"/>
				<path d="M1341.45,1587.07l-27.39,1.3c-0.17,0.01-0.3,0.15-0.29,0.32c0.01,0.15,0.13,0.28,0.28,0.29l27.35,2.01
					c1.08,0.08,2.02-0.73,2.1-1.81c0.08-1.08-0.73-2.02-1.81-2.1C1341.61,1587.07,1341.52,1587.07,1341.45,1587.07z"/>
				<path d="M1329.14,1611.6l-14.82-23.07c-0.09-0.14-0.28-0.18-0.42-0.09c-0.13,0.08-0.18,0.25-0.11,0.39l11.93,24.69
					c0.47,0.98,1.64,1.39,2.62,0.91c0.98-0.47,1.39-1.64,0.91-2.62C1329.22,1611.74,1329.18,1611.66,1329.14,1611.6z"/>
				<path d="M1301.74,1613.2l12.57-24.37c0.08-0.15,0.02-0.33-0.13-0.41c-0.14-0.07-0.3-0.03-0.39,0.1l-15.41,22.68
					c-0.61,0.9-0.38,2.12,0.52,2.73c0.9,0.61,2.12,0.38,2.73-0.52C1301.67,1613.34,1301.71,1613.27,1301.74,1613.2z"/>
				<path d="M1286.66,1590.28l27.39-1.3c0.17-0.01,0.3-0.15,0.29-0.32c-0.01-0.15-0.13-0.28-0.28-0.29l-27.34-2
					c-1.08-0.08-2.02,0.73-2.1,1.81c-0.08,1.08,0.73,2.02,1.81,2.1C1286.5,1590.29,1286.59,1590.29,1286.66,1590.28z"/>
				<path d="M1298.96,1565.76l14.82,23.06c0.09,0.14,0.28,0.18,0.42,0.09c0.13-0.08,0.18-0.25,0.11-0.39l-11.93-24.68
					c-0.47-0.98-1.64-1.39-2.62-0.91c-0.98,0.47-1.39,1.64-0.91,2.62C1298.88,1565.62,1298.93,1565.7,1298.96,1565.76z"/>
			</g>
		</g>
		<g>
			<path class="st46" d="M1455.59,1462.87c14.52,0,28.16,0.67,35.6,1.75c2.16,0.32,5.94,2.3,9.87,5.17l16.34,11.94l-100.67-2.55
				v-13.99C1420.99,1464.14,1434.54,1462.87,1455.59,1462.87z"/>
			<path d="M1559.6,1512.58h-139.62c-1.8,0-3.26-1.46-3.26-3.26v-30.14l100.67,2.55L1559.6,1512.58z"/>
			<path d="M1374.83,1478.11l26.65,0.68v30.53c0,1.8-1.46,3.26-3.26,3.26h-46.26c-0.14,0-0.26-0.01-0.36-0.02
				c0.05-0.09,0.11-0.19,0.19-0.31L1374.83,1478.11z"/>
			<path class="st46" d="M1376.02,1476.35c1.55-2.3,5.29-4.81,8-5.38l14.99-3.14c0.22-0.04,0.42-0.07,0.62-0.07
				c1.15,0,1.84,0.77,1.84,2.07v8.96l-26.65-0.68L1376.02,1476.35z"/>
		</g>
		<g>
			<polygon class="st20" points="1545.81,1502.72 1551.3,1508.64 1547.82,1511.98 1540.3,1509.52 			"/>
			<path class="st20" d="M1525.34,1506.37l2.36-17.44c0.43-3.13,4.25-4.8,8.31-3.31c8.76,3.22,12.11,21.54,11.69,22.36
				c-2.32,4.5-8.25,4.19-15.18,4.16C1528.13,1512.12,1524.92,1509.51,1525.34,1506.37z"/>
			<path class="st20" d="M1525.34,1506.37l2.36-17.44c0.43-3.13,4.25-4.8,8.31-3.31c8.76,3.22,12.11,21.54,11.69,22.36
				c-2.32,4.5-8.25,4.19-15.18,4.16C1528.13,1512.12,1524.92,1509.51,1525.34,1506.37z"/>
			<path class="st20" d="M1525.34,1506.45l2.36-17.44c0.43-3.13,4.25-4.8,8.31-3.31c8.76,3.22,12.11,21.54,11.69,22.36
				c-2.32,4.5-8.25,4.19-15.18,4.16C1528.13,1512.2,1524.92,1509.58,1525.34,1506.45z"/>
		</g>
		<g>
			<g>
				<path class="st47" d="M1421.45,1544.94c0-3.94,5.1-7.03,11.6-7.03c6.5,0,11.6,3.09,11.6,7.03c0,3.95-5.1,7.04-11.6,7.04
					C1426.54,1551.98,1421.45,1548.88,1421.45,1544.94z M1423.51,1544.94c0,2.69,4.38,4.97,9.55,4.97c5.17,0,9.54-2.28,9.54-4.97
					c0-2.69-4.37-4.97-9.54-4.97C1427.88,1539.97,1423.51,1542.25,1423.51,1544.94z"/>
			</g>
			<g>
				
					<linearGradient id="SVGID_13_" gradientUnits="userSpaceOnUse" x1="163.2485" y1="1537.7347" x2="163.2485" y2="1552.8162" gradientTransform="matrix(-1 0 0 1 1596.2949 0)">
					<stop  offset="0" style="stop-color:#A7A7A6"/>
					<stop  offset="0.1273" style="stop-color:#A9A9A8"/>
					<stop  offset="0.1752" style="stop-color:#B0B0AF"/>
					<stop  offset="0.2096" style="stop-color:#BBBBBB"/>
					<stop  offset="0.2376" style="stop-color:#CCCCCC"/>
					<stop  offset="0.2615" style="stop-color:#E2E2E2"/>
					<stop  offset="0.2669" style="stop-color:#E8E8E8"/>
					<stop  offset="0.5381" style="stop-color:#F1F1F1"/>
					<stop  offset="0.6992" style="stop-color:#DDDEDE"/>
					<stop  offset="0.7523" style="stop-color:#C5C6C6"/>
					<stop  offset="0.8515" style="stop-color:#9E9E9E"/>
					<stop  offset="0.9305" style="stop-color:#868686"/>
					<stop  offset="0.9788" style="stop-color:#7D7D7D"/>
				</linearGradient>
				<path class="st48" d="M1422.48,1544.94c0,3.32,4.73,6.01,10.58,6.01c5.84,0,10.56-2.69,10.56-6.01s-4.72-6-10.56-6
					C1427.21,1538.94,1422.48,1541.62,1422.48,1544.94z"/>
				<g>
					
						<linearGradient id="SVGID_14_" gradientUnits="userSpaceOnUse" x1="183.3726" y1="1566.3232" x2="183.3726" y2="1571.7611" gradientTransform="matrix(-1 -3.500000e-03 -3.500000e-03 1 1622.2535 -24.1386)">
						<stop  offset="0" style="stop-color:#989898"/>
						<stop  offset="0.2585" style="stop-color:#EAEAEA"/>
						<stop  offset="0.6907" style="stop-color:#5D5D5D"/>
					</linearGradient>
					<path class="st49" d="M1418.25,1544.88c-0.01,1.18,0.94,2.14,2.11,2.14l26.36,0.09c1.17,0,2.12-0.94,2.12-2.12l0,0
						c0.01-1.19-0.93-2.15-2.1-2.15l-26.44-1.26C1419.12,1541.59,1417.19,1542.33,1418.25,1544.88L1418.25,1544.88z"/>
				</g>
			</g>
		</g>
	</g>
</g>
</svg>
