<?xml version="1.0" encoding="utf-8"?>
<!-- Generator: Adobe Illustrator 23.0.0, SVG Export Plug-In . SVG Version: 6.00 Build 0)  -->
<svg version="1.1" id="Camada_1" xmlns="http://www.w3.org/2000/svg" xmlns:xlink="http://www.w3.org/1999/xlink" x="0px" y="0px"
	 viewBox="0 0 1800 1800" style="enable-background:new 0 0 1800 1800;" xml:space="preserve">
<style type="text/css">
	.st0{fill:#FCCB68;}
	.st1{opacity:0.5;fill:#808080;}
	.st2{fill:#FFEBC9;}
	.st3{fill:#E63C1E;}
	.st4{fill:#F3CBA2;}
	.st5{fill:#FACB99;}
	.st6{fill:#FBD7B0;}
	.st7{display:none;fill:#E95A1C;}
	.st8{display:none;fill:#FFFFFF;}
	.st9{opacity:0.5;fill:#FACB99;}
	.st10{display:none;fill:#FFEBC9;}
	.st11{fill:#E74527;}
	.st12{fill:#C33917;}
	.st13{fill:#E95A1C;}
	.st14{fill:#FFFFFF;}
	.st15{stroke:#1D1E1C;stroke-linecap:round;stroke-linejoin:round;stroke-miterlimit:10;}
	.st16{opacity:0.3;fill:#F3C89D;}
	.st17{fill:#1D1E1C;}
	.st18{opacity:0.1;fill:#EC686A;}
	.st19{fill:none;stroke:#1D1E1C;stroke-miterlimit:10;}
	.st20{fill:#006799;}
	.st21{opacity:0.2;fill:#1D1D1B;}
	.st22{fill:#F9D090;}
	.st23{fill:url(#SVGID_1_);}
	.st24{fill:url(#SVGID_2_);}
	.st25{fill:url(#SVGID_3_);}
	.st26{fill:url(#SVGID_4_);}
	.st27{fill:url(#SVGID_5_);}
	.st28{fill:#FCFBFA;}
	.st29{fill:#F9F7F4;}
	.st30{fill:#F7F3EF;}
	.st31{fill:#F3EFE9;}
	.st32{fill:#F1EAE3;}
	.st33{fill:#EEE7DE;}
	.st34{fill:#EBE3D8;}
	.st35{fill:#E8DED3;}
	.st36{fill:#E5DBCE;}
	.st37{fill:#E3D7C8;}
	.st38{fill:#DFD2C2;}
	.st39{fill:#F6B9AB;}
	.st40{fill:url(#SVGID_6_);}
	.st41{fill:url(#SVGID_7_);}
	.st42{fill:#E5213B;}
	.st43{fill:url(#SVGID_8_);}
	.st44{fill:url(#SVGID_9_);}
	.st45{fill:url(#SVGID_10_);}
	.st46{fill:url(#SVGID_11_);}
	.st47{fill:url(#SVGID_12_);}
	.st48{fill:#484747;}
	.st49{fill:url(#SVGID_13_);}
	.st50{fill:url(#SVGID_14_);}
	.st51{fill:url(#SVGID_15_);}
	.st52{fill:#C9C8C8;}
	.st53{fill:url(#SVGID_16_);}
	.st54{fill:url(#SVGID_17_);}
</style>
<g>
	<rect x="2.38" class="st0" width="1800" height="1800"/>
	<g>
		<g id="XMLID_1360_">
			<path id="XMLID_2360_" class="st1" d="M1399.54,1121.8l-231.33-82.21c0-0.28,0.23-0.28,0.23-0.54
				c-16.38-30.11-37.05-50.28-65.82-61.79c-12.89-6.75-26.88-11.04-41.39-12.96v-36.68c52.67-45.89,93.44-113.26,114.94-192.49
				c3.4,0.01,6.8-0.54,10.17-1.64c25.02-7.87,48.04-44.85,55.17-92.19c8.45-56.36-8.55-106.43-38.25-112.72
				c-0.27-0.17-0.8-0.37-1.11-0.37c-4.9-0.88-9.9-0.48-14.84,0.95c-0.01-0.07-0.03-0.15-0.04-0.22
				c13.44-6.16,14.24-29.55,14.24-80.64c0-8.99-5.77-20.15-16.11-32.27c-5.39-103.13-79.3-131.75-116.34-128.56
				c-5.63,0.52-10.47,1.61-13.94,3.49c-9.71-16.15-21.76-29.85-35.49-41.13c-108.58-90.82-323.28-33.58-391.85,147.56
				c8.89-7.8,19.37-15.57,30.92-23.4c13.45-8.85,28.5-17.74,44.92-26.04c-0.07,0.19-0.13,0.39-0.2,0.57
				c-16.11,8.23-31.03,16.96-44.27,25.86c-0.26,0-0.26,0-0.26,0c-40.02,26.88-65.04,55.11-65.04,73.91
				c0,50.29,0.84,73.42,13.36,80.15c-1.08,0.24-2.1,0.64-3.14,0.98c-0.46,0.15-0.93,0.26-1.39,0.43c-1.71,0.66-3.36,1.47-4.97,2.41
				c-0.02,0.01-0.04,0.02-0.06,0.03c-23.88,14.07-36.34,58.95-28.72,108.99c4.66,31.56,16.48,58.41,31.22,75.12
				c4.83,5.53,9.97,9.98,15.27,13.13c0.4,0.24,0.81,0.39,1.21,0.61c0.03,0.01,0.05,0.03,0.08,0.04c0.46,0.26,0.92,0.46,1.38,0.7
				c1.2,4.58,2.47,9.11,3.79,13.61c0.02,0.08,0.04,0.15,0.07,0.23c22.94,77.74,64.49,143.31,117.55,187.39v37
				c-14.24,0.8-28.5,4.04-36.01,8.1c-28.71,11.52-49.44,31.68-65.84,61.79l-223.61,83.02c-0.48,0.26-1.33,0.26-1.84,0.54
				c-0.29,0-0.29,0.3-0.55,0.3c-22.02,6.94-37.9,25.78-37.9,47.82v376.24c0,27.94,25.79,50.81,56.98,50.81h952.7
				c31.43,0,56.99-22.87,56.99-50.81v-376.24C1440.45,1147.62,1423.24,1127.99,1399.54,1121.8z M860.31,300.4
				c0.24-0.26,0.5-0.26,0.8,0c12.09-1.1,23.9-1.91,35.99-1.91c33.93,0,67.88,5.2,100.17,13.77c-32.15-8.5-65.94-13.64-99.67-13.64
				c-12.94,0-25.85,0.83-38.67,2.23C859.39,300.71,859.84,300.54,860.31,300.4z M1012.68,316.63c-4.89-1.47-9.82-2.87-14.79-4.2
				C1002.86,313.76,1007.8,315.15,1012.68,316.63z"/>
			<path class="st2" d="M850.59,157.15c0,0-346.79,0.96-359.52,444.86c0,0,9.55,89.54-25.46,145.49
				c-35,55.95-25.61,192.9-19.09,221.52c6.43,28.25-117.18,232.66-46.14,249.88c227.81,55.23,996.47-13.7,996.47-13.7
				s-119.81-226.58-94.35-312.61s54.1-247.67,0-362.68S1270.75,157.09,850.59,157.15z"/>
			<path id="XMLID_2641_" class="st3" d="M1430.97,1159.58v376.24c0,27.94-25.56,50.81-56.99,50.81h-952.7
				c-31.18,0-56.98-22.87-56.98-50.81v-376.24c0-22.04,15.87-40.88,37.9-47.82c0.26,0,0.26-0.3,0.55-0.3
				c0.51-0.27,1.36-0.27,1.84-0.54l223.61-83.02c31.71,83.86,102.16,146.46,180.59,191.61c3-18.27,11.61-38.71,23.4-57.5
				c14.77,61.81,15.85,267.1,15.85,267.1h56.7c29.85-188.94,0-321.67,0-321.67c35.21,24.72,67.2,72.58,73.66,112.07
				c78.18-45.15,148.59-107.51,180.33-191.07l231.33,82.21C1413.76,1116.84,1430.97,1136.47,1430.97,1159.58z"/>
			<path id="XMLID_2640_" class="st4" d="M630.12,723.52c-8.13,1.5-16.32-0.35-24.14-5.1c-21.41-12.72-40.1-46.35-46.5-88.25
				c-8.55-57.05,9.02-107.59,39.55-113.09c2.73-0.47,5.61-0.63,8.21-0.1c1.73,0,3.27,0.1,4.87,0.63c6.5,1.54,13.03,5.13,19.11,10.51
				c17.85,15.65,32.79,45.87,38.28,82.34C678.16,667.51,660.41,718.05,630.12,723.52z"/>
			<path id="XMLID_2639_" class="st5" d="M1232.04,630.17c-7.13,47.35-30.15,84.33-55.17,92.19c-5.1,1.66-10.29,2.21-15.42,1.16
				c-30.33-5.47-48.08-56.01-39.34-113.08c5.27-34.59,18.82-63.61,35.62-79.72c6.02-6.01,12.46-10.2,19.13-12.45
				c5.26-1.67,10.59-2.15,15.81-1.2c0.31,0,0.84,0.2,1.11,0.37C1223.49,523.74,1240.49,573.8,1232.04,630.17z"/>
			<path id="XMLID_2638_" class="st5" d="M1067.91,1000.45c-5.13,5.68-10.51,11.04-16.16,16.15c-1.89,1.62-3.76,3.51-5.61,5.12
				c-2.42,2.7-5.12,5.09-8.09,7.24c-3.23,2.68-6.45,5.39-9.66,8.09c-18.29,14.76-37.11,27.11-53.23,35.73
				c-8.32,4.32-16.89,8.89-25.8,13.19c-14.23,7.26-29.27,14.76-44.61,21.49c0,0,29.85,132.73,0,321.67v-13.69
				c0-108.58-22.31-307.98-22.31-307.98c-16.65-7.54-33.06-15.6-48.6-23.4c-7.54-3.74-14.8-7.51-21.8-11.28
				c-16.38-8.61-35.18-20.96-53.21-35.73c-3.19-2.7-6.44-5.41-9.64-8.09c-6.73-5.6-12.94-11.57-19.12-17.46l-5.63-5.65
				c-0.55-0.52-1.1-1.07-1.33-1.6c2.15-1.07,4.58-1.91,6.96-2.7V860.45h321.7v131.69C1057.13,994.82,1062.49,997.52,1067.91,1000.45
				z"/>
			<path id="XMLID_2637_" class="st6" d="M1183.7,590.36v4.58c-0.25,13.43-0.78,26.88-1.88,40.3c-1.83,21.24-4.31,41.67-8.56,61.56
				c-34.16,163.65-148.89,284.31-284.91,284.31c-137.3,0-252.6-122.26-285.93-288.08c-6.19-31.43-9.68-64.52-9.68-98.09v-4.58
				c0-25.27,1.91-49.44,5.39-72.81c1.07-8.61,2.68-17.24,4.29-25.54c9.4-47.02,25.54-90.58,47.02-128.74c0,0,0,0,0.26,0
				c58.35-39.22,148.11-75.79,238.42-75.79c89.98,0,180.33,36.57,238.89,75.79c20.95,37.37,36.84,79.56,46.26,125
				c1.6,7.8,2.39,15.85,3.48,23.62c0.24,0.84,0.54,1.39,0.54,2.19c0.23,1.32,0.52,2.41,0.52,3.74c0.79,4.56,1.62,9.12,2.19,14.26
				c0.24,0.79,0.24,1.31,0.24,2.12c0.52,5.65,1.09,11.57,1.6,17.22C1182.65,564.32,1183.7,576.93,1183.7,590.36z"/>
			<path id="XMLID_2636_" class="st7" d="M1192.03,437.17c0,51.09-0.8,74.47-14.24,80.64c-2.41,1.33-5.64,1.88-9.42,1.88
				c-22.3,0-95.12-108.31-280.26-108.31c-164.23,0-240.29,85.2-270.65,104.52c-4.03,2.15-7.25,3.8-9.68,3.8
				c-3.77,0-6.97-0.55-9.66-2.15c-12.89-6.46-13.73-29.58-13.73-80.38c0-18.8,25.02-47.03,65.04-73.91c0,0,0,0,0.26,0
				c58.35-39.22,148.11-75.79,238.42-75.79c89.98,0,180.33,36.57,238.89,75.79C1167.05,390.14,1192.03,418.37,1192.03,437.17z"/>
			<path id="XMLID_2634_" class="st8" d="M1168.68,519.61c0,43.5-2.51,72.9-39,72.9c-36.47,0-76.32-85.94-241.44-85.94
				c-165.15,0-204.99,85.94-241.46,85.94c-36.47,0-39-29.4-39-72.9c2.53,0,5.65-1.4,9.59-3.67
				c30.53-19.27,106.6-104.67,270.87-104.67c164.24,0,240.3,85.4,270.86,104.67C1163.03,518.21,1166.16,519.61,1168.68,519.61z"/>
			<path id="XMLID_2633_" class="st9" d="M1072.45,423.48c-28.21,28.74-0.81-40-40.59-47.24C978.1,365.2,885.92,530.8,832.19,544.25
				c-62.63,15.6-115.25,95.3-151,146.65c-15.57,22.31-38.14,44.61-64.47,56.17c-2.96-8.91-5.65-18.02-8.07-27.41
				c-1.05-0.29-1.87-0.84-2.67-1.39c-21.51-12.59-40.3-46.19-46.5-88.1c-8.6-56.45,8.34-106.43,38.43-112.89
				c2.67,1.61,5.89,2.16,9.68,2.16c0,43.54,2.69,73.09,38.94,73.09c5.65,0-21.79-60.67-15.34-64.41
				c34.13-18.83,87.96-252.57,227.72-252.57C990.08,275.54,1038.32,401.18,1072.45,423.48z"/>
			<path id="XMLID_2632_" class="st10" d="M1175.98,405.61c-11.29-13.43-28.5-28.21-49.99-42.74
				c-58.59-39.22-148.6-75.53-238.38-75.53c-12.09,0-23.9,0.81-35.99,1.91c-0.3-0.26-0.56-0.26-0.8,0
				c-53.23,15.83-95.67,50.25-116.66,104.82c-4.84-26.62-2.96-53.47,9.13-77.42c-23.65,11.57-40.83,30.62-52.95,53.21
				c-1.86-9.37-0.27-22.33,3.81-33.03c-16.42,8.3-31.47,17.2-44.92,26.04c-11.56,7.83-22.04,15.6-30.92,23.4
				c68.57-181.14,283.27-238.38,391.85-147.56c13.73,11.28,25.78,24.98,35.49,41.13c3.47-1.88,8.31-2.97,13.94-3.49
				C1096.71,273.14,1170.9,301.89,1175.98,405.61z"/>
			<path id="XMLID_2631_" class="st11" d="M882.43,1107.44c-18.79,13.16-36.55,32.79-49.98,54.25l-0.26,0.31
				c-11.79,18.79-20.4,39.23-23.4,57.5c-78.42-45.15-148.88-107.75-180.59-191.61c16.4-30.11,37.13-50.28,65.84-61.79
				c7.02,12.88,17.22,25.78,29.05,38.13c0.24,0.52,0.79,1.07,1.33,1.6l5.63,5.65c6.18,5.89,12.39,11.86,19.12,17.46
				c3.21,2.68,6.45,5.39,9.64,8.09c18.03,14.76,36.82,27.11,53.21,35.73c7,3.77,14.26,7.54,21.8,11.28
				C849.37,1091.84,865.78,1099.9,882.43,1107.44z"/>
			<path id="XMLID_2630_" class="st11" d="M1158.96,1027.9c0,0.26-0.23,0.26-0.23,0.54c-31.73,83.55-102.15,145.92-180.33,191.07
				c-6.46-39.49-38.45-87.35-73.66-112.07c15.34-6.73,30.39-14.23,44.61-21.49c8.91-4.3,17.48-8.87,25.8-13.19
				c16.12-8.61,34.94-20.96,53.23-35.73c3.21-2.7,6.43-5.41,9.66-8.09c2.97-2.15,5.67-4.54,8.09-7.24c1.86-1.61,3.73-3.49,5.61-5.12
				c5.65-5.1,11.03-10.47,16.16-16.15c10.19-11.28,18.79-22.82,25.23-34.34C1121.92,977.63,1142.58,997.79,1158.96,1027.9z"/>
			<path id="XMLID_2629_" class="st12" d="M904.74,1415.42v13.69h-56.7c0,0-1.07-205.29-15.85-267.1l0.26-0.31
				c13.43-21.46,31.19-41.09,49.98-54.25C882.43,1107.44,904.74,1306.85,904.74,1415.42z"/>
			<path id="XMLID_2628_" class="st13" d="M974.19,1255.27c0,9.88-8.03,17.88-17.9,17.88c-9.92,0-17.93-8-17.93-17.88
				c0-9.92,8.01-17.94,17.93-17.94C966.15,1237.33,974.19,1245.36,974.19,1255.27z"/>
			<path id="XMLID_2627_" class="st13" d="M968.57,1353.8c0,9.87-8.02,17.93-17.92,17.93c-9.88,0-17.9-8.06-17.9-17.93
				c0-9.92,8.02-17.93,17.9-17.93C960.55,1335.87,968.57,1343.88,968.57,1353.8z"/>
			<rect id="XMLID_2624_" x="1041.9" y="1436.65" class="st11" width="234.01" height="56"/>
			<path id="XMLID_2623_" class="st12" d="M730.05,958.01v43.54c-2.38,0.79-4.81,1.62-6.96,2.7
				c-11.83-12.35-22.04-25.26-29.05-38.13C701.55,962.06,715.82,958.81,730.05,958.01z"/>
			<path id="XMLID_2622_" class="st12" d="M1093.14,966.11c-6.44,11.52-15.04,23.06-25.23,34.34c-5.42-2.93-10.78-5.63-16.16-8.31
				v-38.98C1066.26,955.07,1080.25,959.36,1093.14,966.11z"/>
			<g>
				<rect x="510.96" y="1271.66" class="st0" width="206.12" height="206.12"/>
				<circle class="st14" cx="614.02" cy="1381.37" r="68.4"/>
				<g>
					<path d="M575.98,1395.81l-0.21-20.63l-0.14-20.63l0.69-0.05c0.63,3.61,1.53,7.19,2.66,10.67c1.15,3.48,2.53,6.9,4.47,9.98
						c0.97,1.53,2.09,2.97,3.45,4.13c0.66,0.6,1.42,1.07,2.19,1.48c0.8,0.36,1.63,0.66,2.46,0.72c0.82,0.04,1.59-0.24,2.16-0.83
						c0.57-0.58,0.96-1.39,1.26-2.21c0.61-1.67,0.86-3.5,1.12-5.3c0.47-3.64,0.69-7.34,1.43-11.01c0.38-1.83,0.89-3.66,1.8-5.36
						c0.47-0.84,1.02-1.66,1.77-2.31c0.73-0.63,1.58-1.29,2.77-1.29c0.59-0.02,1.13,0.28,1.55,0.61c0.4,0.37,0.71,0.78,0.94,1.22
						c0.48,0.87,0.77,1.79,1,2.7c0.47,1.83,0.68,3.69,0.85,5.54c0.29,3.71,0.31,7.41,0.15,11.12l-0.06-0.24l11.99,21.53l-0.55-0.02
						c1.64-2.58,2.91-5.44,3.86-8.36c0.93-2.94,1.51-6,1.63-9.08c0-0.77,0.09-1.55,0.01-2.32l-0.18-2.31
						c-0.1-0.77-0.28-1.52-0.41-2.28c-0.08-0.38-0.13-0.76-0.23-1.14l-0.35-1.11c-0.8-3.01-2.4-5.72-4.07-8.32
						c1.73,2.57,3.39,5.25,4.26,8.27l0.38,1.11c0.11,0.37,0.17,0.76,0.26,1.14c0.15,0.77,0.35,1.52,0.46,2.3l0.23,2.33
						c0.09,0.78,0.02,1.56,0.04,2.34c-0.06,3.12-0.57,6.24-1.5,9.23c-0.94,2.99-2.17,5.87-3.84,8.56l-0.28,0.45l-0.27-0.47
						l-12.19-21.42l-0.06-0.11l0.01-0.13c0.14-3.66,0.11-7.35-0.19-11c-0.17-1.82-0.39-3.64-0.84-5.39
						c-0.22-0.87-0.51-1.73-0.92-2.47c-0.41-0.74-1-1.36-1.7-1.34c-0.7-0.02-1.47,0.49-2.09,1.05c-0.65,0.56-1.14,1.3-1.56,2.06
						c-0.83,1.56-1.33,3.32-1.68,5.1c-0.73,3.57-0.97,7.26-1.46,10.93c-0.27,1.84-0.53,3.69-1.19,5.5c-0.33,0.89-0.75,1.8-1.48,2.54
						c-0.72,0.76-1.84,1.15-2.86,1.09c-2.03-0.19-3.76-1.19-5.2-2.43c-1.45-1.24-2.61-2.76-3.61-4.34
						c-1.98-3.19-3.39-6.66-4.51-10.2c-1.11-3.55-1.97-7.15-2.57-10.82l0.69-0.05l-0.14,20.63L575.98,1395.81z"/>
				</g>
			</g>
			<path class="st2" d="M882.43,259.77c0,0-192.42,336.11-336.81,414.44C545.62,674.21,552.18,215.82,882.43,259.77z"/>
			<ellipse class="st15" cx="747.37" cy="604.83" rx="35.32" ry="46.26"/>
			<ellipse class="st15" cx="1036.11" cy="604.83" rx="35.32" ry="46.26"/>
			<path d="M1093.29,516.64c-9.56-21.6-30.12-36.12-53.19-37.58c-35.09-2.23-64.45,26.47-60.88,37.58
				C981.78,524.58,1003.3,530.24,1093.29,516.64"/>
			<path d="M690.19,516.64c9.56-21.6,30.12-36.12,53.19-37.58c35.09-2.23,64.45,26.47,60.88,37.58
				C801.7,524.58,780.18,530.24,690.19,516.64"/>
			<path class="st16" d="M931.35,695.32c-57.43-42.64-86.27,8.75-86.27,8.75"/>
			<g>
				<path class="st17" d="M773.14,789.05c1.83,2.36,3.75,4.65,5.73,6.87c1.97,2.23,3.99,4.41,6.07,6.54
					c4.15,4.25,8.45,8.33,12.97,12.15c4.48,3.86,9.15,7.48,13.98,10.84c4.83,3.36,9.79,6.51,14.95,9.3
					c20.51,11.26,43.76,17.34,66.96,16.05c5.79-0.27,11.56-0.94,17.28-1.98c5.72-1.04,11.35-2.58,16.93-4.28
					c5.58-1.72,11.04-3.84,16.43-6.14l4-1.84c1.34-0.61,2.66-1.23,3.97-1.9l3.95-1.96c1.31-0.66,2.59-1.39,3.89-2.08
					c20.72-11.27,39.61-25.9,57.63-41.57c-15.98,17.75-34.16,33.84-54.91,46.31c-5.14,3.19-10.52,5.99-15.99,8.63
					c-5.52,2.54-11.13,4.89-16.91,6.85c-5.79,1.92-11.7,3.52-17.7,4.69c-6.01,1.15-12.1,1.92-18.23,2.25
					c-12.26,0.56-24.62-0.77-36.46-3.91c-11.82-3.21-23.16-8.07-33.54-14.41c-10.44-6.25-19.93-13.9-28.52-22.34
					c-4.26-4.27-8.33-8.7-12.1-13.38C779.74,799.05,776.18,794.2,773.14,789.05z"/>
			</g>
			<circle class="st18" cx="711.44" cy="740.14" r="48.91"/>
			<circle class="st18" cx="1072.45" cy="736.12" r="48.91"/>
			<g>
				<path d="M931.35,695.32c-7.52-3.76-14.9-7.37-22.54-9.83l-2.85-0.91c-0.95-0.29-1.92-0.5-2.87-0.76
					c-1.91-0.55-3.85-0.83-5.76-1.22c-3.86-0.56-7.73-0.83-11.56-0.63c-7.67,0.42-15.14,2.75-21.99,6.65
					c-3.44,1.93-6.71,4.25-9.81,6.85c-3.13,2.59-6.08,5.45-8.88,8.59c0.72-1.99,1.71-3.87,2.78-5.7c1.07-1.84,2.29-3.6,3.62-5.28
					c2.64-3.38,5.75-6.44,9.26-9.05c6.98-5.25,15.7-8.59,24.63-9.04c4.46-0.21,8.9,0.21,13.2,1.11c2.12,0.57,4.27,1.03,6.29,1.83
					c1.02,0.38,2.06,0.7,3.05,1.13l2.95,1.34C918.65,684.09,925.54,689.23,931.35,695.32z"/>
			</g>
			<path class="st2" d="M845.08,264.63c0,0,320.37,262.29,332.72,253.18c12.34-9.11,37.64,7.05,37.64,7.05l32.53,17.81
				c0,0-71.72-182.87-70.92-185.04c0.81-2.17-278.2-97.58-281.81-97.58C891.62,260.05,845.08,264.63,845.08,264.63z"/>
		</g>
		<path class="st19" d="M845.08,701.2"/>
	</g>
	<rect x="1160.88" y="1316.87" class="st20" width="625.1" height="468.06"/>
	<g>
		<g>
			<ellipse class="st21" cx="1479.19" cy="1625.39" rx="272.09" ry="9.05"/>
			<polygon class="st22" points="1249.54,1516.15 1270.36,1516.15 1264.16,1489.92 1243.34,1489.92 			"/>
			<path class="st0" d="M1578.19,1506.5c0,0-37.34-59.28-137.64-59.28c-70.31,0-120.67,48.9-120.67,48.9l-83.6,20.03
				c-1.71,0-4.13,0.93-5.27,2.21c-4.1,4.59-13.01,16.64-17.9,38.89c-0.37,1.67,0.17,4.17,1.16,5.57l18.91,33h492.12
				c3.42,0,6.2-2.78,6.2-6.2c0-4.14,0-9.54,0-13.56c0-7.49-5.93-17.79-10.21-25.2C1709.86,1531.05,1653.45,1493.77,1578.19,1506.5z"
				/>
			
				<linearGradient id="SVGID_1_" gradientUnits="userSpaceOnUse" x1="12.8625" y1="1593.7789" x2="229.0666" y2="1593.7789" gradientTransform="matrix(-1 0 0 1 1596.2949 0)">
				<stop  offset="0" style="stop-color:#5F5A5E"/>
				<stop  offset="0.2754" style="stop-color:#262529"/>
				<stop  offset="0.4741" style="stop-color:#29282C"/>
				<stop  offset="0.6249" style="stop-color:#333135"/>
				<stop  offset="0.7595" style="stop-color:#434044"/>
				<stop  offset="0.8093" style="stop-color:#4B484B"/>
			</linearGradient>
			<rect x="1367.23" y="1591.74" class="st23" width="216.2" height="4.08"/>
			<rect x="1578.97" y="1580.38" width="105.29" height="15.48"/>
			<polygon class="st22" points="1274.77,1595.82 1233.18,1595.82 1223.06,1578.15 1274.77,1582.56 			"/>
			<rect x="1267.23" y="1580.38" width="105.29" height="15.48"/>
			<g>
				
					<linearGradient id="SVGID_2_" gradientUnits="userSpaceOnUse" x1="37.081" y1="1551.1802" x2="38.1191" y2="1551.1802" gradientTransform="matrix(-1 0 0 1 1596.2949 0)">
					<stop  offset="0" style="stop-color:#989898"/>
					<stop  offset="0.3181" style="stop-color:#B5B5B5"/>
					<stop  offset="0.7618" style="stop-color:#D9D8D8"/>
					<stop  offset="1" style="stop-color:#E6E5E5"/>
				</linearGradient>
				<rect x="1558.18" y="1509.4" class="st24" width="1.04" height="83.55"/>
			</g>
			<g>
				
					<linearGradient id="SVGID_3_" gradientUnits="userSpaceOnUse" x1="184.7167" y1="1527.6443" x2="185.7549" y2="1527.6443" gradientTransform="matrix(-1 0 0 1 1596.2949 0)">
					<stop  offset="0" style="stop-color:#989898"/>
					<stop  offset="0.3181" style="stop-color:#B5B5B5"/>
					<stop  offset="0.7618" style="stop-color:#D9D8D8"/>
					<stop  offset="1" style="stop-color:#E6E5E5"/>
				</linearGradient>
				<rect x="1410.54" y="1462.33" class="st25" width="1.04" height="130.63"/>
			</g>
			<path class="st22" d="M1264.15,1581.66c0.03-30.71,25.02-57.28,55.74-57.28c21.5,0,41.32,12.61,50.49,32.14l0.1,0.2l4.5,14.87
				l0.03,0.22c0.42,2.73,0.63,17.05,0.63,19.8L1264.15,1581.66z"/>
			<polygon class="st22" points="1226.98,1496.12 1276.11,1496.12 1273.41,1483.72 1215.57,1483.72 			"/>
			
				<linearGradient id="SVGID_4_" gradientUnits="userSpaceOnUse" x1="49.1757" y1="1461.4192" x2="49.1757" y2="1507.7123" gradientTransform="matrix(-1 0 0 1 1596.2949 0)">
				<stop  offset="0" style="stop-color:#5F5A5E"/>
				<stop  offset="0.2754" style="stop-color:#262529"/>
				<stop  offset="0.4741" style="stop-color:#29282C"/>
				<stop  offset="0.6249" style="stop-color:#333135"/>
				<stop  offset="0.7595" style="stop-color:#434044"/>
				<stop  offset="0.8093" style="stop-color:#4B484B"/>
			</linearGradient>
			<path class="st26" d="M1570.62,1503.03c-10.06-8.85-37.37-26.36-51.96-34.98c-6.51-3.85-5.35-5.52-1.23-6.85
				c43.3,17.58,60.76,45.3,60.76,45.3c0.67-0.11,1.33-0.19,2-0.3C1578.63,1508.63,1576.34,1508.07,1570.62,1503.03z"/>
			<g>
				
					<linearGradient id="SVGID_5_" gradientUnits="userSpaceOnUse" x1="-121.6923" y1="1546.6423" x2="-80.1766" y2="1546.6423" gradientTransform="matrix(-1 0 0 1 1596.2949 0)">
					<stop  offset="0" style="stop-color:#FFFFFF"/>
					<stop  offset="0.0598" style="stop-color:#EAEAEA"/>
					<stop  offset="0.2445" style="stop-color:#B0B0B0"/>
					<stop  offset="0.4229" style="stop-color:#808080"/>
					<stop  offset="0.5908" style="stop-color:#5A5A5A"/>
					<stop  offset="0.7455" style="stop-color:#3F3F3F"/>
					<stop  offset="0.8825" style="stop-color:#2F2F2F"/>
					<stop  offset="0.9873" style="stop-color:#292929"/>
				</linearGradient>
				<path class="st27" d="M1714.07,1544.75c-5.11-8.3-17.3-14.05-36.36-14.11c-5.44-0.02,6.82,31.16,40.27,32
					C1717.99,1562.64,1716.47,1548.65,1714.07,1544.75z"/>
				<path class="st14" d="M1715.77,1560.58c-0.69-5.31-2-12.58-3.36-14.81c-5.05-8.21-17.42-12.99-33.98-13.17
					c0.02,1.3,0.85,4.71,4.03,9.4C1686.02,1547.25,1696.23,1559.24,1715.77,1560.58z"/>
				<g>
					<path class="st14" d="M1693.65,1548.12c-1.15-0.25-3.34-2.6-1.45-4.13c1.9-1.54,1.35-4.13,1.47-5.23
						c0.11-1.11,2.48-1.28,4.06,0.67C1699.31,1541.4,1701.92,1549.93,1693.65,1548.12z"/>
					<path class="st28" d="M1693.76,1547.78c-1.07-0.23-3.1-2.41-1.34-3.82c1.76-1.43,1.25-3.82,1.36-4.84
						c0.11-1.03,2.3-1.19,3.76,0.62C1699,1541.56,1701.42,1549.45,1693.76,1547.78z"/>
					<path class="st29" d="M1693.87,1547.44c-0.98-0.21-2.85-2.21-1.24-3.52c1.62-1.32,1.15-3.52,1.25-4.46
						c0.1-0.94,2.12-1.09,3.46,0.57C1698.69,1541.71,1700.92,1548.98,1693.87,1547.44z"/>
					<path class="st30" d="M1693.98,1547.1c-0.9-0.2-2.61-2.02-1.13-3.21c1.48-1.2,1.05-3.21,1.14-4.07c0.09-0.86,1.93-1,3.16,0.52
						C1698.39,1541.87,1700.43,1548.51,1693.98,1547.1z"/>
					<path class="st31" d="M1694.09,1546.77c-0.81-0.18-2.36-1.83-1.02-2.91c1.34-1.09,0.95-2.91,1.03-3.69
						c0.08-0.78,1.75-0.9,2.86,0.47C1698.08,1542.02,1699.93,1548.03,1694.09,1546.77z"/>
					<path class="st32" d="M1694.2,1546.43c-0.73-0.16-2.11-1.64-0.92-2.61c1.2-0.97,0.85-2.61,0.92-3.3
						c0.07-0.7,1.57-0.81,2.56,0.42C1697.77,1542.18,1699.43,1547.56,1694.2,1546.43z"/>
					<path class="st33" d="M1694.31,1546.09c-0.64-0.14-1.87-1.45-0.81-2.3c1.06-0.86,0.75-2.3,0.82-2.92
						c0.06-0.62,1.38-0.71,2.26,0.37C1697.47,1542.33,1698.93,1547.09,1694.31,1546.09z"/>
					<path class="st34" d="M1694.42,1545.75c-0.56-0.12-1.62-1.26-0.7-2c0.92-0.75,0.65-2,0.71-2.53c0.05-0.54,1.2-0.62,1.97,0.33
						C1697.16,1542.49,1698.42,1546.63,1694.42,1545.75z"/>
					<path class="st35" d="M1694.53,1545.41c-0.48-0.11-1.37-1.06-0.6-1.7c0.78-0.63,0.55-1.69,0.6-2.15
						c0.05-0.46,1.02-0.52,1.67,0.28C1696.86,1542.65,1697.92,1546.16,1694.53,1545.41z"/>
					<path class="st36" d="M1694.64,1545.07c-0.39-0.09-1.13-0.87-0.49-1.39c0.64-0.52,0.45-1.39,0.49-1.76
						c0.04-0.37,0.84-0.43,1.37,0.23C1696.55,1542.8,1697.42,1545.69,1694.64,1545.07z"/>
					<path class="st37" d="M1694.76,1544.73c-0.31-0.07-0.88-0.68-0.38-1.09c0.5-0.4,0.35-1.09,0.38-1.38
						c0.03-0.29,0.65-0.33,1.07,0.18C1696.24,1542.96,1696.92,1545.22,1694.76,1544.73z"/>
					<path class="st38" d="M1694.87,1544.39c-0.22-0.05-0.64-0.49-0.28-0.78c0.36-0.29,0.25-0.78,0.28-0.99
						c0.02-0.21,0.47-0.24,0.77,0.13C1695.94,1543.11,1696.43,1544.72,1694.87,1544.39z"/>
				</g>
				<g>
					<path class="st14" d="M1708.7,1551.45c-1.66,3.62-5.49,5.41-8.56,4.01c-3.07-1.41-4.21-5.48-2.55-9.1
						c1.67-3.63,5.5-5.42,8.56-4.01C1709.22,1543.75,1710.36,1547.82,1708.7,1551.45z"/>
					<path class="st28" d="M1708.38,1551.3c-1.57,3.42-5.18,5.1-8.07,3.78c-2.9-1.33-3.97-5.17-2.41-8.59
						c1.57-3.42,5.19-5.11,8.08-3.78C1708.88,1544.04,1709.95,1547.88,1708.38,1551.3z"/>
					<path class="st29" d="M1708.07,1551.16c-1.47,3.21-4.87,4.8-7.59,3.55c-2.73-1.25-3.73-4.86-2.26-8.07
						c1.48-3.22,4.88-4.8,7.6-3.55C1708.54,1544.33,1709.55,1547.94,1708.07,1551.16z"/>
					<path class="st30" d="M1707.76,1551.02c-1.38,3.01-4.56,4.49-7.11,3.33c-2.55-1.17-3.5-4.56-2.12-7.56
						c1.38-3.01,4.57-4.5,7.11-3.33C1708.2,1544.62,1709.14,1548.01,1707.76,1551.02z"/>
					<path class="st31" d="M1707.44,1550.87c-1.29,2.8-4.25,4.19-6.62,3.1c-2.38-1.09-3.26-4.25-1.97-7.05
						c1.29-2.81,4.26-4.19,6.63-3.1C1707.85,1544.91,1708.73,1548.07,1707.44,1550.87z"/>
					<path class="st32" d="M1707.13,1550.73c-1.19,2.6-3.94,3.88-6.14,2.87c-2.2-1.01-3.02-3.94-1.83-6.53
						c1.2-2.6,3.95-3.89,6.15-2.88C1707.51,1545.2,1708.32,1548.13,1707.13,1550.73z"/>
					<path class="st33" d="M1706.82,1550.58c-1.1,2.39-3.63,3.58-5.66,2.65c-2.03-0.93-2.78-3.63-1.69-6.02
						c1.1-2.39,3.64-3.58,5.66-2.65C1707.17,1545.49,1707.92,1548.19,1706.82,1550.58z"/>
					<path class="st34" d="M1706.5,1550.44c-1,2.19-3.32,3.27-5.18,2.42c-1.86-0.86-2.55-3.32-1.54-5.51
						c1.01-2.19,3.32-3.28,5.18-2.42C1706.83,1545.79,1707.51,1548.25,1706.5,1550.44z"/>
					<path class="st35" d="M1706.19,1550.3c-0.91,1.98-3.01,2.96-4.69,2.2c-1.68-0.78-2.31-3.01-1.4-4.99
						c0.91-1.98,3.01-2.97,4.7-2.2C1706.48,1546.08,1707.1,1548.31,1706.19,1550.3z"/>
					<path class="st36" d="M1705.88,1550.15c-0.81,1.78-2.7,2.66-4.21,1.97c-1.51-0.7-2.07-2.7-1.25-4.48
						c0.82-1.78,2.7-2.66,4.21-1.97C1706.14,1546.37,1706.7,1548.37,1705.88,1550.15z"/>
					<path class="st37" d="M1705.56,1550.01c-0.72,1.57-2.39,2.36-3.73,1.74c-1.34-0.61-1.83-2.39-1.11-3.97
						c0.72-1.57,2.39-2.36,3.73-1.74C1705.8,1546.66,1706.29,1548.43,1705.56,1550.01z"/>
					<path class="st38" d="M1705.25,1549.87c-0.63,1.37-2.08,2.05-3.24,1.52c-1.16-0.54-1.6-2.08-0.97-3.45
						c0.63-1.37,2.08-2.05,3.25-1.52C1705.45,1546.95,1705.88,1548.49,1705.25,1549.87z"/>
				</g>
				<path class="st39" d="M1687.56,1537.12c-0.04-0.66-1.48-5.06-3.28-1.36c-1.8,3.71,0.28,7.69,2.65,7.37
					C1689.05,1542.86,1687.67,1538.96,1687.56,1537.12z"/>
			</g>
			<g>
				<path d="M1631.61,1527.73c21.07,0,39.27,12.45,47.68,30.35l4.37,14.44c0.39,2.56,0.6,5.19,0.6,7.85c-5.98,0-10.02,0-10.02,0
					h-95.27C1578.97,1551.35,1602.58,1527.73,1631.61,1527.73z"/>
				
					<radialGradient id="SVGID_6_" cx="-35.3179" cy="1580.3756" r="45.1193" gradientTransform="matrix(-1 0 0 1 1596.2949 0)" gradientUnits="userSpaceOnUse">
					<stop  offset="0.8558" style="stop-color:#303031"/>
					<stop  offset="0.8699" style="stop-color:#353435"/>
					<stop  offset="0.9483" style="stop-color:#49484A"/>
					<stop  offset="1" style="stop-color:#514F51"/>
				</radialGradient>
				<path class="st40" d="M1586.5,1580.38c0,24.92,20.2,45.12,45.12,45.12c24.92,0,45.12-20.2,45.12-45.12
					c0-24.92-20.19-45.12-45.12-45.12C1606.7,1535.25,1586.5,1555.45,1586.5,1580.38z"/>
				
					<radialGradient id="SVGID_7_" cx="-35.3195" cy="1580.374" r="29.3948" gradientTransform="matrix(-1 0 0 1 1596.2949 0)" gradientUnits="userSpaceOnUse">
					<stop  offset="0" style="stop-color:#FFFFFF"/>
					<stop  offset="0.0651" style="stop-color:#F7F7F7"/>
					<stop  offset="0.1737" style="stop-color:#EFEFEF"/>
					<stop  offset="0.6285" style="stop-color:#EFEFEF"/>
					<stop  offset="0.7034" style="stop-color:#EFEFEF"/>
					<stop  offset="0.8455" style="stop-color:#EDEDED"/>
					<stop  offset="0.8967" style="stop-color:#E6E6E6"/>
					<stop  offset="0.9332" style="stop-color:#DBDBDB"/>
					<stop  offset="0.9627" style="stop-color:#CACACA"/>
					<stop  offset="0.9876" style="stop-color:#B5B5B4"/>
					<stop  offset="1" style="stop-color:#A7A7A6"/>
				</radialGradient>
				<path class="st41" d="M1631.61,1609.77c16.22,0,29.4-13.19,29.4-29.4c0-16.21-13.18-29.38-29.4-29.38
					c-16.21,0-29.39,13.18-29.39,29.38C1602.22,1596.58,1615.41,1609.77,1631.61,1609.77z"/>
				<g>
					<path d="M1624.55,1555.59c0-1.8,3.17-3.25,7.07-3.25c3.9,0,7.07,1.45,7.07,3.25c0,0.3-7.07,21.87-7.07,21.87
						S1624.55,1555.88,1624.55,1555.59z"/>
					<path d="M1649.55,1561.86c1.56-0.89,4.4,1.12,6.35,4.5c1.95,3.38,2.28,6.85,0.72,7.75c-0.26,0.15-22.47,4.81-22.47,4.81
						S1649.29,1562.02,1649.55,1561.86z"/>
					<path d="M1656.61,1586.66c1.55,0.9,1.23,4.37-0.72,7.74c-1.95,3.38-4.79,5.4-6.35,4.5c-0.26-0.15-15.4-17.06-15.4-17.06
						S1656.35,1586.51,1656.61,1586.66z"/>
					<path d="M1638.68,1605.17c0,1.8-3.17,3.25-7.06,3.25c-3.91,0-7.07-1.45-7.07-3.25c0-0.3,7.07-21.87,7.07-21.87
						S1638.68,1604.87,1638.68,1605.17z"/>
					<path d="M1613.68,1598.89c-1.56,0.9-4.4-1.12-6.35-4.49c-1.95-3.38-2.28-6.85-0.72-7.75c0.25-0.15,22.48-4.81,22.48-4.81
						S1613.94,1598.74,1613.68,1598.89z"/>
					<path d="M1606.61,1574.1c-1.56-0.9-1.23-4.37,0.72-7.74c1.95-3.38,4.8-5.4,6.35-4.5c0.26,0.15,15.41,17.06,15.41,17.06
						S1606.87,1574.25,1606.61,1574.1z"/>
					<path d="M1643.3,1557.08l-11.94,23.15c-0.07,0.14-0.02,0.32,0.12,0.39c0.13,0.07,0.29,0.02,0.37-0.09l14.64-21.54
						c0.58-0.85,0.36-2.01-0.49-2.59c-0.85-0.58-2.01-0.36-2.59,0.49C1643.38,1556.95,1643.33,1557.02,1643.3,1557.08z"/>
					<path d="M1657.63,1578.85l-26.02,1.23c-0.16,0.01-0.28,0.14-0.27,0.3c0.01,0.15,0.12,0.26,0.27,0.27l25.97,1.91
						c1.03,0.08,1.92-0.69,2-1.72c0.08-1.03-0.69-1.92-1.72-2C1657.78,1578.85,1657.7,1578.85,1657.63,1578.85z"/>
					<path d="M1645.94,1602.15l-14.08-21.91c-0.09-0.14-0.27-0.17-0.4-0.09c-0.12,0.08-0.17,0.24-0.1,0.37l11.33,23.45
						c0.45,0.93,1.56,1.32,2.49,0.87c0.93-0.45,1.32-1.56,0.87-2.49C1646.02,1602.28,1645.98,1602.21,1645.94,1602.15z"/>
					<path d="M1619.93,1603.67l11.93-23.14c0.07-0.14,0.02-0.32-0.12-0.39c-0.13-0.07-0.29-0.02-0.37,0.09l-14.64,21.54
						c-0.58,0.85-0.36,2.01,0.49,2.59c0.85,0.58,2.01,0.36,2.59-0.49C1619.85,1603.8,1619.89,1603.73,1619.93,1603.67z"/>
					<path d="M1605.6,1581.9l26.01-1.24c0.16-0.01,0.28-0.14,0.27-0.3c-0.01-0.15-0.12-0.26-0.27-0.27l-25.97-1.91
						c-1.03-0.07-1.92,0.7-1.99,1.72c-0.08,1.03,0.69,1.92,1.72,2C1605.45,1581.9,1605.53,1581.9,1605.6,1581.9z"/>
					<path d="M1617.29,1558.61l14.08,21.9c0.09,0.14,0.26,0.17,0.4,0.09c0.12-0.08,0.17-0.24,0.1-0.37l-11.33-23.44
						c-0.45-0.93-1.56-1.32-2.49-0.87c-0.93,0.45-1.32,1.56-0.87,2.49C1617.21,1558.48,1617.25,1558.55,1617.29,1558.61z"/>
				</g>
			</g>
			<path class="st42" d="M1709.72,1574.5h21.78c0,3.88,0,8.69,0,12.48c0,0.75-0.1,1.45-0.27,2.12h-26.72L1709.72,1574.5z"/>
			<polygon class="st14" points="1710.24,1585.78 1713.33,1585.78 1714.87,1577.15 1711.78,1577.15 			"/>
			<polygon class="st39" points="1710.81,1582.56 1713.9,1582.56 1713.33,1585.78 1710.24,1585.78 			"/>
			
				<linearGradient id="SVGID_8_" gradientUnits="userSpaceOnUse" x1="109.481" y1="1457.9417" x2="109.481" y2="1511.2318" gradientTransform="matrix(-1 0 0 1 1596.2949 0)">
				<stop  offset="0" style="stop-color:#5F5A5E"/>
				<stop  offset="0.2754" style="stop-color:#262529"/>
				<stop  offset="0.4741" style="stop-color:#29282C"/>
				<stop  offset="0.6249" style="stop-color:#333135"/>
				<stop  offset="0.7595" style="stop-color:#434044"/>
				<stop  offset="0.8093" style="stop-color:#4B484B"/>
			</linearGradient>
			<path class="st43" d="M1488.56,1459.38c3.39,0.49,7.99,3.45,10.75,5.48l58.26,42.58c2.76,2.02,2.23,3.66-1.19,3.66h-135.88
				c-3.42,0-6.2-2.78-6.2-6.2v-43.7c0-1.94,17.91-3.51,40.01-3.51C1468.83,1457.68,1481.55,1458.36,1488.56,1459.38z"/>
			
				<linearGradient id="SVGID_9_" gradientUnits="userSpaceOnUse" x1="217.1693" y1="1462.5698" x2="217.1693" y2="1511.2197" gradientTransform="matrix(-1 0 0 1 1596.2949 0)">
				<stop  offset="0" style="stop-color:#5F5A5E"/>
				<stop  offset="0.2754" style="stop-color:#262529"/>
				<stop  offset="0.4741" style="stop-color:#29282C"/>
				<stop  offset="0.6249" style="stop-color:#333135"/>
				<stop  offset="0.7595" style="stop-color:#434044"/>
				<stop  offset="0.8093" style="stop-color:#4B484B"/>
			</linearGradient>
			<path class="st44" d="M1355.88,1511.09h43.93c3.42,0,6.2-2.78,6.2-6.2v-37.5c0-3.42-2.72-5.63-6.07-4.93l-14.24,2.98
				c-3.35,0.7-7.62,3.57-9.54,6.41l-23.02,34.1C1351.23,1508.79,1352.46,1511.09,1355.88,1511.09z"/>
			<linearGradient id="SVGID_10_" gradientUnits="userSpaceOnUse" x1="1218.8448" y1="1533.2433" x2="1239.671" y2="1533.2433">
				<stop  offset="0" style="stop-color:#DA2A24"/>
				<stop  offset="1" style="stop-color:#A01916"/>
			</linearGradient>
			<path class="st45" d="M1224.28,1527.76h15.39v10.97h-20.83C1220.63,1534.4,1222.5,1530.76,1224.28,1527.76z"/>
			<g>
				<path d="M1319.88,1527.62c21.07,0,39.27,12.45,47.68,30.35l4.37,14.44c0.39,2.56,0.6,17,0.6,19.67
					c-5.98,0-105.29-7.1-105.29-7.1C1267.24,1555.96,1290.86,1527.62,1319.88,1527.62z"/>
				
					<radialGradient id="SVGID_11_" cx="276.41" cy="1580.2665" r="45.1193" gradientTransform="matrix(-1 0 0 1 1596.2949 0)" gradientUnits="userSpaceOnUse">
					<stop  offset="0.8558" style="stop-color:#303031"/>
					<stop  offset="0.8699" style="stop-color:#353435"/>
					<stop  offset="0.9483" style="stop-color:#49484A"/>
					<stop  offset="1" style="stop-color:#514F51"/>
				</radialGradient>
				<path class="st46" d="M1274.77,1580.27c0,24.92,20.2,45.12,45.12,45.12c24.92,0,45.12-20.2,45.12-45.12
					c0-24.92-20.2-45.12-45.12-45.12C1294.97,1535.14,1274.77,1555.35,1274.77,1580.27z"/>
				
					<radialGradient id="SVGID_12_" cx="276.4085" cy="1580.265" r="29.3948" gradientTransform="matrix(-1 0 0 1 1596.2949 0)" gradientUnits="userSpaceOnUse">
					<stop  offset="0" style="stop-color:#FFFFFF"/>
					<stop  offset="0.0651" style="stop-color:#F7F7F7"/>
					<stop  offset="0.1737" style="stop-color:#EFEFEF"/>
					<stop  offset="0.6285" style="stop-color:#EFEFEF"/>
					<stop  offset="0.7034" style="stop-color:#EFEFEF"/>
					<stop  offset="0.8455" style="stop-color:#EDEDED"/>
					<stop  offset="0.8967" style="stop-color:#E6E6E6"/>
					<stop  offset="0.9332" style="stop-color:#DBDBDB"/>
					<stop  offset="0.9627" style="stop-color:#CACACA"/>
					<stop  offset="0.9876" style="stop-color:#B5B5B4"/>
					<stop  offset="1" style="stop-color:#A7A7A6"/>
				</radialGradient>
				<path class="st47" d="M1319.88,1609.66c16.22,0,29.4-13.19,29.4-29.4c0-16.21-13.18-29.38-29.4-29.38
					c-16.2,0-29.39,13.18-29.39,29.38C1290.49,1596.47,1303.68,1609.66,1319.88,1609.66z"/>
				<g>
					<path d="M1312.82,1555.48c0-1.8,3.17-3.25,7.07-3.25c3.9,0,7.07,1.45,7.07,3.25c0,0.3-7.07,21.87-7.07,21.87
						S1312.82,1555.77,1312.82,1555.48z"/>
					<path d="M1337.82,1561.75c1.56-0.89,4.4,1.12,6.35,4.5c1.95,3.38,2.28,6.85,0.72,7.75c-0.26,0.15-22.47,4.81-22.47,4.81
						S1337.57,1561.9,1337.82,1561.75z"/>
					<path d="M1344.89,1586.55c1.55,0.9,1.23,4.37-0.72,7.74c-1.95,3.38-4.79,5.4-6.35,4.5c-0.26-0.15-15.4-17.06-15.4-17.06
						S1344.62,1586.4,1344.89,1586.55z"/>
					<path d="M1326.95,1605.05c0,1.8-3.17,3.25-7.06,3.25c-3.91,0-7.07-1.45-7.07-3.25c0-0.3,7.07-21.87,7.07-21.87
						S1326.95,1604.75,1326.95,1605.05z"/>
					<path d="M1301.95,1598.78c-1.56,0.9-4.4-1.12-6.35-4.49c-1.95-3.38-2.28-6.85-0.72-7.75c0.25-0.15,22.48-4.81,22.48-4.81
						S1302.21,1598.63,1301.95,1598.78z"/>
					<path d="M1294.88,1573.98c-1.56-0.9-1.23-4.37,0.72-7.74c1.95-3.38,4.8-5.4,6.35-4.5c0.26,0.15,15.41,17.06,15.41,17.06
						S1295.14,1574.14,1294.88,1573.98z"/>
					<path d="M1331.57,1556.97l-11.94,23.15c-0.07,0.14-0.02,0.32,0.12,0.39c0.13,0.07,0.29,0.02,0.37-0.09l14.64-21.54
						c0.58-0.85,0.36-2.01-0.49-2.59c-0.85-0.58-2.01-0.36-2.59,0.49C1331.65,1556.84,1331.6,1556.9,1331.57,1556.97z"/>
					<path d="M1345.9,1578.74l-26.02,1.24c-0.16,0.01-0.28,0.14-0.27,0.3c0.01,0.15,0.12,0.26,0.27,0.27l25.97,1.91
						c1.03,0.07,1.92-0.7,1.99-1.72c0.08-1.03-0.69-1.92-1.72-2C1346.06,1578.74,1345.97,1578.74,1345.9,1578.74z"/>
					<path d="M1334.21,1602.04l-14.08-21.91c-0.09-0.14-0.27-0.17-0.4-0.09c-0.12,0.08-0.17,0.24-0.1,0.37l11.33,23.45
						c0.45,0.93,1.56,1.32,2.49,0.87c0.93-0.45,1.32-1.56,0.87-2.49C1334.29,1602.17,1334.25,1602.09,1334.21,1602.04z"/>
					<path d="M1308.2,1603.56l11.93-23.14c0.07-0.14,0.02-0.32-0.12-0.39c-0.13-0.07-0.29-0.02-0.37,0.09l-14.64,21.54
						c-0.58,0.85-0.36,2.01,0.49,2.59c0.85,0.58,2.01,0.36,2.59-0.49C1308.12,1603.69,1308.17,1603.62,1308.2,1603.56z"/>
					<path d="M1293.87,1581.79l26.01-1.24c0.16-0.01,0.28-0.14,0.27-0.3c-0.01-0.15-0.12-0.26-0.27-0.27l-25.97-1.9
						c-1.03-0.08-1.92,0.69-1.99,1.72c-0.08,1.03,0.69,1.92,1.72,2C1293.72,1581.79,1293.8,1581.79,1293.87,1581.79z"/>
					<path d="M1305.56,1558.5l14.08,21.9c0.09,0.14,0.26,0.17,0.4,0.09c0.12-0.08,0.17-0.24,0.1-0.37l-11.33-23.44
						c-0.45-0.93-1.56-1.32-2.49-0.87c-0.93,0.45-1.32,1.56-0.87,2.49C1305.48,1558.37,1305.52,1558.44,1305.56,1558.5z"/>
				</g>
			</g>
			<g>
				<path class="st48" d="M1454.3,1460.78c13.79,0,26.75,0.64,33.81,1.66c2.05,0.3,5.64,2.18,9.37,4.91l15.51,11.34l-95.61-2.42
					v-13.28C1421.44,1461.99,1434.31,1460.78,1454.3,1460.78z"/>
				<path d="M1553.08,1507.99h-132.59c-1.71,0-3.1-1.39-3.1-3.1v-28.62l95.61,2.42L1553.08,1507.99z"/>
				<path d="M1377.6,1475.26l25.31,0.64v28.99c0,1.71-1.39,3.1-3.1,3.1h-43.93c-0.13,0-0.24-0.01-0.34-0.02
					c0.05-0.09,0.11-0.18,0.18-0.29L1377.6,1475.26z"/>
				<path class="st48" d="M1378.73,1473.58c1.47-2.19,5.02-4.57,7.6-5.11l14.24-2.98c0.2-0.04,0.4-0.06,0.59-0.06
					c1.09,0,1.75,0.73,1.75,1.96v8.51l-25.31-0.64L1378.73,1473.58z"/>
			</g>
			<g>
				
					<linearGradient id="SVGID_13_" gradientUnits="userSpaceOnUse" x1="56.3209" y1="1498.6292" x2="56.3209" y2="1507.4296" gradientTransform="matrix(-1 0 0 1 1596.2949 0)">
					<stop  offset="0" style="stop-color:#5F5A5E"/>
					<stop  offset="0.2754" style="stop-color:#000000"/>
					<stop  offset="0.7541" style="stop-color:#000000"/>
					<stop  offset="0.8093" style="stop-color:#000000"/>
				</linearGradient>
				<polygon class="st49" points="1539.98,1498.63 1545.19,1504.26 1541.89,1507.43 1534.75,1505.09 				"/>
				<path class="st0" d="M1520.54,1502.1l2.24-16.56c0.41-2.98,4.03-4.56,7.89-3.15c8.32,3.06,11.5,20.45,11.1,21.23
					c-2.2,4.28-7.83,3.98-14.42,3.95C1523.2,1507.56,1520.14,1505.08,1520.54,1502.1z"/>
				
					<radialGradient id="SVGID_14_" cx="126.4054" cy="-1428.226" r="10.9911" gradientTransform="matrix(-1.1414 -0.1548 0.1508 -1.1116 1887.9434 -73.1779)" gradientUnits="userSpaceOnUse">
					<stop  offset="0" style="stop-color:#FFFFFF"/>
					<stop  offset="0.2273" style="stop-color:#FBFBFB"/>
					<stop  offset="0.4494" style="stop-color:#EFEFEF"/>
					<stop  offset="0.6696" style="stop-color:#DCDCDC"/>
					<stop  offset="0.8872" style="stop-color:#C0C0C0"/>
					<stop  offset="1" style="stop-color:#AFAFAF"/>
				</radialGradient>
				<path class="st50" d="M1520.54,1502.1l2.24-16.56c0.41-2.98,4.03-4.56,7.89-3.15c8.32,3.06,11.5,20.45,11.1,21.23
					c-2.2,4.28-7.83,3.98-14.42,3.95C1523.2,1507.56,1520.14,1505.08,1520.54,1502.1z"/>
				
					<linearGradient id="SVGID_15_" gradientUnits="userSpaceOnUse" x1="60.762" y1="1484.864" x2="63.8608" y2="1494.0272" gradientTransform="matrix(-1 0 0 1 1596.2949 0)">
					<stop  offset="0" style="stop-color:#717070"/>
					<stop  offset="0.339" style="stop-color:#939393"/>
					<stop  offset="0.3456" style="stop-color:#919191"/>
					<stop  offset="0.5067" style="stop-color:#5D5D5D"/>
					<stop  offset="0.658" style="stop-color:#353535"/>
					<stop  offset="0.7952" style="stop-color:#181818"/>
					<stop  offset="0.9137" style="stop-color:#060606"/>
					<stop  offset="1" style="stop-color:#000000"/>
				</linearGradient>
				<path class="st51" d="M1520.54,1502.1l2.24-16.56c0.41-2.98,4.03-4.56,7.89-3.15c8.32,3.06,11.5,20.45,11.1,21.23
					c-2.2,4.28-7.83,3.98-14.42,3.95C1523.2,1507.56,1520.14,1505.08,1520.54,1502.1z"/>
			</g>
			<g>
				<g>
					<path class="st52" d="M1421.88,1538.72c0-3.74,4.84-6.68,11.02-6.68c6.18,0,11.02,2.93,11.02,6.68c0,3.75-4.85,6.69-11.02,6.69
						C1426.72,1545.41,1421.88,1542.47,1421.88,1538.72z M1423.83,1538.72c0,2.56,4.15,4.72,9.07,4.72c4.91,0,9.06-2.16,9.06-4.72
						c0-2.55-4.15-4.72-9.06-4.72C1427.99,1534.01,1423.83,1536.17,1423.83,1538.72z"/>
				</g>
				<g>
					
						<linearGradient id="SVGID_16_" gradientUnits="userSpaceOnUse" x1="163.4021" y1="1531.8844" x2="163.4021" y2="1546.207" gradientTransform="matrix(-1 0 0 1 1596.2949 0)">
						<stop  offset="0" style="stop-color:#A7A7A6"/>
						<stop  offset="0.1273" style="stop-color:#A9A9A8"/>
						<stop  offset="0.1752" style="stop-color:#B0B0AF"/>
						<stop  offset="0.2096" style="stop-color:#BBBBBB"/>
						<stop  offset="0.2376" style="stop-color:#CCCCCC"/>
						<stop  offset="0.2615" style="stop-color:#E2E2E2"/>
						<stop  offset="0.2669" style="stop-color:#E8E8E8"/>
						<stop  offset="0.5381" style="stop-color:#F1F1F1"/>
						<stop  offset="0.6992" style="stop-color:#DDDEDE"/>
						<stop  offset="0.7523" style="stop-color:#C5C6C6"/>
						<stop  offset="0.8515" style="stop-color:#9E9E9E"/>
						<stop  offset="0.9305" style="stop-color:#868686"/>
						<stop  offset="0.9788" style="stop-color:#7D7D7D"/>
					</linearGradient>
					<path class="st53" d="M1422.85,1538.72c0,3.15,4.49,5.71,10.04,5.71c5.55,0,10.03-2.56,10.03-5.71s-4.48-5.7-10.03-5.7
						C1427.35,1533.03,1422.85,1535.57,1422.85,1538.72z"/>
					<g>
						
							<linearGradient id="SVGID_17_" gradientUnits="userSpaceOnUse" x1="183.5651" y1="1560.282" x2="183.5651" y2="1565.4463" gradientTransform="matrix(-1 -3.500000e-03 -3.500000e-03 1 1622.2535 -24.1386)">
							<stop  offset="0" style="stop-color:#989898"/>
							<stop  offset="0.2585" style="stop-color:#EAEAEA"/>
							<stop  offset="0.6907" style="stop-color:#5D5D5D"/>
						</linearGradient>
						<path class="st54" d="M1418.84,1538.67c-0.01,1.12,0.89,2.03,2.01,2.03l25.03,0.08c1.11,0,2.01-0.9,2.01-2.01l0,0
							c0.01-1.13-0.89-2.04-1.99-2.04l-25.11-1.2C1419.67,1535.54,1417.84,1536.25,1418.84,1538.67L1418.84,1538.67z"/>
					</g>
				</g>
			</g>
		</g>
	</g>
</g>
</svg>
