<?xml version="1.0" encoding="utf-8"?>
<!-- Generator: Adobe Illustrator 23.0.0, SVG Export Plug-In . SVG Version: 6.00 Build 0)  -->
<svg version="1.1" id="Camada_1" xmlns="http://www.w3.org/2000/svg" xmlns:xlink="http://www.w3.org/1999/xlink" x="0px" y="0px"
	 viewBox="0 0 1800 1800" style="enable-background:new 0 0 1800 1800;" xml:space="preserve">
<style type="text/css">
	.st0{fill:#C1DA9D;}
	.st1{opacity:0.5;fill:#808080;}
	.st2{fill:#483617;}
	.st3{fill:#E63C1E;}
	.st4{fill:#F3CBA2;}
	.st5{fill:#FACB99;}
	.st6{fill:#FBD7B0;}
	.st7{opacity:0.5;fill:#FACB99;}
	.st8{fill:#E74527;}
	.st9{fill:#C33917;}
	.st10{fill:#E95A1C;}
	.st11{fill:#FCCB68;}
	.st12{fill:#FFFFFF;}
	.st13{stroke:#1D1E1C;stroke-linecap:round;stroke-linejoin:round;stroke-miterlimit:10;}
	.st14{opacity:0.3;fill:#FBD7B0;}
	.st15{fill:#1D1E1C;}
	.st16{opacity:0.1;fill:#EC686A;}
	.st17{fill:none;stroke:#1D1E1C;stroke-miterlimit:10;}
	.st18{opacity:0.2;}
	.st19{fill:#FFEBC9;}
	.st20{fill:#855835;}
	.st21{opacity:0.2;fill:#1D1D1B;}
	.st22{fill:#427B30;}
	.st23{fill:url(#SVGID_1_);}
	.st24{fill:url(#SVGID_2_);}
	.st25{fill:url(#SVGID_3_);}
	.st26{fill:url(#SVGID_4_);}
	.st27{fill:#86BC25;}
	.st28{fill:url(#SVGID_5_);}
	.st29{fill:url(#SVGID_6_);}
	.st30{fill:#FCFBFA;}
	.st31{fill:#F9F7F4;}
	.st32{fill:#F7F3EF;}
	.st33{fill:#F3EFE9;}
	.st34{fill:#F1EAE3;}
	.st35{fill:#EEE7DE;}
	.st36{fill:#EBE3D8;}
	.st37{fill:#E8DED3;}
	.st38{fill:#E5DBCE;}
	.st39{fill:#E3D7C8;}
	.st40{fill:#DFD2C2;}
	.st41{fill:#F6B9AB;}
	.st42{fill:url(#SVGID_7_);}
	.st43{fill:url(#SVGID_8_);}
	.st44{fill:url(#SVGID_9_);}
	.st45{fill:url(#SVGID_10_);}
	.st46{fill:url(#SVGID_11_);}
	.st47{fill:url(#SVGID_12_);}
	.st48{fill:url(#SVGID_13_);}
	.st49{fill:url(#SVGID_14_);}
	.st50{fill:#484747;}
	.st51{fill:url(#SVGID_15_);}
	.st52{fill:url(#SVGID_16_);}
	.st53{fill:url(#SVGID_17_);}
	.st54{fill:url(#SVGID_18_);}
	.st55{fill:#C9C8C8;}
	.st56{fill:url(#SVGID_19_);}
	.st57{fill:url(#SVGID_20_);}
</style>
<rect x="2.38" class="st0" width="1800" height="1800"/>
<g>
	<path id="XMLID_15_" class="st1" d="M1393.7,1121.07l-231.81-82.38c0-0.28,0.24-0.28,0.24-0.54
		c-16.42-30.17-37.12-50.38-65.96-61.92c-12.92-6.77-26.93-11.07-41.48-12.98V926.5c52.78-45.98,93.63-113.5,115.18-192.89
		c3.41,0.01,6.82-0.54,10.19-1.64c25.07-7.88,48.14-44.94,55.29-92.38c8.47-56.48-8.56-106.65-38.33-112.96
		c-0.28-0.17-0.8-0.37-1.11-0.37c-4.91-0.89-9.92-0.48-14.87,0.96c-0.01-0.07-0.03-0.15-0.04-0.22
		c13.47-6.18,14.27-29.61,14.27-80.8c0-9.01-5.78-20.19-16.14-32.34c-5.4-103.34-79.46-132.03-116.58-128.82
		c-5.64,0.52-10.49,1.61-13.96,3.5c-9.73-16.18-21.81-29.91-35.56-41.21c-108.8-91.01-323.95-33.65-392.66,147.86
		c8.9-7.81,19.41-15.6,30.99-23.45c13.48-8.86,28.56-17.78,45.02-26.1c-0.07,0.19-0.13,0.39-0.2,0.58
		c-16.14,8.25-31.1,17-44.36,25.91c-0.26,0-0.26,0-0.26,0c-40.1,26.94-65.17,55.22-65.17,74.06c0,50.4,0.84,73.57,13.39,80.32
		c-1.08,0.24-2.11,0.64-3.15,0.98c-0.46,0.15-0.93,0.26-1.39,0.43c-1.71,0.66-3.37,1.47-4.98,2.42c-0.02,0.01-0.04,0.02-0.06,0.03
		c-23.93,14.1-36.42,59.07-28.78,109.21c4.67,31.63,16.51,58.53,31.29,75.28c4.84,5.54,9.99,10,15.31,13.16
		c0.4,0.24,0.81,0.39,1.21,0.62c0.03,0.01,0.05,0.03,0.08,0.04c0.46,0.26,0.92,0.46,1.38,0.7c1.2,4.59,2.47,9.13,3.8,13.64
		c0.02,0.08,0.04,0.15,0.07,0.23c22.98,77.9,64.63,143.61,117.8,187.78v37.08c-14.27,0.8-28.56,4.05-36.09,8.12
		c-28.77,11.54-49.54,31.75-65.97,61.92l-224.08,83.19c-0.48,0.26-1.34,0.26-1.85,0.54c-0.29,0-0.29,0.3-0.55,0.3
		c-22.07,6.95-37.98,25.83-37.98,47.92v377.02c0,28,25.85,50.92,57.1,50.92h954.68c31.5,0,57.11-22.92,57.11-50.92V1170.1
		C1434.69,1146.94,1417.45,1127.27,1393.7,1121.07z M853.35,297.96c0.24-0.26,0.5-0.26,0.8,0c12.12-1.1,23.94-1.91,36.06-1.91
		c34,0,68.03,5.21,100.38,13.8c-32.21-8.51-66.07-13.67-99.88-13.67c-12.96,0-25.9,0.83-38.75,2.23
		C852.42,298.27,852.88,298.1,853.35,297.96z M1006.03,314.23c-4.9-1.48-9.84-2.88-14.82-4.2
		C996.19,311.35,1001.14,312.75,1006.03,314.23z"/>
	<path class="st2" d="M837.75,171.92c0,0-417.75-159.33-365.59,1069.22l851.79-17.95C1323.94,1223.2,1406.31,55.78,837.75,171.92z"
		/>
	<path id="XMLID_14_" class="st3" d="M1425.2,1158.92v377.02c0,28-25.61,50.92-57.11,50.92H413.4c-31.25,0-57.1-22.92-57.1-50.92
		v-377.02c0-22.08,15.91-40.97,37.98-47.92c0.26,0,0.26-0.3,0.55-0.3c0.51-0.28,1.36-0.28,1.85-0.54l224.08-83.19
		c31.77,84.03,102.38,146.76,180.96,192c3-18.3,11.63-38.79,23.45-57.62c14.8,61.93,15.88,267.65,15.88,267.65h56.82
		c29.91-189.33,0-322.34,0-322.34c35.29,24.77,67.34,72.73,73.81,112.3c78.34-45.24,148.9-107.74,180.7-191.47l231.81,82.38
		C1407.95,1116.09,1425.2,1135.77,1425.2,1158.92z"/>
	<path id="XMLID_13_" class="st4" d="M622.68,721.96c-8.14,1.51-16.35-0.35-24.19-5.11c-21.45-12.75-40.18-46.45-46.59-88.44
		c-8.56-57.17,9.04-107.82,39.63-113.32c2.74-0.47,5.63-0.63,8.22-0.11c1.73,0,3.28,0.11,4.88,0.63
		c6.52,1.55,13.06,5.14,19.15,10.53c17.89,15.68,32.86,45.96,38.36,82.51C670.82,665.84,653.04,716.48,622.68,721.96z"/>
	<path id="XMLID_12_" class="st5" d="M1225.85,628.41c-7.15,47.44-30.21,84.5-55.29,92.38c-5.11,1.67-10.31,2.22-15.45,1.17
		c-30.4-5.48-48.18-56.12-39.42-113.31c5.29-34.66,18.86-63.74,35.69-79.89c6.03-6.02,12.48-10.22,19.17-12.47
		c5.27-1.68,10.61-2.15,15.84-1.21c0.31,0,0.84,0.2,1.11,0.37C1217.29,521.76,1234.32,571.94,1225.85,628.41z"/>
	<path id="XMLID_11_" class="st5" d="M1061.38,999.47c-5.14,5.69-10.53,11.07-16.19,16.18c-1.89,1.63-3.76,3.51-5.63,5.13
		c-2.43,2.7-5.13,5.1-8.1,7.25c-3.24,2.69-6.46,5.4-9.68,8.1c-18.33,14.79-37.19,27.17-53.35,35.8c-8.34,4.33-16.93,8.9-25.86,13.22
		c-14.25,7.28-29.33,14.79-44.7,21.53c0,0,29.91,133.01,0,322.34v-13.72c0-108.8-22.36-308.62-22.36-308.62
		c-16.68-7.55-33.12-15.63-48.7-23.45c-7.55-3.75-14.83-7.53-21.85-11.3c-16.42-8.63-35.25-21.01-53.32-35.8
		c-3.2-2.7-6.45-5.42-9.66-8.1c-6.74-5.61-12.97-11.59-19.16-17.49l-5.64-5.67c-0.55-0.52-1.1-1.07-1.34-1.6
		c2.15-1.08,4.59-1.91,6.98-2.7V859.18h322.36v131.96C1050.58,993.83,1055.95,996.53,1061.38,999.47z"/>
	<path id="XMLID_10_" class="st6" d="M1177.41,588.52v4.59c-0.25,13.45-0.79,26.93-1.89,40.39c-1.84,21.28-4.31,41.75-8.57,61.68
		c-34.23,163.99-149.2,284.9-285.5,284.9c-137.58,0-253.12-122.52-286.52-288.67c-6.2-31.5-9.7-64.65-9.7-98.3v-4.59
		c0-25.32,1.91-49.54,5.4-72.96c1.08-8.63,2.69-17.27,4.3-25.6c9.42-47.12,25.6-90.77,47.12-129.01c0,0,0,0,0.26,0
		c58.47-39.3,148.41-75.95,238.91-75.95c90.17,0,180.7,36.65,239.38,75.95c20.99,37.45,36.91,79.73,46.36,125.26
		c1.6,7.82,2.4,15.88,3.49,23.67c0.24,0.84,0.54,1.39,0.54,2.19c0.24,1.32,0.52,2.41,0.52,3.75c0.79,4.56,1.63,9.14,2.19,14.29
		c0.24,0.79,0.24,1.31,0.24,2.12c0.52,5.66,1.09,11.59,1.6,17.26C1176.36,562.43,1177.41,575.07,1177.41,588.52z"/>
	<path id="XMLID_9_" class="st7" d="M1065.93,421.3c-28.27,28.8-0.81-40.09-40.68-47.34c-53.87-11.07-146.23,154.88-200.08,168.36
		c-62.76,15.63-115.49,95.49-151.31,146.95c-15.6,22.36-38.22,44.7-64.61,56.28c-2.96-8.93-5.67-18.06-8.09-27.47
		c-1.05-0.29-1.88-0.84-2.68-1.39c-21.56-12.62-40.39-46.29-46.59-88.28c-8.62-56.57,8.35-106.65,38.51-113.13
		c2.67,1.61,5.9,2.16,9.7,2.16c0,43.63,2.7,73.24,39.02,73.24c5.67,0-21.83-60.79-15.37-64.54
		c34.2-18.87,88.14-253.09,228.19-253.09C983.39,273.05,1031.73,398.96,1065.93,421.3z"/>
	<path id="XMLID_8_" class="st8" d="M875.51,1106.68c-18.83,13.19-36.63,32.86-50.08,54.37l-0.26,0.31
		c-11.82,18.83-20.44,39.31-23.45,57.62c-78.59-45.24-149.19-107.97-180.96-192c16.43-30.17,37.2-50.38,65.97-61.92
		c7.03,12.9,17.26,25.83,29.11,38.21c0.24,0.53,0.79,1.08,1.34,1.6l5.64,5.67c6.19,5.9,12.42,11.88,19.16,17.49
		c3.21,2.69,6.46,5.4,9.66,8.1c18.07,14.79,36.9,27.17,53.32,35.8c7.02,3.78,14.29,7.55,21.85,11.3
		C842.39,1091.05,858.83,1099.13,875.51,1106.68z"/>
	<path id="XMLID_7_" class="st8" d="M1152.62,1026.98c0,0.26-0.24,0.26-0.24,0.54c-31.8,83.73-102.36,146.22-180.7,191.47
		c-6.48-39.57-38.53-87.53-73.81-112.3c15.37-6.74,30.45-14.26,44.7-21.53c8.93-4.31,17.52-8.89,25.86-13.22
		c16.16-8.63,35.01-21.01,53.35-35.8c3.21-2.7,6.44-5.42,9.68-8.1c2.98-2.15,5.68-4.55,8.1-7.25c1.86-1.61,3.74-3.5,5.63-5.13
		c5.66-5.11,11.05-10.49,16.19-16.18c10.22-11.3,18.83-22.87,25.28-34.41C1115.5,976.6,1136.21,996.8,1152.62,1026.98z"/>
	<path id="XMLID_6_" class="st9" d="M897.87,1415.3v13.72h-56.82c0,0-1.08-205.72-15.88-267.65l0.26-0.31
		c13.45-21.51,31.25-41.18,50.08-54.37C875.51,1106.68,897.87,1306.5,897.87,1415.3z"/>
	<path id="XMLID_5_" class="st10" d="M967.47,1254.82c0,9.9-8.05,17.91-17.94,17.91c-9.94,0-17.96-8.01-17.96-17.91
		c0-9.94,8.02-17.98,17.96-17.98C959.41,1236.84,967.47,1244.88,967.47,1254.82z"/>
	<path id="XMLID_4_" class="st10" d="M961.84,1353.55c0,9.89-8.04,17.97-17.95,17.97c-9.9,0-17.94-8.08-17.94-17.97
		c0-9.94,8.04-17.97,17.94-17.97C953.8,1335.58,961.84,1343.61,961.84,1353.55z"/>
	<rect id="XMLID_3_" x="1035.31" y="1436.57" class="st8" width="234.49" height="56.11"/>
	<path id="XMLID_2_" class="st9" d="M722.82,956.94v43.63c-2.39,0.79-4.82,1.63-6.98,2.7c-11.85-12.38-22.08-25.31-29.11-38.21
		C694.26,960.99,708.56,957.74,722.82,956.94z"/>
	<path id="XMLID_1_" class="st9" d="M1086.66,965.06c-6.45,11.54-15.07,23.11-25.28,34.41c-5.43-2.94-10.81-5.64-16.19-8.33v-39.06
		C1059.73,953.99,1073.75,958.29,1086.66,965.06z"/>
	<g>
		<rect x="503.27" y="1271.24" class="st11" width="206.55" height="206.55"/>
		<circle class="st12" cx="606.55" cy="1381.18" r="68.54"/>
		<g>
			<path d="M568.43,1395.65l-0.21-20.67l-0.14-20.67l0.69-0.05c0.63,3.61,1.53,7.2,2.67,10.7c1.15,3.48,2.53,6.92,4.48,10
				c0.97,1.53,2.1,2.98,3.46,4.14c0.66,0.6,1.42,1.07,2.2,1.48c0.8,0.36,1.64,0.66,2.47,0.72c0.83,0.04,1.6-0.24,2.17-0.83
				c0.58-0.58,0.96-1.39,1.26-2.22c0.61-1.67,0.87-3.5,1.12-5.31c0.47-3.64,0.7-7.35,1.44-11.03c0.38-1.83,0.89-3.67,1.81-5.37
				c0.47-0.84,1.02-1.66,1.77-2.32c0.73-0.63,1.59-1.3,2.77-1.3c0.59-0.02,1.14,0.28,1.56,0.61c0.4,0.37,0.71,0.79,0.94,1.22
				c0.48,0.87,0.78,1.79,1.01,2.71c0.47,1.84,0.68,3.7,0.85,5.55c0.29,3.72,0.31,7.43,0.15,11.15l-0.06-0.24l12.02,21.58l-0.55-0.02
				c1.64-2.58,2.92-5.45,3.87-8.38c0.94-2.95,1.51-6.01,1.64-9.1c0-0.77,0.09-1.55,0.01-2.32l-0.18-2.32
				c-0.1-0.77-0.28-1.52-0.41-2.29c-0.08-0.38-0.13-0.77-0.23-1.14l-0.35-1.11c-0.8-3.02-2.4-5.73-4.08-8.34
				c1.73,2.57,3.4,5.26,4.26,8.28l0.38,1.11c0.11,0.37,0.17,0.76,0.26,1.14c0.15,0.77,0.35,1.53,0.46,2.3l0.23,2.34
				c0.09,0.78,0.02,1.56,0.04,2.35c-0.06,3.13-0.58,6.26-1.5,9.25c-0.94,3-2.18,5.89-3.85,8.58l-0.28,0.45l-0.27-0.47l-12.21-21.47
				l-0.06-0.11l0.01-0.13c0.14-3.67,0.11-7.37-0.19-11.02c-0.17-1.82-0.39-3.65-0.85-5.4c-0.22-0.87-0.51-1.73-0.92-2.48
				c-0.41-0.75-1-1.37-1.7-1.34c-0.7-0.02-1.47,0.49-2.09,1.06c-0.65,0.56-1.14,1.3-1.57,2.07c-0.83,1.56-1.33,3.33-1.69,5.11
				c-0.73,3.58-0.97,7.27-1.46,10.96c-0.27,1.84-0.53,3.7-1.19,5.51c-0.34,0.9-0.75,1.81-1.49,2.55c-0.72,0.76-1.84,1.15-2.87,1.09
				c-2.03-0.19-3.77-1.19-5.21-2.44c-1.46-1.25-2.62-2.76-3.62-4.35c-1.99-3.19-3.4-6.68-4.52-10.22
				c-1.11-3.55-1.98-7.16-2.57-10.84l0.69-0.05l-0.14,20.67L568.43,1395.65z"/>
		</g>
	</g>
	<path class="st2" d="M881.31,245.39c0,0-196.13,346.42-343.31,427.16C538,672.55,544.7,200.1,881.31,245.39z"/>
	<path class="st2" d="M808.91,216.01c0,0,357.84,454.14,416.67,457.52c58.82,3.38-57.36-326.59-57.36-326.59L808.91,216.01z"/>
	<ellipse class="st13" cx="740.17" cy="603.03" rx="35.39" ry="46.36"/>
	<ellipse class="st13" cx="1029.51" cy="603.03" rx="35.39" ry="46.36"/>
	<path d="M1086.81,514.66c-9.58-21.64-30.18-36.19-53.3-37.66c-35.16-2.24-64.58,26.53-61,37.66
		C975.07,522.61,996.63,528.28,1086.81,514.66"/>
	<path d="M682.87,514.66c9.58-21.64,30.18-36.19,53.3-37.66c35.16-2.24,64.58,26.53,61,37.66
		C794.62,522.61,773.05,528.28,682.87,514.66"/>
	<path class="st14" d="M924.53,693.7c-57.55-42.73-86.45,8.77-86.45,8.77"/>
	<g>
		<path class="st15" d="M766,787.62c1.83,2.37,3.75,4.66,5.74,6.88c1.97,2.24,4,4.42,6.08,6.55c4.16,4.26,8.47,8.35,13,12.18
			c4.49,3.87,9.16,7.5,14,10.87c4.84,3.36,9.81,6.52,14.98,9.32c20.55,11.28,43.85,17.38,67.1,16.09c5.8-0.27,11.59-0.94,17.32-1.98
			c5.73-1.05,11.37-2.58,16.96-4.29c5.59-1.72,11.06-3.85,16.46-6.15l4.01-1.84c1.34-0.61,2.67-1.23,3.98-1.91l3.96-1.96
			c1.32-0.66,2.6-1.39,3.9-2.09c20.76-11.3,39.69-25.96,57.75-41.67c-16.01,17.78-34.23,33.9-55.03,46.4
			c-5.15,3.2-10.54,6.01-16.02,8.64c-5.53,2.54-11.15,4.9-16.94,6.87c-5.8,1.93-11.72,3.52-17.74,4.7
			c-6.02,1.15-12.13,1.93-18.27,2.25c-12.28,0.56-24.67-0.77-36.54-3.92c-11.85-3.22-23.21-8.09-33.61-14.44
			c-10.46-6.27-19.97-13.93-28.58-22.39c-4.27-4.27-8.35-8.72-12.12-13.41C772.61,797.65,769.04,792.79,766,787.62z"/>
	</g>
	<circle class="st16" cx="704.17" cy="738.62" r="49.01"/>
	<circle class="st16" cx="1065.93" cy="734.59" r="49.01"/>
	<g>
		<path d="M924.53,693.7c-7.54-3.77-14.93-7.39-22.58-9.86l-2.86-0.91c-0.95-0.29-1.92-0.5-2.88-0.76
			c-1.91-0.55-3.86-0.83-5.78-1.22c-3.87-0.56-7.74-0.84-11.59-0.63c-7.69,0.42-15.18,2.76-22.04,6.67
			c-3.44,1.93-6.72,4.26-9.83,6.87c-3.14,2.59-6.09,5.46-8.89,8.61c0.72-1.99,1.71-3.88,2.79-5.72c1.08-1.84,2.3-3.6,3.63-5.29
			c2.65-3.38,5.76-6.45,9.28-9.07c6.99-5.26,15.73-8.6,24.67-9.06c4.46-0.21,8.91,0.21,13.23,1.11c2.12,0.57,4.28,1.03,6.3,1.84
			c1.02,0.38,2.06,0.7,3.06,1.13l2.96,1.34C911.81,682.46,918.72,687.6,924.53,693.7z"/>
	</g>
	<path class="st17" d="M838.09,699.6"/>
	<g class="st18">
		<g>
			<path class="st19" d="M937.64,718.52"/>
			<g>
				<path class="st20" d="M937.64,724.02c7.08,0,7.09-11,0-11C930.56,713.02,930.55,724.02,937.64,724.02L937.64,724.02z"/>
			</g>
		</g>
		<g>
			<path class="st19" d="M940.46,693.07"/>
			<g>
				<path class="st20" d="M940.46,698.57c7.08,0,7.09-11,0-11C933.38,687.57,933.37,698.57,940.46,698.57L940.46,698.57z"/>
			</g>
		</g>
		<g>
			<path class="st19" d="M970.99,700.42"/>
			<g>
				<path class="st20" d="M970.99,705.92c7.08,0,7.09-11,0-11C963.92,694.92,963.9,705.92,970.99,705.92L970.99,705.92z"/>
			</g>
		</g>
		<g>
			<path class="st19" d="M952.9,664.24"/>
			<g>
				<path class="st20" d="M952.9,669.74c7.08,0,7.09-11,0-11C945.82,658.74,945.81,669.74,952.9,669.74L952.9,669.74z"/>
			</g>
		</g>
		<g>
			<path class="st19" d="M1009.44,698.73"/>
			<g>
				<path class="st20" d="M1009.44,704.23c7.08,0,7.09-11,0-11C1002.36,693.23,1002.35,704.23,1009.44,704.23L1009.44,704.23z"/>
			</g>
		</g>
		<g>
			<path class="st19" d="M988.52,718.52"/>
			<g>
				<path class="st20" d="M988.52,724.02c7.08,0,7.09-11,0-11C981.44,713.02,981.43,724.02,988.52,724.02L988.52,724.02z"/>
			</g>
		</g>
		<g>
			<path class="st19" d="M1033.19,721.91"/>
			<g>
				<path class="st20" d="M1033.19,727.41c7.08,0,7.09-11,0-11C1026.11,716.41,1026.1,727.41,1033.19,727.41L1033.19,727.41z"/>
			</g>
		</g>
		<g>
			<path class="st19" d="M1064.85,719.08"/>
			<g>
				<path class="st20" d="M1064.85,724.58c7.08,0,7.09-11,0-11C1057.77,713.58,1057.76,724.58,1064.85,724.58L1064.85,724.58z"/>
			</g>
		</g>
		<g>
			<path class="st19" d="M832.47,665.93"/>
			<g>
				<path class="st20" d="M832.47,671.43c7.08,0,7.09-11,0-11C825.39,660.43,825.38,671.43,832.47,671.43L832.47,671.43z"/>
			</g>
		</g>
		<g>
			<path class="st19" d="M813.81,700.99"/>
			<g>
				<path class="st20" d="M813.81,706.49c7.08,0,7.09-11,0-11C806.73,695.49,806.72,706.49,813.81,706.49L813.81,706.49z"/>
			</g>
		</g>
		<g>
			<path class="st19" d="M781.02,701.56"/>
			<g>
				<path class="st20" d="M781.02,707.06c7.08,0,7.09-11,0-11C773.94,696.06,773.93,707.06,781.02,707.06L781.02,707.06z"/>
			</g>
		</g>
		<g>
			<path class="st19" d="M790.63,722.48"/>
			<g>
				<path class="st20" d="M790.63,727.98c7.08,0,7.09-11,0-11C783.55,716.98,783.54,727.98,790.63,727.98L790.63,727.98z"/>
			</g>
		</g>
		<g>
			<path class="st19" d="M757.27,715.69"/>
			<g>
				<path class="st20" d="M757.27,721.19c7.08,0,7.09-11,0-11C750.19,710.19,750.18,721.19,757.27,721.19L757.27,721.19z"/>
			</g>
		</g>
		<g>
			<path class="st19" d="M722.78,695.9"/>
			<g>
				<path class="st20" d="M722.78,701.4c7.08,0,7.09-11,0-11C715.7,690.4,715.69,701.4,722.78,701.4L722.78,701.4z"/>
			</g>
		</g>
		<g>
			<path class="st19" d="M911.63,624.66"/>
			<g>
				<path class="st20" d="M911.63,630.16c7.08,0,7.09-11,0-11C904.55,619.16,904.54,630.16,911.63,630.16L911.63,630.16z"/>
			</g>
		</g>
		<g>
			<path class="st19" d="M878.83,611.09"/>
			<g>
				<path class="st20" d="M878.83,616.59c7.08,0,7.09-11,0-11C871.76,605.59,871.74,616.59,878.83,616.59L878.83,616.59z"/>
			</g>
		</g>
		<g>
			<path class="st19" d="M852.82,621.83"/>
			<g>
				<path class="st20" d="M852.82,627.33c7.08,0,7.09-11,0-11C845.75,616.33,845.73,627.33,852.82,627.33L852.82,627.33z"/>
			</g>
		</g>
		<g>
			<path class="st19" d="M890.14,680.07"/>
			<g>
				<path class="st20" d="M890.14,685.57c7.08,0,7.09-11,0-11C883.06,674.57,883.05,685.57,890.14,685.57L890.14,685.57z"/>
			</g>
		</g>
		<g>
			<path class="st19" d="M879.96,694.77"/>
			<g>
				<path class="st20" d="M879.96,700.27c7.08,0,7.09-11,0-11C872.89,689.27,872.87,700.27,879.96,700.27L879.96,700.27z"/>
			</g>
		</g>
	</g>
</g>
<rect x="1160.88" y="1316.87" class="st11" width="625.1" height="468.06"/>
<g>
	<ellipse class="st21" cx="1473.43" cy="1632.97" rx="272.09" ry="9.05"/>
	<g>
		<polygon class="st22" points="1261.57,1523.21 1282.49,1523.21 1276.26,1496.85 1255.34,1496.85 		"/>
		
			<linearGradient id="SVGID_1_" gradientUnits="userSpaceOnUse" x1="110.9602" y1="1458.3663" x2="110.9602" y2="1607.672" gradientTransform="matrix(-1 0 0 1 1596.2949 0)">
			<stop  offset="0.1102" style="stop-color:#82BA26"/>
			<stop  offset="0.5763" style="stop-color:#72B52B"/>
		</linearGradient>
		<path class="st23" d="M1591.78,1513.51c0,0-37.52-59.56-138.29-59.56c-70.64,0-121.24,49.13-121.24,49.13l-83.99,20.13
			c-1.72,0-4.15,0.94-5.3,2.22c-4.12,4.61-13.07,16.72-17.99,39.07c-0.37,1.68,0.17,4.19,1.16,5.6l19,33.16h494.45
			c3.44,0,6.23-2.79,6.23-6.23c0-4.16,0-9.58,0-13.62c0-7.52-5.96-17.87-10.26-25.32
			C1724.07,1538.18,1667.4,1500.72,1591.78,1513.51z"/>
		
			<linearGradient id="SVGID_2_" gradientUnits="userSpaceOnUse" x1="-0.7502" y1="1601.2065" x2="216.4785" y2="1601.2065" gradientTransform="matrix(-1 0 0 1 1596.2949 0)">
			<stop  offset="0" style="stop-color:#5F5A5E"/>
			<stop  offset="0.2754" style="stop-color:#262529"/>
			<stop  offset="0.4741" style="stop-color:#29282C"/>
			<stop  offset="0.6249" style="stop-color:#333135"/>
			<stop  offset="0.7595" style="stop-color:#434044"/>
			<stop  offset="0.8093" style="stop-color:#4B484B"/>
		</linearGradient>
		<rect x="1379.82" y="1599.16" class="st24" width="217.23" height="4.1"/>
		<rect x="1592.56" y="1587.74" width="105.79" height="15.55"/>
		<polygon class="st22" points="1286.92,1603.26 1245.14,1603.26 1234.96,1585.5 1286.92,1589.94 		"/>
		<rect x="1279.35" y="1587.74" width="105.79" height="15.55"/>
		<g>
			
				<linearGradient id="SVGID_3_" gradientUnits="userSpaceOnUse" x1="23.583" y1="1558.406" x2="24.6261" y2="1558.406" gradientTransform="matrix(-1 0 0 1 1596.2949 0)">
				<stop  offset="0" style="stop-color:#989898"/>
				<stop  offset="0.3181" style="stop-color:#B5B5B5"/>
				<stop  offset="0.7618" style="stop-color:#D9D8D8"/>
				<stop  offset="1" style="stop-color:#E6E5E5"/>
			</linearGradient>
			<rect x="1571.67" y="1516.43" class="st25" width="1.04" height="83.95"/>
		</g>
		<g>
			
				<linearGradient id="SVGID_4_" gradientUnits="userSpaceOnUse" x1="171.9184" y1="1534.7585" x2="172.9615" y2="1534.7585" gradientTransform="matrix(-1 0 0 1 1596.2949 0)">
				<stop  offset="0" style="stop-color:#989898"/>
				<stop  offset="0.3181" style="stop-color:#B5B5B5"/>
				<stop  offset="0.7618" style="stop-color:#D9D8D8"/>
				<stop  offset="1" style="stop-color:#E6E5E5"/>
			</linearGradient>
			<rect x="1423.33" y="1469.14" class="st26" width="1.04" height="131.24"/>
		</g>
		<path class="st27" d="M1276.25,1589.03c0.03-30.86,25.14-57.55,56-57.55c21.61,0,41.52,12.67,50.73,32.29l0.1,0.2l4.52,14.94
			l0.03,0.22c0.42,2.75,0.63,17.13,0.64,19.89L1276.25,1589.03z"/>
		
			<linearGradient id="SVGID_5_" gradientUnits="userSpaceOnUse" x1="308.0322" y1="1496.8522" x2="368.8579" y2="1496.8522" gradientTransform="matrix(-1 0 0 1 1596.2949 0)">
			<stop  offset="0" style="stop-color:#82BA26"/>
			<stop  offset="1" style="stop-color:#72B52B"/>
		</linearGradient>
		<polygon class="st28" points="1238.91,1503.08 1288.26,1503.08 1285.55,1490.62 1227.44,1490.62 		"/>
		<g>
			
				<linearGradient id="SVGID_6_" gradientUnits="userSpaceOnUse" x1="-135.9427" y1="1553.8466" x2="-94.2302" y2="1553.8466" gradientTransform="matrix(-1 0 0 1 1596.2949 0)">
				<stop  offset="0" style="stop-color:#FFFFFF"/>
				<stop  offset="0.0598" style="stop-color:#EAEAEA"/>
				<stop  offset="0.2445" style="stop-color:#B0B0B0"/>
				<stop  offset="0.4229" style="stop-color:#808080"/>
				<stop  offset="0.5908" style="stop-color:#5A5A5A"/>
				<stop  offset="0.7455" style="stop-color:#3F3F3F"/>
				<stop  offset="0.8825" style="stop-color:#2F2F2F"/>
				<stop  offset="0.9873" style="stop-color:#292929"/>
			</linearGradient>
			<path class="st29" d="M1728.3,1551.95c-5.13-8.34-17.38-14.12-36.53-14.18c-5.47-0.02,6.85,31.31,40.46,32.16
				C1732.24,1569.92,1730.72,1555.87,1728.3,1551.95z"/>
			<path class="st12" d="M1730.01,1567.85c-0.7-5.34-2.01-12.64-3.38-14.88c-5.08-8.25-17.5-13.05-34.15-13.24
				c0.02,1.31,0.85,4.73,4.05,9.45C1700.12,1554.45,1710.38,1566.5,1730.01,1567.85z"/>
			<g>
				<path class="st12" d="M1707.78,1555.33c-1.16-0.25-3.36-2.61-1.46-4.15c1.91-1.55,1.36-4.15,1.47-5.25
					c0.12-1.11,2.49-1.29,4.08,0.68C1713.47,1548.58,1716.1,1557.15,1707.78,1555.33z"/>
				<path class="st30" d="M1707.9,1554.99c-1.07-0.23-3.11-2.42-1.35-3.84c1.77-1.44,1.26-3.84,1.36-4.87
					c0.11-1.03,2.31-1.19,3.78,0.63C1713.16,1548.74,1715.6,1556.67,1707.9,1554.99z"/>
				<path class="st31" d="M1708.01,1554.65c-0.99-0.21-2.87-2.23-1.24-3.54c1.63-1.32,1.16-3.53,1.25-4.48
					c0.1-0.95,2.13-1.1,3.48,0.58C1712.85,1548.89,1715.09,1556.2,1708.01,1554.65z"/>
				<path class="st32" d="M1708.12,1554.31c-0.9-0.2-2.62-2.03-1.14-3.23c1.49-1.21,1.06-3.23,1.15-4.09c0.09-0.87,1.94-1,3.18,0.53
					C1712.54,1549.05,1714.59,1555.72,1708.12,1554.31z"/>
				<path class="st33" d="M1708.23,1553.97c-0.82-0.18-2.37-1.84-1.03-2.92c1.35-1.09,0.96-2.92,1.04-3.7
					c0.08-0.79,1.76-0.91,2.88,0.48C1712.24,1549.21,1714.09,1555.25,1708.23,1553.97z"/>
				<path class="st34" d="M1708.34,1553.63c-0.73-0.16-2.12-1.65-0.92-2.62c1.21-0.98,0.86-2.62,0.93-3.32
					c0.07-0.7,1.57-0.81,2.58,0.43C1711.93,1549.36,1713.59,1554.77,1708.34,1553.63z"/>
				<path class="st35" d="M1708.45,1553.29c-0.65-0.14-1.87-1.45-0.81-2.31c1.07-0.86,0.76-2.31,0.82-2.93
					c0.06-0.62,1.39-0.72,2.28,0.38C1711.62,1549.52,1713.09,1554.29,1708.45,1553.29z"/>
				<path class="st36" d="M1708.56,1552.95c-0.56-0.12-1.63-1.26-0.71-2.01c0.92-0.75,0.66-2.01,0.71-2.54
					c0.05-0.54,1.21-0.62,1.97,0.33C1711.31,1549.68,1712.58,1553.83,1708.56,1552.95z"/>
				<path class="st37" d="M1708.67,1552.61c-0.48-0.11-1.38-1.07-0.6-1.7c0.78-0.64,0.56-1.7,0.6-2.16
					c0.05-0.46,1.02-0.53,1.67,0.28C1711.01,1549.83,1712.08,1553.36,1708.67,1552.61z"/>
				<path class="st38" d="M1708.78,1552.27c-0.39-0.09-1.13-0.88-0.49-1.4c0.64-0.52,0.46-1.4,0.49-1.77
					c0.04-0.38,0.84-0.43,1.37,0.23C1710.7,1549.99,1711.58,1552.89,1708.78,1552.27z"/>
				<path class="st39" d="M1708.9,1551.92c-0.31-0.07-0.89-0.69-0.38-1.09c0.5-0.41,0.36-1.09,0.39-1.38
					c0.03-0.29,0.66-0.34,1.07,0.18C1710.39,1550.14,1711.07,1552.42,1708.9,1551.92z"/>
				<path class="st40" d="M1709.01,1551.58c-0.22-0.05-0.64-0.5-0.28-0.79c0.36-0.29,0.25-0.78,0.28-0.99
					c0.02-0.21,0.47-0.24,0.77,0.13C1710.08,1550.3,1710.57,1551.92,1709.01,1551.58z"/>
			</g>
			<g>
				<path class="st12" d="M1722.9,1558.67c-1.67,3.64-5.52,5.44-8.6,4.02c-3.09-1.42-4.23-5.51-2.56-9.14
					c1.68-3.64,5.52-5.44,8.6-4.03C1723.43,1550.94,1724.58,1555.03,1722.9,1558.67z"/>
				<path class="st30" d="M1722.59,1558.53c-1.58,3.43-5.21,5.13-8.11,3.8c-2.91-1.34-3.99-5.2-2.42-8.63
					c1.58-3.44,5.21-5.13,8.12-3.8C1723.09,1551.23,1724.17,1555.09,1722.59,1558.53z"/>
				<path class="st31" d="M1722.27,1558.39c-1.48,3.23-4.89,4.82-7.63,3.57c-2.74-1.26-3.75-4.89-2.27-8.11
					c1.49-3.23,4.9-4.83,7.63-3.57C1722.74,1551.53,1723.76,1555.15,1722.27,1558.39z"/>
				<path class="st32" d="M1721.96,1558.24c-1.39,3.02-4.58,4.51-7.14,3.34c-2.56-1.18-3.51-4.58-2.13-7.6
					c1.39-3.03,4.59-4.52,7.15-3.34S1723.35,1555.22,1721.96,1558.24z"/>
				<path class="st33" d="M1721.65,1558.1c-1.29,2.81-4.27,4.21-6.66,3.11c-2.39-1.1-3.27-4.27-1.98-7.08
					c1.3-2.82,4.28-4.21,6.66-3.12C1722.06,1552.11,1722.94,1555.28,1721.65,1558.1z"/>
				<path class="st34" d="M1721.33,1557.95c-1.2,2.61-3.96,3.9-6.17,2.89c-2.21-1.02-3.04-3.96-1.84-6.56
					c1.2-2.61,3.96-3.91,6.18-2.89C1721.71,1552.4,1722.53,1555.34,1721.33,1557.95z"/>
				<path class="st35" d="M1721.02,1557.81c-1.1,2.4-3.65,3.59-5.69,2.66c-2.04-0.94-2.8-3.65-1.69-6.05
					c1.11-2.41,3.65-3.6,5.69-2.66C1721.37,1552.69,1722.12,1555.4,1721.02,1557.81z"/>
				<path class="st36" d="M1720.7,1557.66c-1.01,2.2-3.34,3.29-5.2,2.43c-1.86-0.86-2.56-3.33-1.55-5.53
					c1.01-2.2,3.34-3.29,5.21-2.43C1721.02,1552.99,1721.71,1555.46,1720.7,1557.66z"/>
				<path class="st37" d="M1720.39,1557.52c-0.91,1.99-3.02,2.98-4.71,2.21c-1.69-0.78-2.32-3.02-1.4-5.02
					c0.92-1.99,3.03-2.98,4.72-2.21C1720.68,1553.28,1721.3,1555.52,1720.39,1557.52z"/>
				<path class="st38" d="M1720.07,1557.37c-0.82,1.78-2.71,2.67-4.23,1.98c-1.52-0.7-2.08-2.71-1.26-4.5
					c0.82-1.79,2.72-2.68,4.23-1.98C1720.33,1553.57,1720.89,1555.58,1720.07,1557.37z"/>
				<path class="st39" d="M1719.76,1557.23c-0.72,1.58-2.4,2.37-3.74,1.75c-1.34-0.62-1.84-2.4-1.11-3.99
					c0.73-1.58,2.41-2.37,3.75-1.75C1719.99,1553.86,1720.48,1555.64,1719.76,1557.23z"/>
				<path class="st40" d="M1719.44,1557.09c-0.63,1.37-2.09,2.06-3.26,1.52c-1.17-0.54-1.6-2.09-0.97-3.47
					c0.63-1.37,2.09-2.06,3.26-1.52C1719.65,1554.15,1720.07,1555.71,1719.44,1557.09z"/>
			</g>
			<path class="st41" d="M1701.66,1544.28c-0.04-0.67-1.49-5.09-3.3-1.36c-1.81,3.73,0.28,7.73,2.67,7.41
				C1703.16,1550.04,1701.78,1546.12,1701.66,1544.28z"/>
		</g>
		<g>
			<path d="M1645.45,1534.85c21.17,0,39.46,12.5,47.91,30.5l4.39,14.51c0.4,2.57,0.6,5.21,0.6,7.89c-6.01,0-10.07,0-10.07,0h-95.72
				C1592.56,1558.58,1616.29,1534.85,1645.45,1534.85z"/>
			
				<radialGradient id="SVGID_7_" cx="-49.159" cy="1587.7397" r="45.3332" gradientTransform="matrix(-1 0 0 1 1596.2949 0)" gradientUnits="userSpaceOnUse">
				<stop  offset="0.8558" style="stop-color:#303031"/>
				<stop  offset="0.8699" style="stop-color:#353435"/>
				<stop  offset="0.9483" style="stop-color:#49484A"/>
				<stop  offset="1" style="stop-color:#514F51"/>
			</radialGradient>
			<path class="st42" d="M1600.12,1587.74c0,25.04,20.3,45.33,45.33,45.33c25.04,0,45.33-20.29,45.33-45.33
				c0-25.04-20.29-45.34-45.33-45.34C1620.42,1542.4,1600.12,1562.7,1600.12,1587.74z"/>
			
				<radialGradient id="SVGID_8_" cx="-49.1605" cy="1587.7382" r="29.5341" gradientTransform="matrix(-1 0 0 1 1596.2949 0)" gradientUnits="userSpaceOnUse">
				<stop  offset="0" style="stop-color:#FFFFFF"/>
				<stop  offset="0.0651" style="stop-color:#F7F7F7"/>
				<stop  offset="0.1737" style="stop-color:#EFEFEF"/>
				<stop  offset="0.6285" style="stop-color:#EFEFEF"/>
				<stop  offset="0.7034" style="stop-color:#EFEFEF"/>
				<stop  offset="0.8455" style="stop-color:#EDEDED"/>
				<stop  offset="0.8967" style="stop-color:#E6E6E6"/>
				<stop  offset="0.9332" style="stop-color:#DBDBDB"/>
				<stop  offset="0.9627" style="stop-color:#CACACA"/>
				<stop  offset="0.9876" style="stop-color:#B5B5B4"/>
				<stop  offset="1" style="stop-color:#A7A7A6"/>
			</radialGradient>
			<path class="st43" d="M1645.45,1617.27c16.3,0,29.54-13.25,29.54-29.54c0-16.28-13.24-29.52-29.54-29.52
				c-16.28,0-29.53,13.24-29.53,29.52C1615.92,1604.02,1629.17,1617.27,1645.45,1617.27z"/>
			<g>
				<path d="M1638.36,1562.83c0-1.81,3.18-3.27,7.1-3.27c3.92,0,7.1,1.46,7.1,3.27c0,0.3-7.11,21.97-7.11,21.97
					S1638.36,1563.13,1638.36,1562.83z"/>
				<path d="M1663.48,1569.14c1.57-0.9,4.42,1.13,6.38,4.52c1.96,3.4,2.29,6.88,0.72,7.79c-0.26,0.15-22.58,4.83-22.58,4.83
					S1663.22,1569.29,1663.48,1569.14z"/>
				<path d="M1670.57,1594.05c1.56,0.91,1.24,4.39-0.72,7.78c-1.96,3.4-4.81,5.42-6.38,4.52c-0.26-0.15-15.47-17.14-15.47-17.14
					S1670.31,1593.9,1670.57,1594.05z"/>
				<path d="M1652.55,1612.65c0,1.81-3.18,3.27-7.1,3.27c-3.93,0-7.11-1.46-7.11-3.27c0-0.3,7.11-21.97,7.11-21.97
					S1652.55,1612.35,1652.55,1612.65z"/>
				<path d="M1627.43,1606.34c-1.57,0.9-4.42-1.13-6.38-4.51c-1.96-3.4-2.29-6.88-0.72-7.79c0.25-0.15,22.58-4.83,22.58-4.83
					S1627.69,1606.19,1627.43,1606.34z"/>
				<path d="M1620.34,1581.43c-1.57-0.9-1.24-4.39,0.72-7.77c1.96-3.4,4.82-5.43,6.38-4.52c0.26,0.15,15.48,17.15,15.48,17.15
					S1620.6,1581.58,1620.34,1581.43z"/>
				<path d="M1657.2,1564.33l-11.99,23.26c-0.07,0.14-0.02,0.32,0.13,0.39c0.13,0.07,0.29,0.02,0.37-0.09l14.71-21.64
					c0.58-0.85,0.36-2.02-0.5-2.6c-0.85-0.58-2.02-0.36-2.6,0.5C1657.27,1564.2,1657.23,1564.27,1657.2,1564.33z"/>
				<path d="M1671.6,1586.21l-26.14,1.24c-0.16,0.01-0.28,0.14-0.28,0.3c0.01,0.15,0.12,0.26,0.27,0.27l26.1,1.92
					c1.03,0.08,1.93-0.7,2-1.73c0.08-1.03-0.7-1.93-1.73-2.01C1671.75,1586.21,1671.67,1586.21,1671.6,1586.21z"/>
				<path d="M1659.85,1609.62l-14.14-22.02c-0.09-0.14-0.27-0.17-0.4-0.09c-0.12,0.08-0.17,0.24-0.1,0.37l11.39,23.56
					c0.45,0.93,1.57,1.32,2.5,0.87c0.93-0.45,1.32-1.57,0.87-2.5C1659.93,1609.75,1659.89,1609.67,1659.85,1609.62z"/>
				<path d="M1633.71,1611.14l11.99-23.25c0.07-0.14,0.02-0.32-0.12-0.39c-0.13-0.07-0.29-0.02-0.37,0.09l-14.71,21.64
					c-0.58,0.85-0.36,2.02,0.5,2.6c0.85,0.58,2.02,0.36,2.6-0.5C1633.64,1611.28,1633.68,1611.21,1633.71,1611.14z"/>
				<path d="M1619.32,1589.28l26.13-1.25c0.16-0.01,0.28-0.14,0.28-0.3c-0.01-0.15-0.12-0.26-0.27-0.27l-26.09-1.92
					c-1.03-0.07-1.93,0.7-2,1.73c-0.08,1.03,0.7,1.93,1.73,2.01C1619.17,1589.28,1619.25,1589.28,1619.32,1589.28z"/>
				<path d="M1631.06,1565.87l14.14,22.01c0.09,0.14,0.27,0.17,0.4,0.09c0.12-0.08,0.17-0.24,0.1-0.37l-11.39-23.55
					c-0.45-0.93-1.57-1.32-2.5-0.87c-0.93,0.45-1.32,1.57-0.87,2.5C1630.98,1565.74,1631.02,1565.82,1631.06,1565.87z"/>
			</g>
		</g>
		<path class="st22" d="M1723.93,1581.83h21.88c0,3.9,0,8.73,0,12.54c0,0.75-0.1,1.46-0.27,2.13h-26.84L1723.93,1581.83z"/>
		<polygon class="st12" points="1724.45,1593.17 1727.55,1593.17 1729.1,1584.5 1726,1584.5 		"/>
		<polygon class="st41" points="1725.03,1589.94 1728.13,1589.94 1727.55,1593.17 1724.45,1593.17 		"/>
		
			<linearGradient id="SVGID_9_" gradientUnits="userSpaceOnUse" x1="35.735" y1="1468.2195" x2="35.735" y2="1514.7321" gradientTransform="matrix(-1 0 0 1 1596.2949 0)">
			<stop  offset="0" style="stop-color:#5F5A5E"/>
			<stop  offset="0.2754" style="stop-color:#262529"/>
			<stop  offset="0.4741" style="stop-color:#29282C"/>
			<stop  offset="0.6249" style="stop-color:#333135"/>
			<stop  offset="0.7595" style="stop-color:#434044"/>
			<stop  offset="0.8093" style="stop-color:#4B484B"/>
		</linearGradient>
		<path class="st44" d="M1584.17,1510.03c-10.11-8.9-37.55-26.48-52.21-35.15c-6.54-3.87-5.37-5.54-1.23-6.89
			c43.51,17.67,61.05,45.52,61.05,45.52c0.67-0.11,1.34-0.19,2.01-0.3C1592.22,1515.65,1589.92,1515.09,1584.17,1510.03z"/>
		
			<linearGradient id="SVGID_10_" gradientUnits="userSpaceOnUse" x1="96.3261" y1="1464.7256" x2="96.3261" y2="1518.2683" gradientTransform="matrix(-1 0 0 1 1596.2949 0)">
			<stop  offset="0" style="stop-color:#5F5A5E"/>
			<stop  offset="0.2754" style="stop-color:#262529"/>
			<stop  offset="0.4741" style="stop-color:#29282C"/>
			<stop  offset="0.6249" style="stop-color:#333135"/>
			<stop  offset="0.7595" style="stop-color:#434044"/>
			<stop  offset="0.8093" style="stop-color:#4B484B"/>
		</linearGradient>
		<path class="st45" d="M1501.72,1466.17c3.4,0.5,8.03,3.47,10.81,5.5l58.53,42.78c2.78,2.03,2.24,3.68-1.2,3.68h-136.53
			c-3.44,0-6.23-2.79-6.23-6.23v-43.91c0-1.95,18-3.53,40.2-3.53C1481.9,1464.46,1494.68,1465.15,1501.72,1466.17z"/>
		
			<linearGradient id="SVGID_11_" gradientUnits="userSpaceOnUse" x1="204.5248" y1="1469.3756" x2="204.5248" y2="1518.2561" gradientTransform="matrix(-1 0 0 1 1596.2949 0)">
			<stop  offset="0" style="stop-color:#5F5A5E"/>
			<stop  offset="0.2754" style="stop-color:#262529"/>
			<stop  offset="0.4741" style="stop-color:#29282C"/>
			<stop  offset="0.6249" style="stop-color:#333135"/>
			<stop  offset="0.7595" style="stop-color:#434044"/>
			<stop  offset="0.8093" style="stop-color:#4B484B"/>
		</linearGradient>
		<path class="st46" d="M1368.41,1518.13h44.14c3.44,0,6.23-2.79,6.23-6.23v-37.68c0-3.44-2.73-5.66-6.1-4.95l-14.31,2.99
			c-3.37,0.7-7.66,3.59-9.58,6.44l-23.13,34.26C1363.74,1515.82,1364.97,1518.13,1368.41,1518.13z"/>
		
			<linearGradient id="SVGID_12_" gradientUnits="userSpaceOnUse" x1="344.6402" y1="1540.384" x2="365.5651" y2="1540.384" gradientTransform="matrix(-1 0 0 1 1596.2949 0)">
			<stop  offset="0" style="stop-color:#DA2A24"/>
			<stop  offset="1" style="stop-color:#A01916"/>
		</linearGradient>
		<path class="st47" d="M1236.19,1534.87h15.46v11.02h-20.92C1232.53,1541.55,1234.4,1537.89,1236.19,1534.87z"/>
		<g>
			<path d="M1332.25,1534.74c21.17,0,39.46,12.5,47.91,30.5l4.39,14.51c0.4,2.57,0.6,17.09,0.6,19.76
				c-6.01,0-105.79-7.14-105.79-7.14C1279.36,1563.21,1303.08,1534.74,1332.25,1534.74z"/>
			
				<radialGradient id="SVGID_13_" cx="264.0462" cy="1587.6301" r="45.3332" gradientTransform="matrix(-1 0 0 1 1596.2949 0)" gradientUnits="userSpaceOnUse">
				<stop  offset="0.8558" style="stop-color:#303031"/>
				<stop  offset="0.8699" style="stop-color:#353435"/>
				<stop  offset="0.9483" style="stop-color:#49484A"/>
				<stop  offset="1" style="stop-color:#514F51"/>
			</radialGradient>
			<path class="st48" d="M1286.92,1587.63c0,25.04,20.3,45.33,45.33,45.33c25.04,0,45.33-20.29,45.33-45.33
				c0-25.04-20.29-45.34-45.33-45.34C1307.22,1542.29,1286.92,1562.59,1286.92,1587.63z"/>
			
				<radialGradient id="SVGID_14_" cx="264.0447" cy="1587.6285" r="29.5341" gradientTransform="matrix(-1 0 0 1 1596.2949 0)" gradientUnits="userSpaceOnUse">
				<stop  offset="0" style="stop-color:#FFFFFF"/>
				<stop  offset="0.0651" style="stop-color:#F7F7F7"/>
				<stop  offset="0.1737" style="stop-color:#EFEFEF"/>
				<stop  offset="0.6285" style="stop-color:#EFEFEF"/>
				<stop  offset="0.7034" style="stop-color:#EFEFEF"/>
				<stop  offset="0.8455" style="stop-color:#EDEDED"/>
				<stop  offset="0.8967" style="stop-color:#E6E6E6"/>
				<stop  offset="0.9332" style="stop-color:#DBDBDB"/>
				<stop  offset="0.9627" style="stop-color:#CACACA"/>
				<stop  offset="0.9876" style="stop-color:#B5B5B4"/>
				<stop  offset="1" style="stop-color:#A7A7A6"/>
			</radialGradient>
			<path class="st49" d="M1332.25,1617.16c16.3,0,29.54-13.25,29.54-29.54c0-16.28-13.24-29.52-29.54-29.52
				c-16.28,0-29.53,13.24-29.53,29.52C1302.72,1603.91,1315.97,1617.16,1332.25,1617.16z"/>
			<g>
				<path d="M1325.15,1562.72c0-1.81,3.18-3.27,7.1-3.27c3.92,0,7.1,1.46,7.1,3.27c0,0.3-7.11,21.97-7.11,21.97
					S1325.15,1563.02,1325.15,1562.72z"/>
				<path d="M1350.27,1569.03c1.57-0.9,4.42,1.13,6.38,4.52c1.96,3.4,2.29,6.88,0.72,7.79c-0.26,0.15-22.58,4.83-22.58,4.83
					S1350.01,1569.18,1350.27,1569.03z"/>
				<path d="M1357.37,1593.94c1.56,0.91,1.24,4.39-0.72,7.78c-1.96,3.4-4.81,5.42-6.38,4.52c-0.26-0.15-15.47-17.14-15.47-17.14
					S1357.11,1593.79,1357.37,1593.94z"/>
				<path d="M1339.35,1612.54c0,1.81-3.18,3.27-7.1,3.27c-3.93,0-7.11-1.46-7.11-3.27c0-0.3,7.11-21.97,7.11-21.97
					S1339.35,1612.23,1339.35,1612.54z"/>
				<path d="M1314.23,1606.23c-1.57,0.9-4.42-1.13-6.38-4.51c-1.96-3.4-2.29-6.88-0.72-7.79c0.25-0.15,22.58-4.83,22.58-4.83
					S1314.49,1606.08,1314.23,1606.23z"/>
				<path d="M1307.13,1581.32c-1.57-0.9-1.24-4.39,0.72-7.77c1.96-3.4,4.82-5.43,6.38-4.52c0.26,0.15,15.48,17.15,15.48,17.15
					S1307.39,1581.47,1307.13,1581.32z"/>
				<path d="M1343.99,1564.22l-11.99,23.26c-0.07,0.14-0.02,0.32,0.12,0.39c0.13,0.07,0.29,0.02,0.37-0.09l14.71-21.64
					c0.58-0.85,0.36-2.02-0.5-2.6c-0.85-0.58-2.02-0.36-2.6,0.5C1344.07,1564.09,1344.02,1564.16,1343.99,1564.22z"/>
				<path d="M1358.39,1586.09l-26.14,1.24c-0.16,0.01-0.28,0.14-0.28,0.3c0.01,0.15,0.12,0.26,0.27,0.27l26.1,1.92
					c1.03,0.07,1.93-0.7,2-1.73c0.08-1.03-0.7-1.93-1.73-2.01C1358.54,1586.09,1358.46,1586.09,1358.39,1586.09z"/>
				<path d="M1346.64,1609.5l-14.14-22.02c-0.09-0.14-0.27-0.17-0.4-0.09c-0.12,0.08-0.17,0.24-0.1,0.37l11.39,23.56
					c0.45,0.93,1.57,1.32,2.5,0.87c0.93-0.45,1.32-1.57,0.87-2.5C1346.72,1609.63,1346.68,1609.56,1346.64,1609.5z"/>
				<path d="M1320.51,1611.03l11.99-23.25c0.07-0.14,0.02-0.32-0.12-0.39c-0.13-0.07-0.29-0.02-0.37,0.09l-14.71,21.64
					c-0.58,0.85-0.36,2.02,0.5,2.6c0.85,0.58,2.02,0.36,2.6-0.5C1320.43,1611.16,1320.47,1611.09,1320.51,1611.03z"/>
				<path d="M1306.11,1589.16l26.13-1.24c0.16-0.01,0.28-0.14,0.28-0.3c-0.01-0.15-0.12-0.26-0.27-0.27l-26.09-1.91
					c-1.03-0.08-1.93,0.7-2,1.73c-0.08,1.03,0.7,1.93,1.73,2.01C1305.96,1589.16,1306.04,1589.16,1306.11,1589.16z"/>
				<path d="M1317.85,1565.76l14.14,22.01c0.09,0.14,0.27,0.17,0.4,0.09c0.12-0.08,0.17-0.24,0.1-0.37l-11.39-23.55
					c-0.45-0.93-1.57-1.32-2.5-0.87c-0.93,0.45-1.32,1.57-0.87,2.5C1317.77,1565.63,1317.82,1565.7,1317.85,1565.76z"/>
			</g>
		</g>
		<g>
			<path class="st50" d="M1467.3,1467.58c13.85,0,26.87,0.64,33.97,1.67c2.06,0.3,5.66,2.19,9.42,4.94l15.59,11.39l-96.06-2.44
				v-13.35C1434.29,1468.8,1447.22,1467.58,1467.3,1467.58z"/>
			<path d="M1566.55,1515.01h-133.22c-1.72,0-3.11-1.4-3.11-3.11v-28.76l96.06,2.44L1566.55,1515.01z"/>
			<path d="M1390.24,1482.13l25.43,0.64v29.13c0,1.72-1.4,3.11-3.11,3.11h-44.14c-0.13,0-0.24-0.01-0.34-0.02
				c0.05-0.09,0.11-0.19,0.18-0.29L1390.24,1482.13z"/>
			<path class="st50" d="M1391.38,1480.44c1.48-2.2,5.05-4.59,7.64-5.13l14.31-2.99c0.21-0.04,0.4-0.06,0.59-0.06
				c1.1,0,1.75,0.74,1.75,1.97v8.55l-25.43-0.64L1391.38,1480.44z"/>
		</g>
		<g>
			
				<linearGradient id="SVGID_15_" gradientUnits="userSpaceOnUse" x1="42.9141" y1="1505.6058" x2="42.9141" y2="1514.4481" gradientTransform="matrix(-1 0 0 1 1596.2949 0)">
				<stop  offset="0" style="stop-color:#5F5A5E"/>
				<stop  offset="0.2754" style="stop-color:#000000"/>
				<stop  offset="0.7541" style="stop-color:#000000"/>
				<stop  offset="0.8093" style="stop-color:#000000"/>
			</linearGradient>
			<polygon class="st51" points="1553.39,1505.61 1558.63,1511.26 1555.31,1514.45 1548.14,1512.09 			"/>
			
				<linearGradient id="SVGID_16_" gradientUnits="userSpaceOnUse" x1="89.0301" y1="449.2062" x2="107.5791" y2="449.2062" gradientTransform="matrix(-1.1414 -0.1548 0.1108 -0.8167 1607.9871 1884.3979)">
				<stop  offset="0.2119" style="stop-color:#4A792E"/>
				<stop  offset="0.3983" style="stop-color:#81BA27"/>
				<stop  offset="0.6096" style="stop-color:#83BB26"/>
				<stop  offset="0.7109" style="stop-color:#8BBD22"/>
				<stop  offset="0.7886" style="stop-color:#98C21C"/>
				<stop  offset="0.8256" style="stop-color:#A1C517"/>
				<stop  offset="0.9915" style="stop-color:#83BB26"/>
			</linearGradient>
			<path class="st52" d="M1533.86,1509.09l2.25-16.64c0.41-2.99,4.05-4.58,7.93-3.16c8.36,3.07,11.56,20.55,11.16,21.33
				c-2.21,4.3-7.87,4-14.49,3.97C1536.52,1514.58,1533.45,1512.08,1533.86,1509.09z"/>
			
				<radialGradient id="SVGID_17_" cx="114.1072" cy="-1432.7736" r="11.0432" gradientTransform="matrix(-1.1414 -0.1548 0.1508 -1.1116 1887.9434 -73.1779)" gradientUnits="userSpaceOnUse">
				<stop  offset="0" style="stop-color:#FFFFFF"/>
				<stop  offset="0.2273" style="stop-color:#FBFBFB"/>
				<stop  offset="0.4494" style="stop-color:#EFEFEF"/>
				<stop  offset="0.6696" style="stop-color:#DCDCDC"/>
				<stop  offset="0.8872" style="stop-color:#C0C0C0"/>
				<stop  offset="1" style="stop-color:#AFAFAF"/>
			</radialGradient>
			<path class="st53" d="M1533.86,1509.09l2.25-16.64c0.41-2.99,4.05-4.58,7.93-3.16c8.36,3.07,11.56,20.55,11.16,21.33
				c-2.21,4.3-7.87,4-14.49,3.97C1536.52,1514.58,1533.45,1512.08,1533.86,1509.09z"/>
			
				<linearGradient id="SVGID_18_" gradientUnits="userSpaceOnUse" x1="47.3763" y1="1491.7755" x2="50.4898" y2="1500.9822" gradientTransform="matrix(-1 0 0 1 1596.2949 0)">
				<stop  offset="0" style="stop-color:#717070"/>
				<stop  offset="0.339" style="stop-color:#939393"/>
				<stop  offset="0.3456" style="stop-color:#919191"/>
				<stop  offset="0.5067" style="stop-color:#5D5D5D"/>
				<stop  offset="0.658" style="stop-color:#353535"/>
				<stop  offset="0.7952" style="stop-color:#181818"/>
				<stop  offset="0.9137" style="stop-color:#060606"/>
				<stop  offset="1" style="stop-color:#000000"/>
			</linearGradient>
			<path class="st54" d="M1533.86,1509.09l2.25-16.64c0.41-2.99,4.05-4.58,7.93-3.16c8.36,3.07,11.56,20.55,11.16,21.33
				c-2.21,4.3-7.87,4-14.49,3.97C1536.52,1514.58,1533.45,1512.08,1533.86,1509.09z"/>
		</g>
		<g>
			<g>
				<path class="st55" d="M1434.73,1545.89c0-3.76,4.86-6.71,11.07-6.71c6.2,0,11.07,2.95,11.07,6.71c0,3.77-4.87,6.72-11.07,6.72
					C1439.59,1552.61,1434.73,1549.66,1434.73,1545.89z M1436.69,1545.89c0,2.57,4.17,4.74,9.11,4.74c4.93,0,9.1-2.17,9.1-4.74
					c0-2.57-4.17-4.74-9.1-4.74C1440.86,1541.15,1436.69,1543.32,1436.69,1545.89z"/>
			</g>
			<g>
				
					<linearGradient id="SVGID_19_" gradientUnits="userSpaceOnUse" x1="150.5028" y1="1539.0188" x2="150.5028" y2="1553.4093" gradientTransform="matrix(-1 0 0 1 1596.2949 0)">
					<stop  offset="0" style="stop-color:#A7A7A6"/>
					<stop  offset="0.1273" style="stop-color:#A9A9A8"/>
					<stop  offset="0.1752" style="stop-color:#B0B0AF"/>
					<stop  offset="0.2096" style="stop-color:#BBBBBB"/>
					<stop  offset="0.2376" style="stop-color:#CCCCCC"/>
					<stop  offset="0.2615" style="stop-color:#E2E2E2"/>
					<stop  offset="0.2669" style="stop-color:#E8E8E8"/>
					<stop  offset="0.5381" style="stop-color:#F1F1F1"/>
					<stop  offset="0.6992" style="stop-color:#DDDEDE"/>
					<stop  offset="0.7523" style="stop-color:#C5C6C6"/>
					<stop  offset="0.8515" style="stop-color:#9E9E9E"/>
					<stop  offset="0.9305" style="stop-color:#868686"/>
					<stop  offset="0.9788" style="stop-color:#7D7D7D"/>
				</linearGradient>
				<path class="st56" d="M1435.71,1545.89c0,3.16,4.52,5.73,10.09,5.73c5.58,0,10.08-2.57,10.08-5.73c0-3.16-4.5-5.72-10.08-5.72
					C1440.22,1540.17,1435.71,1542.73,1435.71,1545.89z"/>
				<g>
					
						<linearGradient id="SVGID_20_" gradientUnits="userSpaceOnUse" x1="170.6393" y1="1567.3882" x2="170.6393" y2="1572.5769" gradientTransform="matrix(-1 -3.500000e-03 -3.500000e-03 1 1622.2535 -24.1386)">
						<stop  offset="0" style="stop-color:#989898"/>
						<stop  offset="0.2585" style="stop-color:#EAEAEA"/>
						<stop  offset="0.6907" style="stop-color:#5D5D5D"/>
					</linearGradient>
					<path class="st57" d="M1431.67,1545.84c-0.01,1.13,0.9,2.04,2.02,2.04l25.15,0.09c1.11,0,2.02-0.9,2.02-2.02l0,0
						c0.01-1.13-0.89-2.05-2-2.05l-25.23-1.2C1432.51,1542.7,1430.67,1543.41,1431.67,1545.84L1431.67,1545.84z"/>
				</g>
			</g>
		</g>
	</g>
</g>
</svg>
