<?xml version="1.0" encoding="utf-8"?>
<!-- Generator: Adobe Illustrator 23.0.0, SVG Export Plug-In . SVG Version: 6.00 Build 0)  -->
<svg version="1.1" id="Camada_1" xmlns="http://www.w3.org/2000/svg" xmlns:xlink="http://www.w3.org/1999/xlink" x="0px" y="0px"
	 viewBox="0 0 1800 1800" style="enable-background:new 0 0 1800 1800;" xml:space="preserve">
<style type="text/css">
	.st0{fill:#F2C2E2;}
	.st1{opacity:0.5;fill:#808080;}
	.st2{display:none;fill:#110D08;}
	.st3{fill:#E63C1E;}
	.st4{fill:#F3CBA2;}
	.st5{fill:#986230;}
	.st6{fill:#A9744F;}
	.st7{opacity:0.5;fill:#986230;}
	.st8{display:none;}
	.st9{fill:#FFFFFF;}
	.st10{fill:#E74527;}
	.st11{fill:#C33917;}
	.st12{fill:#E95A1C;}
	.st13{fill:#FCCB68;}
	.st14{stroke:#1D1E1C;stroke-linecap:round;stroke-linejoin:round;stroke-miterlimit:10;}
	.st15{fill:#1D1E1C;}
	.st16{opacity:0.1;fill:#EC686A;}
	.st17{fill:#FFEBC9;stroke:#CDA058;stroke-miterlimit:10;}
	.st18{fill:#3DD1C6;}
	.st19{opacity:0.2;fill:#1D1D1B;}
	.st20{fill:#9E5DA1;}
	.st21{fill:#D49DC6;}
	.st22{fill:url(#SVGID_1_);}
	.st23{fill:url(#SVGID_2_);}
	.st24{fill:url(#SVGID_3_);}
	.st25{fill:#FCFBFA;}
	.st26{fill:#F9F7F4;}
	.st27{fill:#F7F3EF;}
	.st28{fill:#F3EFE9;}
	.st29{fill:#F1EAE3;}
	.st30{fill:#EEE7DE;}
	.st31{fill:#EBE3D8;}
	.st32{fill:#E8DED3;}
	.st33{fill:#E5DBCE;}
	.st34{fill:#E3D7C8;}
	.st35{fill:#DFD2C2;}
	.st36{fill:#F6B9AB;}
	.st37{fill:url(#SVGID_4_);}
	.st38{fill:url(#SVGID_5_);}
	.st39{fill:#E5213B;}
	.st40{fill:url(#SVGID_6_);}
	.st41{fill:url(#SVGID_7_);}
	.st42{fill:url(#SVGID_8_);}
	.st43{fill:url(#SVGID_9_);}
	.st44{fill:url(#SVGID_10_);}
	.st45{fill:url(#SVGID_11_);}
	.st46{fill:#484747;}
	.st47{fill:url(#SVGID_12_);}
	.st48{fill:url(#SVGID_13_);}
	.st49{fill:url(#SVGID_14_);}
	.st50{fill:#C9C8C8;}
	.st51{fill:url(#SVGID_15_);}
	.st52{fill:url(#SVGID_16_);}
</style>
<rect x="2.38" class="st0" width="1800" height="1800"/>
<g id="XMLID_1360_">
	<path id="XMLID_2360_" class="st1" d="M1403.8,1109.01l-237.44-84.37c0-0.28,0.24-0.28,0.24-0.55
		c-16.82-30.91-38.02-51.6-67.56-63.42c-13.23-6.93-27.59-11.34-42.48-13.3v-37.64c54.06-47.1,95.91-116.25,117.98-197.57
		c3.49,0.01,6.98-0.55,10.44-1.68c25.68-8.07,49.31-46.03,56.63-94.62c8.68-57.85-8.77-109.24-39.26-115.7
		c-0.28-0.17-0.82-0.38-1.14-0.38c-5.03-0.91-10.16-0.49-15.23,0.98c-0.01-0.07-0.03-0.15-0.04-0.23
		c13.79-6.33,14.61-30.33,14.61-82.76c0-9.23-5.92-20.68-16.53-33.12c-5.53-105.85-81.39-135.23-119.41-131.95
		c-5.78,0.54-10.74,1.65-14.3,3.59c-9.97-16.57-22.34-30.64-36.43-42.21c-111.44-93.21-331.81-34.47-402.19,151.45
		c9.12-8,19.88-15.98,31.74-24.02c13.81-9.08,29.25-18.21,46.11-26.73c-0.07,0.19-0.13,0.4-0.2,0.59
		c-16.54,8.45-31.85,17.41-45.44,26.54c-0.27,0-0.27,0-0.27,0c-41.07,27.59-66.75,56.56-66.75,75.86c0,51.62,0.86,75.36,13.71,82.26
		c-1.1,0.24-2.16,0.65-3.23,1.01c-0.47,0.16-0.96,0.26-1.42,0.44c-1.75,0.67-3.45,1.51-5.1,2.48c-0.02,0.01-0.04,0.02-0.06,0.03
		c-24.51,14.45-37.3,60.51-29.48,111.86c4.79,32.4,16.92,59.95,32.05,77.1c4.96,5.68,10.23,10.24,15.68,13.48
		c0.41,0.25,0.83,0.4,1.24,0.63c0.03,0.01,0.05,0.03,0.08,0.04c0.47,0.26,0.95,0.48,1.42,0.72c1.23,4.7,2.53,9.35,3.89,13.97
		c0.02,0.08,0.05,0.16,0.07,0.24c23.54,79.79,66.19,147.09,120.65,192.34v37.98c-14.61,0.82-29.25,4.15-36.96,8.31
		c-29.47,11.82-50.74,32.52-67.57,63.42l-229.52,85.21c-0.5,0.27-1.37,0.27-1.89,0.55c-0.3,0-0.3,0.31-0.56,0.31
		c-22.6,7.12-38.9,26.46-38.9,49.08v386.17c0,28.68,26.47,52.15,58.48,52.15h977.85c32.26,0,58.49-23.48,58.49-52.15v-386.17
		C1445.79,1135.51,1428.13,1115.36,1403.8,1109.01z M850.34,265.93c0.24-0.27,0.51-0.27,0.82,0c12.41-1.13,24.53-1.96,36.94-1.96
		c34.82,0,69.68,5.34,102.82,14.13c-32.99-8.72-67.68-14-102.31-14c-13.28,0-26.53,0.85-39.69,2.29
		C849.39,266.25,849.86,266.08,850.34,265.93z M1006.73,282.59c-5.01-1.51-10.08-2.95-15.18-4.31
		C996.65,279.65,1001.72,281.07,1006.73,282.59z"/>
	<path class="st2" d="M840.37,150.81c0,0-355.94,0.95-369,443.49c0,0,9.8,89.26-26.13,145.04c-35.93,55.78-26.28,192.31-19.6,220.84
		c6.6,28.17-120.27,231.94-47.35,249.11c233.83,55.06,1022.77-13.65,1022.77-13.65s-122.97-225.89-96.84-311.65
		c26.13-85.77,55.52-246.91,0-361.57C1248.69,407.76,1271.62,150.74,840.37,150.81z"/>
	<path id="XMLID_2641_" class="st3" d="M1436.06,1147.78v386.17c0,28.68-26.23,52.15-58.49,52.15H399.72
		c-32.01,0-58.48-23.48-58.48-52.15v-386.17c0-22.62,16.29-41.96,38.9-49.08c0.27,0,0.27-0.31,0.57-0.31
		c0.52-0.28,1.4-0.28,1.89-0.55l229.52-85.21c32.55,86.07,104.86,150.32,185.35,196.66c3.08-18.75,11.91-39.73,24.02-59.02
		c15.16,63.44,16.27,274.15,16.27,274.15h58.2c30.64-193.92,0-330.16,0-330.16c36.14,25.37,68.97,74.49,75.6,115.03
		c80.24-46.34,152.51-110.35,185.09-196.11l237.44,84.37C1418.4,1103.92,1436.06,1124.06,1436.06,1147.78z"/>
	<path id="XMLID_2640_" class="st4" d="M614.07,700.22c-8.34,1.54-16.75-0.36-24.78-5.24c-21.97-13.05-41.15-47.57-47.72-90.58
		c-8.77-58.56,9.25-110.43,40.59-116.07c2.81-0.48,5.76-0.64,8.42-0.11c1.77,0,3.36,0.11,5,0.64c6.67,1.58,13.38,5.27,19.61,10.79
		c18.32,16.06,33.66,47.08,39.29,84.51C663.38,642.74,645.17,694.61,614.07,700.22z"/>
	<path id="XMLID_2639_" class="st5" d="M1231.88,604.4c-7.32,48.59-30.95,86.55-56.63,94.62c-5.24,1.71-10.56,2.27-15.82,1.2
		c-31.13-5.61-49.35-57.49-40.38-116.06c5.41-35.5,19.31-65.29,36.56-81.82c6.18-6.17,12.79-10.46,19.64-12.77
		c5.4-1.72,10.87-2.2,16.23-1.24c0.32,0,0.86,0.2,1.14,0.38C1223.11,495.16,1240.55,546.55,1231.88,604.4z"/>
	<path id="XMLID_2638_" class="st5" d="M1063.42,984.46c-5.27,5.83-10.79,11.34-16.59,16.57c-1.93,1.67-3.85,3.6-5.76,5.25
		c-2.48,2.77-5.25,5.22-8.3,7.43c-3.32,2.75-6.62,5.53-9.91,8.3c-18.78,15.15-38.09,27.83-54.64,36.67
		c-8.54,4.43-17.34,9.12-26.49,13.54c-14.6,7.45-30.05,15.15-45.79,22.06c0,0,30.64,136.23,0,330.16v-14.05
		c0-111.44-22.9-316.11-22.9-316.11c-17.09-7.74-33.93-16.01-49.88-24.02c-7.74-3.84-15.19-7.71-22.38-11.58
		c-16.82-8.84-36.1-21.52-54.61-36.67c-3.28-2.77-6.61-5.55-9.9-8.3c-6.9-5.75-13.28-11.87-19.62-17.92l-5.78-5.8
		c-0.56-0.54-1.13-1.1-1.37-1.64c2.2-1.1,4.7-1.96,7.15-2.77V840.77h330.18v135.16C1052.35,978.68,1057.86,981.45,1063.42,984.46z"
		/>
	<path id="XMLID_2637_" class="st6" d="M1182.26,563.54v4.7c-0.25,13.78-0.8,27.59-1.93,41.37c-1.88,21.8-4.42,42.77-8.78,63.18
		c-35.06,167.97-152.82,291.81-292.43,291.81c-140.92,0-259.27-125.49-293.48-295.68c-6.35-32.26-9.94-66.22-9.94-100.68v-4.7
		c0-25.94,1.96-50.74,5.53-74.73c1.1-8.84,2.75-17.69,4.41-26.22c9.64-48.26,26.22-92.97,48.26-132.14c0,0,0,0,0.27,0
		c59.89-40.25,152.02-77.79,244.71-77.79c92.35,0,185.08,37.54,245.19,77.79c21.5,38.36,37.81,81.66,47.48,128.3
		c1.64,8.01,2.46,16.27,3.57,24.24c0.24,0.86,0.55,1.42,0.55,2.24c0.24,1.36,0.54,2.47,0.54,3.84c0.81,4.68,1.67,9.36,2.24,14.64
		c0.24,0.81,0.24,1.34,0.24,2.18c0.54,5.8,1.11,11.87,1.64,17.68C1181.19,536.81,1182.26,549.76,1182.26,563.54z"/>
	<path id="XMLID_2633_" class="st7" d="M1074.62,295.22c-28.96,29.5-7.38,55.99-48.21,48.56
		c-55.18-11.34-149.78,158.64-204.93,172.44c-64.28,16.01-118.29,97.81-154.99,150.52c-15.98,22.9-39.15,45.79-66.18,57.65
		c-3.04-9.15-5.8-18.49-8.29-28.14c-1.07-0.3-1.92-0.86-2.74-1.42c-22.08-12.92-41.37-47.41-47.72-90.42
		c-8.82-57.94,8.56-109.24,39.45-115.87c2.74,1.65,6.04,2.22,9.94,2.22c0,44.69-26.21-88.71,11-88.71
		c5.8,0,38.77-100.33,45.39-104.17c35.03-19.33,58.12-57.45,201.56-57.45C983.54,240.42,1039.59,272.33,1074.62,295.22z"/>
	<g>
		<path d="M576.38,594.3c0,0-60.12-199.63,42.49-269.01S576.38,594.3,576.38,594.3z"/>
		<path d="M1187.4,594.88c0,0,60.12-199.63-42.49-269.01C1042.29,256.51,1187.4,594.88,1187.4,594.88z"/>
	</g>
	<path class="st8" d="M571.71,581.69c0,0-30.19-61.67-36.42-95.5c-6.23-33.82,3.88-81.3,19.6-97.63
		c15.72-16.32,41.85-56.38,39.17-69.74s22.13-75.67,58.69-90.51c36.56-14.84,36.56-57.87,64.75-62.32
		c28.19-4.45,91.42-16.32,113.22-20.77c21.8-4.45,37.46,8.9,57.08,7.42s96.21,9.98,114.94,19.29
		c24.05,11.94,92.88,14.49,101.47,29.68c10.07,17.81,51,80.39,59.9,75.81s24.64,65.15,36.8,65.15s-5.67,37.71,0,54.9
		c11.75,35.61-2.67,69.47,9.2,71.09c11.87,1.62-21.22,134.75-26.71,130.7s-14.2-107.08-30.84-136.63
		c-16.64-29.55-18.13-50.32-30-65.16c-11.87-14.84-8.62-43.67-40.08-60.07c-31.46-16.4-84-24.51-95.57-34.89
		s-37.95-17.46-57.24-10.96s-33.14-12.44-56.63,0s-78.54,7.92-97.75,11.67c-19.22,3.74-44.42,47.23-60.76,45.29
		s-26.23,32.64-42.79,34.13s-41.79,48.96-55.14,60.83c-13.35,11.87-26.71,91.99-34.13,91.99S571.71,581.69,571.71,581.69z"/>
	<path id="XMLID_2634_" class="st9" d="M1160.89,441.97c0,44.65-2.58,74.83-40.03,74.83c-37.43,0-78.33-88.2-247.81-88.2
		c-169.5,0-210.4,88.2-247.84,88.2c-37.43,0-40.03-30.18-40.03-74.83c2.59,0,5.8-1.44,9.85-3.76
		c31.34-19.78,109.41-107.44,278.02-107.44c168.58,0,246.64,87.65,278,107.44C1155.1,440.53,1158.31,441.97,1160.89,441.97z"/>
	<path id="XMLID_2636_" class="st10" d="M1190.82,406.32c0,52.44-0.82,76.44-14.61,82.76c-2.47,1.37-5.79,1.93-9.67,1.93
		c-22.89,0-97.63-111.17-287.66-111.17c-168.56,0-246.63,87.45-277.79,107.28c-4.14,2.2-7.44,3.9-9.94,3.9
		c-3.87,0-7.16-0.56-9.91-2.2c-13.23-6.63-14.09-30.36-14.09-82.5c0-19.3,25.68-48.27,66.75-75.86c0,0,0,0,0.27,0
		c59.89-40.25,152.02-77.79,244.71-77.79c92.35,0,185.08,37.54,245.19,77.79C1165.18,358.04,1190.82,387.01,1190.82,406.32z"/>
	<path id="XMLID_2631_" class="st10" d="M873.04,1094.27c-19.29,13.51-37.51,33.66-51.3,55.69l-0.27,0.32
		c-12.1,19.29-20.94,40.27-24.02,59.02c-80.49-46.34-152.81-110.59-185.35-196.66c16.83-30.91,38.11-51.6,67.57-63.42
		c7.2,13.22,17.68,26.46,29.82,39.14c0.24,0.54,0.81,1.1,1.37,1.64l5.78,5.8c6.34,6.04,12.72,12.17,19.62,17.92
		c3.29,2.75,6.62,5.53,9.9,8.3c18.51,15.15,37.8,27.83,54.61,36.67c7.19,3.87,14.64,7.74,22.38,11.58
		C839.12,1078.26,855.96,1086.54,873.04,1094.27z"/>
	<path id="XMLID_2630_" class="st10" d="M1156.88,1012.64c0,0.27-0.24,0.27-0.24,0.55c-32.57,85.76-104.85,149.77-185.09,196.11
		c-6.63-40.54-39.46-89.65-75.6-115.03c15.74-6.9,31.19-14.6,45.79-22.06c9.15-4.42,17.94-9.11,26.49-13.54
		c16.55-8.84,35.86-21.52,54.64-36.67c3.29-2.77,6.59-5.55,9.91-8.3c3.05-2.2,5.82-4.66,8.3-7.43c1.91-1.65,3.83-3.59,5.76-5.25
		c5.8-5.24,11.32-10.75,16.59-16.57c10.46-11.58,19.29-23.42,25.9-35.24C1118.85,961.03,1140.06,981.73,1156.88,1012.64z"/>
	<path id="XMLID_2629_" class="st11" d="M895.95,1410.38v14.05h-58.2c0,0-1.1-210.71-16.27-274.15l0.27-0.32
		c13.78-22.03,32.01-42.17,51.3-55.69C873.04,1094.27,895.95,1298.94,895.95,1410.38z"/>
	<path id="XMLID_2628_" class="st12" d="M967.23,1246.01c0,10.14-8.25,18.35-18.38,18.35c-10.18,0-18.4-8.21-18.4-18.35
		c0-10.18,8.22-18.41,18.4-18.41C958.98,1227.59,967.23,1235.83,967.23,1246.01z"/>
	<path id="XMLID_2627_" class="st12" d="M961.46,1347.13c0,10.13-8.23,18.4-18.39,18.4c-10.14,0-18.37-8.27-18.37-18.4
		c0-10.18,8.23-18.4,18.37-18.4C953.23,1328.73,961.46,1336.95,961.46,1347.13z"/>
	<rect id="XMLID_2624_" x="1036.72" y="1432.17" class="st10" width="240.18" height="57.47"/>
	<path id="XMLID_2623_" class="st11" d="M716.65,940.9v44.69c-2.44,0.81-4.94,1.67-7.15,2.77c-12.14-12.68-22.62-25.92-29.82-39.14
		C687.4,945.05,702.04,941.72,716.65,940.9z"/>
	<path id="XMLID_2622_" class="st11" d="M1089.32,949.21c-6.61,11.82-15.43,23.67-25.9,35.24c-5.56-3.01-11.07-5.78-16.59-8.53
		v-40.01C1061.73,937.88,1076.09,942.28,1089.32,949.21z"/>
	<g>
		<rect x="491.77" y="1262.82" class="st13" width="211.56" height="211.56"/>
		<circle class="st9" cx="597.55" cy="1375.43" r="70.2"/>
		<g>
			<path d="M558.51,1390.25l-0.21-21.17l-0.14-21.17l0.69-0.05c0.65,3.7,1.57,7.38,2.73,10.96c1.18,3.57,2.6,7.09,4.59,10.24
				c1,1.57,2.15,3.05,3.55,4.24c0.68,0.62,1.46,1.09,2.25,1.52c0.82,0.37,1.68,0.68,2.53,0.74c0.85,0.04,1.64-0.25,2.23-0.85
				c0.59-0.6,0.99-1.43,1.3-2.27c0.62-1.71,0.89-3.59,1.15-5.45c0.48-3.73,0.71-7.53,1.47-11.3c0.39-1.88,0.92-3.76,1.85-5.5
				c0.48-0.86,1.04-1.7,1.82-2.37c0.75-0.65,1.62-1.32,2.83-1.33c0.6-0.02,1.16,0.29,1.59,0.63c0.4,0.38,0.72,0.8,0.96,1.25
				c0.49,0.89,0.79,1.83,1.03,2.77c0.48,1.88,0.7,3.78,0.87,5.69c0.3,3.81,0.32,7.61,0.16,11.41l-0.06-0.24l12.31,22.1l-0.55-0.02
				c1.69-2.64,3-5.58,3.97-8.59c0.95-3.02,1.58-6.15,1.7-9.33c0.13-3.17-0.26-6.36-1.18-9.41c-0.91-3.05-2.39-5.92-4.22-8.53
				c1.88,2.57,3.42,5.42,4.4,8.47c0.99,3.05,1.44,6.27,1.38,9.48c-0.05,3.21-0.62,6.41-1.56,9.48c-0.96,3.07-2.23,6.03-3.95,8.79
				l-0.28,0.45l-0.27-0.47l-12.51-21.99l-0.06-0.11l0.01-0.13c0.15-3.76,0.12-7.55-0.2-11.29c-0.17-1.87-0.4-3.74-0.87-5.53
				c-0.23-0.89-0.52-1.77-0.95-2.54c-0.42-0.77-1.03-1.41-1.75-1.38c-0.72-0.02-1.52,0.5-2.15,1.08c-0.66,0.58-1.17,1.33-1.61,2.12
				c-0.85,1.6-1.36,3.41-1.73,5.24c-0.75,3.67-1,7.45-1.5,11.22c-0.27,1.89-0.54,3.79-1.22,5.64c-0.34,0.92-0.77,1.85-1.52,2.61
				c-0.74,0.78-1.88,1.18-2.93,1.11c-2.08-0.19-3.85-1.22-5.33-2.49c-1.49-1.27-2.68-2.83-3.7-4.45c-2.03-3.27-3.48-6.84-4.63-10.46
				c-1.14-3.64-2.02-7.34-2.64-11.1l0.69-0.05l-0.14,21.17L558.51,1390.25z"/>
		</g>
	</g>
	<path class="st2" d="M873.04,212.91c0,0-197.49,354.15-345.7,436.69C527.35,649.61,534.08,166.61,873.04,212.91z"/>
	<path class="st2" d="M793.11,186.62c0,0,377.54,459.84,439.24,462.98s-61.82-331.69-61.82-331.69L793.11,186.62z"/>
	<ellipse class="st14" cx="734.42" cy="578.4" rx="36.25" ry="47.48"/>
	<ellipse class="st14" cx="1030.78" cy="578.4" rx="36.25" ry="47.48"/>
	<path d="M1089.47,487.88c-9.82-22.17-30.92-37.07-54.59-38.58c-36.01-2.29-66.15,27.17-62.48,38.58
		C975.01,496.03,997.1,501.84,1089.47,487.88"/>
	<path d="M675.73,487.88c9.82-22.17,30.91-37.07,54.59-38.58c36.02-2.29,66.15,27.17,62.48,38.58
		C790.18,496.03,768.1,501.84,675.73,487.88"/>
	<path class="st7" d="M923.25,671.28c-58.95-43.76-88.54,8.98-88.54,8.98"/>
	<g>
		<path class="st15" d="M760.87,767.47c1.75,2.52,3.64,4.92,5.58,7.29c1.93,2.37,3.93,4.69,5.99,6.95c4.11,4.52,8.45,8.84,13,12.92
			c9.06,8.18,18.91,15.51,29.53,21.5c10.62,5.97,21.92,10.74,33.72,13.71c11.78,2.98,24,4.25,36.14,3.59
			c6.07-0.29,12.11-1.01,18.09-2.11c5.98-1.12,11.87-2.7,17.67-4.53c5.8-1.86,11.46-4.13,17.03-6.59l4.13-1.95
			c1.38-0.65,2.75-1.31,4.1-2.03l4.06-2.1c1.35-0.71,2.66-1.48,4-2.22c10.63-5.99,20.77-12.88,30.39-20.41
			c9.68-7.47,18.86-15.59,27.74-24.02c-8.57,8.76-17.63,17.04-27.13,24.79c-9.54,7.72-19.62,14.78-30.24,20.98
			c-5.27,3.16-10.78,5.93-16.34,8.54c-5.62,2.51-11.33,4.83-17.18,6.74c-5.86,1.88-11.82,3.51-17.87,4.68
			c-6.06,1.14-12.19,1.91-18.36,2.23c-12.33,0.6-24.75-0.75-36.69-3.83c-11.94-3.09-23.42-7.9-34.03-14.15
			c-10.64-6.21-20.46-13.73-29.43-22.11c-4.47-4.21-8.72-8.65-12.73-13.29C768.03,777.43,764.23,772.6,760.87,767.47z"/>
	</g>
	<circle class="st16" cx="697.55" cy="717.28" r="50.2"/>
	<circle class="st16" cx="1068.08" cy="713.16" r="50.2"/>
	<path class="st17" d="M500.9,834.59"/>
	<g>
		<path d="M923.25,671.28c-7.07-4.75-14.49-8.98-22.37-11.98l-2.97-1.08c-0.99-0.35-2.01-0.61-3.02-0.92
			c-2-0.66-4.07-1.01-6.11-1.48c-4.13-0.7-8.31-1.05-12.48-0.82c-8.34,0.43-16.47,3.21-23.55,7.71c-3.55,2.24-6.85,4.89-9.87,7.85
			c-3.06,2.92-5.8,6.18-8.19,9.71c0.99-1.89,2.17-3.68,3.43-5.4c1.26-1.73,2.61-3.4,4.06-4.98c2.89-3.17,6.13-6.05,9.71-8.47
			c3.56-2.45,7.46-4.42,11.55-5.87c4.1-1.41,8.4-2.29,12.74-2.53c4.34-0.2,8.69,0.17,12.94,0.96c2.1,0.52,4.23,0.93,6.26,1.66
			c1.02,0.34,2.07,0.62,3.07,1.02l2.99,1.22c0.5,0.21,1,0.4,1.49,0.62l1.45,0.71l2.89,1.42c1.89,1.02,3.73,2.12,5.57,3.19
			c1.77,1.2,3.56,2.38,5.31,3.59C919.88,668.66,921.58,669.96,923.25,671.28z"/>
	</g>
	<path class="st8" d="M576.38,594.3l70.97-296.44c0,0-11.75,6.87-26.83,22.88c-34.6,36.73-52.15,86.33-49.99,136.74L576.38,594.3z"
		/>
	<path class="st8" d="M1175.43,336.48c0,0,47.7,109.87,6.83,252.31c-40.87,142.44-6.83-10.39-6.83-10.39s-26.62-219.6-50.36-267.08
		C1101.33,263.84,1175.43,336.48,1175.43,336.48z"/>
	<path id="XMLID_2632_" d="M1187.39,405.29c-12.39-16.21-31.26-34.05-54.83-51.58c-64.26-47.33-163-91.16-261.47-91.16
		c-13.26,0-26.21,0.98-39.47,2.31c-0.33-0.32-0.62-0.32-0.88,0c-58.39,19.11-104.94,60.65-127.96,126.51
		c-5.31-32.12-3.24-64.53,10.02-93.44c-25.94,13.96-44.78,36.96-58.08,64.22c-2.04-11.31-0.3-26.94,4.18-39.86
		c-18.01,10.01-34.52,20.76-49.28,31.43c-12.67,9.45-24.17,18.83-33.92,28.24c75.21-218.62,310.72-287.7,429.81-178.09
		c15.06,13.61,28.28,30.15,38.93,49.64c3.8-2.27,9.11-3.59,15.29-4.22C1100.45,245.41,1181.82,280.11,1187.39,405.29z"/>
</g>
<rect x="1160.88" y="1316.87" class="st18" width="625.1" height="468.06"/>
<g>
	<g>
		<ellipse class="st19" cx="1478.85" cy="1632.02" rx="272.09" ry="9.05"/>
		<polygon class="st20" points="1253.86,1514.01 1274.6,1514.01 1268.43,1487.87 1247.68,1487.87 		"/>
		<path class="st21" d="M1581.34,1504.39c0,0-37.21-59.07-137.15-59.07c-70.06,0-120.24,48.72-120.24,48.72l-83.3,19.96
			c-1.71,0-4.11,0.93-5.25,2.2c-4.08,4.57-12.96,16.58-17.84,38.75c-0.37,1.67,0.17,4.16,1.15,5.55l18.85,32.89h490.37
			c3.41,0,6.18-2.77,6.18-6.18c0-4.12,0-9.5,0-13.51c0-7.46-5.91-17.73-10.17-25.11
			C1712.54,1528.86,1656.33,1491.71,1581.34,1504.39z"/>
		<rect x="1371.13" y="1589.33" class="st21" width="215.43" height="4.07"/>
		<rect x="1582.12" y="1578.01" width="104.92" height="15.42"/>
		<polygon class="st20" points="1279,1593.4 1237.56,1593.4 1227.47,1575.79 1279,1580.19 		"/>
		<rect x="1271.49" y="1578.01" width="104.92" height="15.42"/>
		<g>
			
				<linearGradient id="SVGID_1_" gradientUnits="userSpaceOnUse" x1="33.8644" y1="1548.9185" x2="34.8988" y2="1548.9185" gradientTransform="matrix(-1 0 0 1 1596.2949 0)">
				<stop  offset="0" style="stop-color:#989898"/>
				<stop  offset="0.3181" style="stop-color:#B5B5B5"/>
				<stop  offset="0.7618" style="stop-color:#D9D8D8"/>
				<stop  offset="1" style="stop-color:#E6E5E5"/>
			</linearGradient>
			<rect x="1561.4" y="1507.29" class="st22" width="1.03" height="83.26"/>
		</g>
		<g>
			
				<linearGradient id="SVGID_2_" gradientUnits="userSpaceOnUse" x1="180.9749" y1="1525.4664" x2="182.0094" y2="1525.4664" gradientTransform="matrix(-1 0 0 1 1596.2949 0)">
				<stop  offset="0" style="stop-color:#989898"/>
				<stop  offset="0.3181" style="stop-color:#B5B5B5"/>
				<stop  offset="0.7618" style="stop-color:#D9D8D8"/>
				<stop  offset="1" style="stop-color:#E6E5E5"/>
			</linearGradient>
			<rect x="1414.29" y="1460.39" class="st23" width="1.03" height="130.16"/>
		</g>
		<path class="st20" d="M1268.41,1579.29c0.03-30.6,24.93-57.08,55.54-57.08c21.43,0,41.18,12.57,50.31,32.02l0.09,0.2l4.48,14.82
			l0.03,0.21c0.42,2.72,0.63,16.99,0.63,19.73L1268.41,1579.29z"/>
		<polygon class="st20" points="1231.38,1494.05 1280.33,1494.05 1277.64,1481.7 1220.01,1481.7 		"/>
		<g>
			
				<linearGradient id="SVGID_3_" gradientUnits="userSpaceOnUse" x1="-124.3441" y1="1544.3967" x2="-82.976" y2="1544.3967" gradientTransform="matrix(-1 0 0 1 1596.2949 0)">
				<stop  offset="0" style="stop-color:#FFFFFF"/>
				<stop  offset="0.0598" style="stop-color:#EAEAEA"/>
				<stop  offset="0.2445" style="stop-color:#B0B0B0"/>
				<stop  offset="0.4229" style="stop-color:#808080"/>
				<stop  offset="0.5908" style="stop-color:#5A5A5A"/>
				<stop  offset="0.7455" style="stop-color:#3F3F3F"/>
				<stop  offset="0.8825" style="stop-color:#2F2F2F"/>
				<stop  offset="0.9873" style="stop-color:#292929"/>
			</linearGradient>
			<path class="st24" d="M1716.74,1542.51c-5.09-8.27-17.24-14-36.23-14.06c-5.42-0.02,6.8,31.05,40.13,31.89
				C1720.64,1560.34,1719.13,1546.4,1716.74,1542.51z"/>
			<path class="st9" d="M1718.43,1558.29c-0.69-5.29-1.99-12.53-3.35-14.76c-5.04-8.18-17.36-12.94-33.86-13.13
				c0.02,1.3,0.84,4.69,4.02,9.37C1688.79,1545,1698.96,1556.95,1718.43,1558.29z"/>
			<g>
				<path class="st9" d="M1696.39,1545.87c-1.15-0.25-3.33-2.59-1.44-4.11c1.89-1.54,1.35-4.11,1.46-5.21
					c0.11-1.1,2.47-1.28,4.05,0.67C1702.02,1539.18,1704.63,1547.67,1696.39,1545.87z"/>
				<path class="st25" d="M1696.5,1545.53c-1.06-0.23-3.09-2.4-1.34-3.81c1.75-1.43,1.25-3.81,1.35-4.83
					c0.11-1.02,2.29-1.18,3.75,0.62C1701.72,1539.33,1704.14,1547.2,1696.5,1545.53z"/>
				<path class="st26" d="M1696.61,1545.2c-0.98-0.21-2.84-2.21-1.23-3.51c1.61-1.31,1.15-3.51,1.24-4.44
					c0.1-0.94,2.11-1.09,3.45,0.57C1701.41,1539.49,1703.64,1546.73,1696.61,1545.2z"/>
				<path class="st27" d="M1696.72,1544.86c-0.9-0.19-2.6-2.02-1.13-3.2c1.47-1.2,1.05-3.2,1.14-4.06c0.09-0.86,1.93-1,3.15,0.52
					C1701.11,1539.64,1703.14,1546.26,1696.72,1544.86z"/>
				<path class="st28" d="M1696.83,1544.52c-0.81-0.18-2.35-1.82-1.02-2.9c1.34-1.08,0.95-2.9,1.03-3.67
					c0.08-0.78,1.74-0.9,2.85,0.47C1700.8,1539.79,1702.64,1545.78,1696.83,1544.52z"/>
				<path class="st29" d="M1696.94,1544.18c-0.73-0.16-2.1-1.63-0.91-2.6c1.2-0.97,0.85-2.6,0.92-3.29c0.07-0.7,1.56-0.81,2.56,0.42
					C1700.5,1539.95,1702.14,1545.31,1696.94,1544.18z"/>
				<path class="st30" d="M1697.05,1543.84c-0.64-0.14-1.86-1.44-0.81-2.29c1.06-0.86,0.75-2.29,0.81-2.91
					c0.06-0.62,1.38-0.71,2.26,0.37C1700.19,1540.1,1701.65,1544.84,1697.05,1543.84z"/>
				<path class="st31" d="M1697.16,1543.5c-0.56-0.12-1.61-1.25-0.7-1.99c0.92-0.74,0.65-1.99,0.71-2.52
					c0.05-0.54,1.2-0.62,1.96,0.32C1699.89,1540.26,1701.14,1544.38,1697.16,1543.5z"/>
				<path class="st32" d="M1697.27,1543.17c-0.47-0.1-1.37-1.06-0.59-1.69c0.78-0.63,0.55-1.69,0.6-2.14
					c0.05-0.45,1.02-0.52,1.66,0.27C1699.58,1540.41,1700.65,1543.91,1697.27,1543.17z"/>
				<path class="st33" d="M1697.38,1542.83c-0.39-0.09-1.12-0.87-0.49-1.39c0.64-0.52,0.45-1.38,0.49-1.75
					c0.04-0.37,0.83-0.43,1.36,0.23C1699.28,1540.57,1700.15,1543.45,1697.38,1542.83z"/>
				<path class="st34" d="M1697.49,1542.49c-0.31-0.07-0.88-0.68-0.38-1.08c0.5-0.4,0.35-1.08,0.38-1.37
					c0.03-0.29,0.65-0.33,1.06,0.18C1698.97,1540.72,1699.65,1542.98,1697.49,1542.49z"/>
				<path class="st35" d="M1697.6,1542.15c-0.22-0.05-0.64-0.49-0.27-0.78c0.35-0.29,0.25-0.78,0.27-0.99
					c0.02-0.21,0.47-0.24,0.76,0.13C1698.67,1540.88,1699.16,1542.48,1697.6,1542.15z"/>
			</g>
			<g>
				<path class="st9" d="M1711.38,1549.18c-1.66,3.61-5.47,5.39-8.53,3.99c-3.06-1.41-4.19-5.46-2.54-9.07
					c1.66-3.61,5.48-5.4,8.53-3.99C1711.91,1541.52,1713.04,1545.57,1711.38,1549.18z"/>
				<path class="st25" d="M1711.07,1549.04c-1.56,3.4-5.16,5.09-8.04,3.77c-2.89-1.33-3.96-5.16-2.4-8.56
					c1.57-3.41,5.17-5.09,8.05-3.77C1711.57,1541.81,1712.63,1545.63,1711.07,1549.04z"/>
				<path class="st26" d="M1710.76,1548.9c-1.47,3.2-4.85,4.78-7.56,3.54c-2.72-1.25-3.72-4.85-2.25-8.04
					c1.47-3.2,4.86-4.79,7.57-3.54C1711.22,1542.1,1712.23,1545.69,1710.76,1548.9z"/>
				<path class="st27" d="M1710.45,1548.75c-1.38,2.99-4.54,4.48-7.08,3.31c-2.54-1.17-3.48-4.54-2.11-7.53
					c1.38-3,4.55-4.48,7.09-3.32C1710.88,1542.38,1711.82,1545.75,1710.45,1548.75z"/>
				<path class="st28" d="M1710.13,1548.61c-1.28,2.79-4.24,4.17-6.6,3.09c-2.37-1.09-3.25-4.23-1.97-7.02
					c1.29-2.8,4.24-4.18,6.61-3.09C1710.54,1542.67,1711.42,1545.82,1710.13,1548.61z"/>
				<path class="st29" d="M1709.82,1548.47c-1.19,2.59-3.93,3.87-6.12,2.86c-2.2-1.01-3.01-3.92-1.82-6.51
					c1.19-2.59,3.93-3.87,6.13-2.87C1710.2,1542.96,1711.01,1545.88,1709.82,1548.47z"/>
				<path class="st30" d="M1709.51,1548.33c-1.09,2.38-3.62,3.56-5.64,2.64c-2.02-0.93-2.77-3.62-1.68-6
					c1.1-2.39,3.62-3.57,5.64-2.64S1710.61,1545.94,1709.51,1548.33z"/>
				<path class="st31" d="M1709.2,1548.18c-1,2.18-3.31,3.26-5.16,2.41c-1.85-0.85-2.54-3.31-1.54-5.49c1-2.18,3.31-3.26,5.16-2.41
					C1709.52,1543.54,1710.2,1546,1709.2,1548.18z"/>
				<path class="st32" d="M1708.89,1548.04c-0.91,1.97-3,2.95-4.68,2.19c-1.68-0.77-2.3-3-1.39-4.98c0.91-1.98,3-2.96,4.68-2.19
					C1709.18,1543.83,1709.79,1546.06,1708.89,1548.04z"/>
				<path class="st33" d="M1708.57,1547.9c-0.81,1.77-2.69,2.65-4.19,1.96c-1.5-0.69-2.06-2.69-1.25-4.46
					c0.82-1.77,2.7-2.65,4.2-1.96C1708.83,1544.12,1709.39,1546.12,1708.57,1547.9z"/>
				<path class="st34" d="M1708.26,1547.75c-0.72,1.56-2.38,2.35-3.71,1.74c-1.33-0.61-1.83-2.38-1.11-3.95
					c0.72-1.57,2.39-2.35,3.72-1.74C1708.49,1544.41,1708.98,1546.18,1708.26,1547.75z"/>
				<path class="st35" d="M1707.95,1547.61c-0.62,1.36-2.07,2.04-3.23,1.51c-1.16-0.53-1.59-2.08-0.96-3.44
					c0.63-1.36,2.08-2.05,3.24-1.51C1708.15,1544.7,1708.58,1546.24,1707.95,1547.61z"/>
			</g>
			<path class="st36" d="M1690.32,1534.91c-0.04-0.66-1.48-5.05-3.27-1.35c-1.79,3.7,0.27,7.66,2.64,7.35
				C1691.8,1540.63,1690.43,1536.74,1690.32,1534.91z"/>
		</g>
		<g>
			<path d="M1634.57,1525.55c20.99,0,39.13,12.4,47.51,30.25l4.36,14.39c0.39,2.55,0.6,5.17,0.6,7.82c-5.96,0-9.99,0-9.99,0h-94.93
				C1582.12,1549.09,1605.65,1525.55,1634.57,1525.55z"/>
			
				<radialGradient id="SVGID_4_" cx="-38.2769" cy="1578.0101" r="44.9588" gradientTransform="matrix(-1 0 0 1 1596.2949 0)" gradientUnits="userSpaceOnUse">
				<stop  offset="0.8558" style="stop-color:#303031"/>
				<stop  offset="0.8699" style="stop-color:#353435"/>
				<stop  offset="0.9483" style="stop-color:#49484A"/>
				<stop  offset="1" style="stop-color:#514F51"/>
			</radialGradient>
			<path class="st37" d="M1589.62,1578.01c0,24.83,20.13,44.96,44.96,44.96c24.83,0,44.96-20.13,44.96-44.96
				c0-24.84-20.12-44.96-44.96-44.96C1609.74,1533.05,1589.62,1553.18,1589.62,1578.01z"/>
			
				<radialGradient id="SVGID_5_" cx="-38.2785" cy="1578.0085" r="29.2902" gradientTransform="matrix(-1 0 0 1 1596.2949 0)" gradientUnits="userSpaceOnUse">
				<stop  offset="0" style="stop-color:#FFFFFF"/>
				<stop  offset="0.0651" style="stop-color:#F7F7F7"/>
				<stop  offset="0.1737" style="stop-color:#EFEFEF"/>
				<stop  offset="0.6285" style="stop-color:#EFEFEF"/>
				<stop  offset="0.7034" style="stop-color:#EFEFEF"/>
				<stop  offset="0.8455" style="stop-color:#EDEDED"/>
				<stop  offset="0.8967" style="stop-color:#E6E6E6"/>
				<stop  offset="0.9332" style="stop-color:#DBDBDB"/>
				<stop  offset="0.9627" style="stop-color:#CACACA"/>
				<stop  offset="0.9876" style="stop-color:#B5B5B4"/>
				<stop  offset="1" style="stop-color:#A7A7A6"/>
			</radialGradient>
			<path class="st38" d="M1634.57,1607.3c16.16,0,29.29-13.14,29.29-29.3c0-16.15-13.13-29.28-29.29-29.28
				c-16.15,0-29.29,13.13-29.29,29.28C1605.28,1594.16,1618.42,1607.3,1634.57,1607.3z"/>
			<g>
				<path d="M1627.54,1553.31c0-1.79,3.15-3.24,7.04-3.24c3.89,0,7.04,1.45,7.04,3.24c0,0.3-7.05,21.79-7.05,21.79
					S1627.54,1553.6,1627.54,1553.31z"/>
				<path d="M1652.45,1559.56c1.55-0.89,4.38,1.12,6.33,4.48c1.94,3.37,2.27,6.82,0.71,7.72c-0.26,0.15-22.39,4.79-22.39,4.79
					S1652.19,1559.71,1652.45,1559.56z"/>
				<path d="M1659.48,1584.27c1.55,0.9,1.23,4.35-0.72,7.71c-1.94,3.37-4.77,5.38-6.33,4.48c-0.26-0.15-15.35-17-15.35-17
					S1659.23,1584.12,1659.48,1584.27z"/>
				<path d="M1641.61,1602.71c0,1.79-3.16,3.24-7.04,3.24c-3.89,0-7.05-1.45-7.05-3.24c0-0.3,7.05-21.79,7.05-21.79
					S1641.61,1602.41,1641.61,1602.71z"/>
				<path d="M1616.7,1596.46c-1.55,0.89-4.38-1.12-6.32-4.48c-1.94-3.37-2.27-6.83-0.71-7.73c0.25-0.15,22.4-4.79,22.4-4.79
					S1616.96,1596.31,1616.7,1596.46z"/>
				<path d="M1609.66,1571.75c-1.55-0.89-1.23-4.35,0.71-7.71c1.95-3.37,4.78-5.38,6.33-4.49c0.26,0.14,15.35,17,15.35,17
					S1609.92,1571.9,1609.66,1571.75z"/>
				<path d="M1646.22,1554.8l-11.89,23.06c-0.07,0.14-0.02,0.32,0.12,0.39c0.13,0.07,0.29,0.02,0.37-0.09l14.59-21.47
					c0.58-0.85,0.36-2-0.49-2.58c-0.85-0.58-2-0.36-2.58,0.49C1646.29,1554.67,1646.25,1554.73,1646.22,1554.8z"/>
				<path d="M1660.5,1576.49l-25.92,1.23c-0.16,0.01-0.28,0.14-0.27,0.3c0.01,0.14,0.12,0.26,0.27,0.27l25.88,1.9
					c1.02,0.08,1.91-0.69,1.99-1.71c0.08-1.03-0.69-1.92-1.71-1.99C1660.65,1576.49,1660.57,1576.49,1660.5,1576.49z"/>
				<path d="M1648.85,1599.71l-14.03-21.83c-0.09-0.14-0.26-0.17-0.4-0.09c-0.12,0.08-0.17,0.24-0.1,0.36l11.29,23.37
					c0.45,0.93,1.56,1.31,2.48,0.87c0.92-0.45,1.31-1.56,0.86-2.48C1648.93,1599.83,1648.89,1599.76,1648.85,1599.71z"/>
				<path d="M1622.93,1601.22l11.89-23.06c0.07-0.14,0.02-0.32-0.12-0.39c-0.13-0.07-0.29-0.02-0.37,0.09l-14.59,21.46
					c-0.58,0.85-0.36,2,0.49,2.58c0.85,0.58,2,0.36,2.58-0.49C1622.85,1601.35,1622.9,1601.28,1622.93,1601.22z"/>
				<path d="M1608.65,1579.53l25.92-1.24c0.16-0.01,0.28-0.14,0.27-0.3c-0.01-0.14-0.12-0.26-0.27-0.27l-25.87-1.9
					c-1.02-0.07-1.91,0.69-1.99,1.72c-0.08,1.03,0.69,1.92,1.71,1.99C1608.5,1579.53,1608.58,1579.53,1608.65,1579.53z"/>
				<path d="M1620.3,1556.32l14.03,21.82c0.09,0.14,0.26,0.17,0.4,0.09c0.12-0.08,0.17-0.24,0.1-0.37l-11.29-23.36
					c-0.45-0.93-1.56-1.31-2.48-0.87c-0.92,0.45-1.31,1.56-0.86,2.48C1620.22,1556.19,1620.26,1556.27,1620.3,1556.32z"/>
			</g>
		</g>
		<path class="st39" d="M1712.4,1572.15h21.7c0,3.86,0,8.65,0,12.43c0,0.75-0.1,1.45-0.27,2.11h-26.62L1712.4,1572.15z"/>
		<polygon class="st9" points="1712.92,1583.4 1715.99,1583.4 1717.53,1574.8 1714.46,1574.8 		"/>
		<polygon class="st36" points="1713.49,1580.19 1716.57,1580.19 1715.99,1583.4 1712.92,1583.4 		"/>
		
			<linearGradient id="SVGID_6_" gradientUnits="userSpaceOnUse" x1="45.9161" y1="1459.4768" x2="45.9161" y2="1505.6052" gradientTransform="matrix(-1 0 0 1 1596.2949 0)">
			<stop  offset="0" style="stop-color:#5F5A5E"/>
			<stop  offset="0.2754" style="stop-color:#262529"/>
			<stop  offset="0.4741" style="stop-color:#29282C"/>
			<stop  offset="0.6249" style="stop-color:#333135"/>
			<stop  offset="0.7595" style="stop-color:#434044"/>
			<stop  offset="0.8093" style="stop-color:#4B484B"/>
		</linearGradient>
		<path class="st40" d="M1573.79,1500.94c-10.03-8.82-37.24-26.26-51.78-34.86c-6.49-3.83-5.33-5.5-1.22-6.83
			c43.15,17.52,60.55,45.14,60.55,45.14c0.67-0.11,1.32-0.19,1.99-0.3C1581.78,1506.52,1579.49,1505.96,1573.79,1500.94z"/>
		
			<linearGradient id="SVGID_7_" gradientUnits="userSpaceOnUse" x1="106.0068" y1="1456.0117" x2="106.0068" y2="1509.1123" gradientTransform="matrix(-1 0 0 1 1596.2949 0)">
			<stop  offset="0" style="stop-color:#5F5A5E"/>
			<stop  offset="0.2754" style="stop-color:#262529"/>
			<stop  offset="0.4741" style="stop-color:#29282C"/>
			<stop  offset="0.6249" style="stop-color:#333135"/>
			<stop  offset="0.7595" style="stop-color:#434044"/>
			<stop  offset="0.8093" style="stop-color:#4B484B"/>
		</linearGradient>
		<path class="st41" d="M1492.03,1457.44c3.38,0.49,7.96,3.44,10.72,5.46l58.05,42.43c2.75,2.02,2.22,3.65-1.19,3.65h-135.4
			c-3.41,0-6.18-2.77-6.18-6.18v-43.54c0-1.93,17.85-3.5,39.87-3.5C1472.37,1455.75,1485.04,1456.43,1492.03,1457.44z"/>
		
			<linearGradient id="SVGID_8_" gradientUnits="userSpaceOnUse" x1="213.312" y1="1460.6234" x2="213.312" y2="1509.1002" gradientTransform="matrix(-1 0 0 1 1596.2949 0)">
			<stop  offset="0" style="stop-color:#5F5A5E"/>
			<stop  offset="0.2754" style="stop-color:#262529"/>
			<stop  offset="0.4741" style="stop-color:#29282C"/>
			<stop  offset="0.6249" style="stop-color:#333135"/>
			<stop  offset="0.7595" style="stop-color:#434044"/>
			<stop  offset="0.8093" style="stop-color:#4B484B"/>
		</linearGradient>
		<path class="st42" d="M1359.82,1508.97h43.77c3.41,0,6.18-2.77,6.18-6.18v-37.37c0-3.41-2.71-5.61-6.05-4.91l-14.19,2.97
			c-3.34,0.7-7.59,3.56-9.5,6.39l-22.94,33.98C1355.19,1506.68,1356.41,1508.97,1359.82,1508.97z"/>
		
			<linearGradient id="SVGID_9_" gradientUnits="userSpaceOnUse" x1="352.2705" y1="1531.0455" x2="373.0226" y2="1531.0455" gradientTransform="matrix(-1 0 0 1 1596.2949 0)">
			<stop  offset="0" style="stop-color:#DA2A24"/>
			<stop  offset="1" style="stop-color:#A01916"/>
		</linearGradient>
		<path class="st43" d="M1228.69,1525.58h15.34v10.93h-20.75C1225.05,1532.2,1226.91,1528.57,1228.69,1525.58z"/>
		<g>
			<path d="M1323.95,1525.44c20.99,0,39.13,12.4,47.51,30.25l4.36,14.39c0.39,2.55,0.6,16.94,0.6,19.6
				c-5.96,0-104.92-7.08-104.92-7.08C1271.5,1553.68,1295.03,1525.44,1323.95,1525.44z"/>
			
				<radialGradient id="SVGID_10_" cx="272.342" cy="1577.9014" r="44.9588" gradientTransform="matrix(-1 0 0 1 1596.2949 0)" gradientUnits="userSpaceOnUse">
				<stop  offset="0.8558" style="stop-color:#303031"/>
				<stop  offset="0.8699" style="stop-color:#353435"/>
				<stop  offset="0.9483" style="stop-color:#49484A"/>
				<stop  offset="1" style="stop-color:#514F51"/>
			</radialGradient>
			<path class="st44" d="M1279,1577.9c0,24.83,20.13,44.96,44.96,44.96c24.83,0,44.96-20.13,44.96-44.96
				c0-24.84-20.12-44.96-44.96-44.96C1299.13,1532.94,1279,1553.07,1279,1577.9z"/>
			
				<radialGradient id="SVGID_11_" cx="272.3405" cy="1577.8998" r="29.2902" gradientTransform="matrix(-1 0 0 1 1596.2949 0)" gradientUnits="userSpaceOnUse">
				<stop  offset="0" style="stop-color:#FFFFFF"/>
				<stop  offset="0.0651" style="stop-color:#F7F7F7"/>
				<stop  offset="0.1737" style="stop-color:#EFEFEF"/>
				<stop  offset="0.6285" style="stop-color:#EFEFEF"/>
				<stop  offset="0.7034" style="stop-color:#EFEFEF"/>
				<stop  offset="0.8455" style="stop-color:#EDEDED"/>
				<stop  offset="0.8967" style="stop-color:#E6E6E6"/>
				<stop  offset="0.9332" style="stop-color:#DBDBDB"/>
				<stop  offset="0.9627" style="stop-color:#CACACA"/>
				<stop  offset="0.9876" style="stop-color:#B5B5B4"/>
				<stop  offset="1" style="stop-color:#A7A7A6"/>
			</radialGradient>
			<path class="st45" d="M1323.95,1607.19c16.16,0,29.29-13.14,29.29-29.3c0-16.15-13.13-29.28-29.29-29.28
				c-16.15,0-29.29,13.13-29.29,29.28C1294.66,1594.05,1307.8,1607.19,1323.95,1607.19z"/>
			<g>
				<path d="M1316.91,1553.2c0-1.79,3.15-3.24,7.04-3.24c3.89,0,7.04,1.45,7.04,3.24c0,0.3-7.05,21.79-7.05,21.79
					S1316.91,1553.49,1316.91,1553.2z"/>
				<path d="M1341.83,1559.45c1.55-0.89,4.38,1.12,6.33,4.48c1.94,3.37,2.27,6.82,0.71,7.72c-0.26,0.15-22.39,4.79-22.39,4.79
					S1341.57,1559.6,1341.83,1559.45z"/>
				<path d="M1348.86,1584.16c1.55,0.9,1.23,4.35-0.72,7.71c-1.94,3.37-4.77,5.38-6.33,4.48c-0.26-0.15-15.35-17-15.35-17
					S1348.6,1584.01,1348.86,1584.16z"/>
				<path d="M1330.99,1602.6c0,1.79-3.16,3.24-7.04,3.24c-3.89,0-7.05-1.44-7.05-3.24c0-0.3,7.05-21.79,7.05-21.79
					S1330.99,1602.3,1330.99,1602.6z"/>
				<path d="M1306.08,1596.35c-1.55,0.89-4.38-1.12-6.32-4.48c-1.94-3.37-2.27-6.83-0.71-7.73c0.25-0.15,22.4-4.79,22.4-4.79
					S1306.34,1596.2,1306.08,1596.35z"/>
				<path d="M1299.04,1571.64c-1.55-0.89-1.23-4.35,0.71-7.71c1.95-3.37,4.78-5.38,6.33-4.49c0.26,0.14,15.35,17,15.35,17
					S1299.3,1571.79,1299.04,1571.64z"/>
				<path d="M1335.6,1554.69l-11.89,23.06c-0.07,0.14-0.02,0.32,0.12,0.39c0.13,0.07,0.29,0.02,0.37-0.09l14.59-21.47
					c0.58-0.85,0.36-2-0.49-2.58c-0.85-0.58-2-0.36-2.58,0.49C1335.67,1554.55,1335.63,1554.62,1335.6,1554.69z"/>
				<path d="M1349.88,1576.38l-25.92,1.23c-0.16,0.01-0.28,0.14-0.27,0.3c0.01,0.14,0.12,0.26,0.27,0.27l25.88,1.9
					c1.02,0.07,1.91-0.69,1.99-1.72c0.08-1.02-0.69-1.92-1.71-1.99C1350.03,1576.38,1349.95,1576.38,1349.88,1576.38z"/>
				<path d="M1338.23,1599.59l-14.03-21.83c-0.09-0.14-0.26-0.17-0.4-0.09c-0.12,0.08-0.17,0.24-0.1,0.37l11.29,23.37
					c0.45,0.92,1.56,1.31,2.48,0.87c0.92-0.45,1.31-1.56,0.86-2.48C1338.31,1599.72,1338.27,1599.65,1338.23,1599.59z"/>
				<path d="M1312.31,1601.11l11.89-23.06c0.07-0.14,0.02-0.32-0.12-0.39c-0.13-0.07-0.29-0.02-0.37,0.09l-14.58,21.46
					c-0.58,0.85-0.36,2,0.49,2.58c0.85,0.58,2,0.36,2.58-0.49C1312.23,1601.24,1312.28,1601.17,1312.31,1601.11z"/>
				<path d="M1298.03,1579.42l25.92-1.23c0.16-0.01,0.28-0.14,0.27-0.3c-0.01-0.14-0.12-0.26-0.27-0.27l-25.87-1.9
					c-1.02-0.08-1.91,0.69-1.99,1.71c-0.08,1.03,0.69,1.92,1.72,1.99C1297.88,1579.42,1297.96,1579.42,1298.03,1579.42z"/>
				<path d="M1309.68,1556.21l14.03,21.82c0.09,0.14,0.26,0.17,0.4,0.09c0.12-0.08,0.17-0.24,0.1-0.36l-11.29-23.36
					c-0.45-0.93-1.56-1.31-2.48-0.87c-0.92,0.45-1.31,1.56-0.86,2.48C1309.6,1556.08,1309.64,1556.16,1309.68,1556.21z"/>
			</g>
		</g>
		<g>
			<path class="st46" d="M1457.89,1458.84c13.74,0,26.65,0.64,33.69,1.66c2.04,0.3,5.62,2.17,9.34,4.9l15.46,11.3l-95.27-2.42
				v-13.24C1425.15,1460.05,1437.97,1458.84,1457.89,1458.84z"/>
			<path d="M1556.32,1505.88H1424.2c-1.7,0-3.09-1.38-3.09-3.09v-28.52l95.27,2.42L1556.32,1505.88z"/>
			<path d="M1381.47,1473.27l25.22,0.64v28.89c0,1.7-1.39,3.09-3.09,3.09h-43.77c-0.13,0-0.24-0.01-0.34-0.02
				c0.05-0.09,0.11-0.18,0.18-0.29L1381.47,1473.27z"/>
			<path class="st46" d="M1382.59,1471.6c1.47-2.18,5.01-4.55,7.57-5.09l14.19-2.97c0.2-0.04,0.4-0.06,0.59-0.06
				c1.09,0,1.74,0.73,1.74,1.95v8.48l-25.22-0.64L1382.59,1471.6z"/>
		</g>
		<g>
			
				<linearGradient id="SVGID_12_" gradientUnits="userSpaceOnUse" x1="53.0358" y1="1496.5544" x2="53.0358" y2="1505.3236" gradientTransform="matrix(-1 0 0 1 1596.2949 0)">
				<stop  offset="0" style="stop-color:#5F5A5E"/>
				<stop  offset="0.2754" style="stop-color:#000000"/>
				<stop  offset="0.7541" style="stop-color:#000000"/>
				<stop  offset="0.8093" style="stop-color:#000000"/>
			</linearGradient>
			<polygon class="st47" points="1543.27,1496.55 1548.46,1502.16 1545.17,1505.32 1538.06,1502.99 			"/>
			<path class="st20" d="M1523.9,1500.01l2.24-16.5c0.41-2.97,4.02-4.54,7.86-3.13c8.29,3.05,11.46,20.38,11.06,21.16
				c-2.19,4.26-7.81,3.97-14.37,3.94C1526.54,1505.46,1523.5,1502.98,1523.9,1500.01z"/>
			
				<radialGradient id="SVGID_13_" cx="123.7842" cy="-1426.0066" r="10.952" gradientTransform="matrix(-1.1414 -0.1548 0.1508 -1.1116 1887.9434 -73.1779)" gradientUnits="userSpaceOnUse">
				<stop  offset="0" style="stop-color:#FFFFFF"/>
				<stop  offset="0.2273" style="stop-color:#FBFBFB"/>
				<stop  offset="0.4494" style="stop-color:#EFEFEF"/>
				<stop  offset="0.6696" style="stop-color:#DCDCDC"/>
				<stop  offset="0.8872" style="stop-color:#C0C0C0"/>
				<stop  offset="1" style="stop-color:#AFAFAF"/>
			</radialGradient>
			<path class="st48" d="M1523.9,1500.01l2.24-16.5c0.41-2.97,4.02-4.54,7.86-3.13c8.29,3.05,11.46,20.38,11.06,21.16
				c-2.19,4.26-7.81,3.97-14.37,3.94C1526.54,1505.46,1523.5,1502.98,1523.9,1500.01z"/>
			
				<linearGradient id="SVGID_14_" gradientUnits="userSpaceOnUse" x1="57.4612" y1="1482.8383" x2="60.549" y2="1491.9689" gradientTransform="matrix(-1 0 0 1 1596.2949 0)">
				<stop  offset="0" style="stop-color:#717070"/>
				<stop  offset="0.339" style="stop-color:#939393"/>
				<stop  offset="0.3456" style="stop-color:#919191"/>
				<stop  offset="0.5067" style="stop-color:#5D5D5D"/>
				<stop  offset="0.658" style="stop-color:#353535"/>
				<stop  offset="0.7952" style="stop-color:#181818"/>
				<stop  offset="0.9137" style="stop-color:#060606"/>
				<stop  offset="1" style="stop-color:#000000"/>
			</linearGradient>
			<path class="st49" d="M1523.9,1500.01l2.24-16.5c0.41-2.97,4.02-4.54,7.86-3.13c8.29,3.05,11.46,20.38,11.06,21.16
				c-2.19,4.26-7.81,3.97-14.37,3.94C1526.54,1505.46,1523.5,1502.98,1523.9,1500.01z"/>
		</g>
		<g>
			<g>
				<path class="st50" d="M1425.58,1536.51c0-3.73,4.82-6.65,10.98-6.65c6.15,0,10.98,2.92,10.98,6.65c0,3.73-4.83,6.66-10.98,6.66
					C1430.41,1543.17,1425.58,1540.24,1425.58,1536.51z M1427.53,1536.51c0,2.55,4.14,4.7,9.03,4.7c4.89,0,9.03-2.15,9.03-4.7
					c0-2.55-4.13-4.7-9.03-4.7C1431.67,1531.81,1427.53,1533.96,1427.53,1536.51z"/>
			</g>
			<g>
				
					<linearGradient id="SVGID_15_" gradientUnits="userSpaceOnUse" x1="159.7361" y1="1529.6914" x2="159.7361" y2="1543.9631" gradientTransform="matrix(-1 0 0 1 1596.2949 0)">
					<stop  offset="0" style="stop-color:#A7A7A6"/>
					<stop  offset="0.1273" style="stop-color:#A9A9A8"/>
					<stop  offset="0.1752" style="stop-color:#B0B0AF"/>
					<stop  offset="0.2096" style="stop-color:#BBBBBB"/>
					<stop  offset="0.2376" style="stop-color:#CCCCCC"/>
					<stop  offset="0.2615" style="stop-color:#E2E2E2"/>
					<stop  offset="0.2669" style="stop-color:#E8E8E8"/>
					<stop  offset="0.5381" style="stop-color:#F1F1F1"/>
					<stop  offset="0.6992" style="stop-color:#DDDEDE"/>
					<stop  offset="0.7523" style="stop-color:#C5C6C6"/>
					<stop  offset="0.8515" style="stop-color:#9E9E9E"/>
					<stop  offset="0.9305" style="stop-color:#868686"/>
					<stop  offset="0.9788" style="stop-color:#7D7D7D"/>
				</linearGradient>
				<path class="st51" d="M1426.56,1536.51c0,3.14,4.48,5.69,10.01,5.69c5.53,0,10-2.55,10-5.69s-4.46-5.68-10-5.68
					C1431.03,1530.83,1426.56,1533.37,1426.56,1536.51z"/>
				<g>
					
						<linearGradient id="SVGID_16_" gradientUnits="userSpaceOnUse" x1="179.9081" y1="1558.0632" x2="179.9081" y2="1563.2092" gradientTransform="matrix(-1 -3.500000e-03 -3.500000e-03 1 1622.2535 -24.1386)">
						<stop  offset="0" style="stop-color:#989898"/>
						<stop  offset="0.2585" style="stop-color:#EAEAEA"/>
						<stop  offset="0.6907" style="stop-color:#5D5D5D"/>
					</linearGradient>
					<path class="st52" d="M1422.55,1536.46c-0.01,1.12,0.89,2.03,2,2.03l24.94,0.08c1.1,0,2.01-0.89,2.01-2l0,0
						c0.01-1.13-0.88-2.03-1.99-2.03l-25.02-1.19C1423.38,1533.34,1421.56,1534.04,1422.55,1536.46L1422.55,1536.46z"/>
				</g>
			</g>
		</g>
	</g>
</g>
</svg>
