<?xml version="1.0" encoding="utf-8"?>
<!-- Generator: Adobe Illustrator 23.0.0, SVG Export Plug-In . SVG Version: 6.00 Build 0)  -->
<svg version="1.1" id="Camada_1" xmlns="http://www.w3.org/2000/svg" xmlns:xlink="http://www.w3.org/1999/xlink" x="0px" y="0px"
	 viewBox="0 0 1800 1800" style="enable-background:new 0 0 1800 1800;" xml:space="preserve">
<style type="text/css">
	.st0{fill:#F3A2A5;}
	.st1{opacity:0.5;fill:#808080;}
	.st2{fill:#110D08;}
	.st3{fill:#E63C1E;}
	.st4{fill:#F3CBA2;}
	.st5{fill:#FACB99;}
	.st6{fill:#FBD7B0;}
	.st7{display:none;fill:#E95A1C;}
	.st8{display:none;fill:#FFFFFF;}
	.st9{opacity:0.5;fill:#FACB99;}
	.st10{display:none;fill:#FFEBC9;}
	.st11{fill:#E74527;}
	.st12{fill:#C33917;}
	.st13{fill:#E95A1C;}
	.st14{fill:#FCCB68;}
	.st15{fill:#FFFFFF;}
	.st16{stroke:#1D1E1C;stroke-linecap:round;stroke-linejoin:round;stroke-miterlimit:10;}
	.st17{opacity:0.3;fill:#F3C89D;}
	.st18{fill:#1D1E1C;}
	.st19{opacity:0.1;fill:#EC686A;}
	.st20{fill:#A0D6E3;}
	.st21{opacity:0.2;fill:#1D1D1B;}
	.st22{fill:#EB6797;}
	.st23{fill:url(#SVGID_1_);}
	.st24{fill:url(#SVGID_2_);}
	.st25{fill:#903B8D;}
	.st26{fill:url(#SVGID_3_);}
	.st27{fill:#FCFBFA;}
	.st28{fill:#F9F7F4;}
	.st29{fill:#F7F3EF;}
	.st30{fill:#F3EFE9;}
	.st31{fill:#F1EAE3;}
	.st32{fill:#EEE7DE;}
	.st33{fill:#EBE3D8;}
	.st34{fill:#E8DED3;}
	.st35{fill:#E5DBCE;}
	.st36{fill:#E3D7C8;}
	.st37{fill:#DFD2C2;}
	.st38{fill:#F6B9AB;}
	.st39{fill:url(#SVGID_4_);}
	.st40{fill:url(#SVGID_5_);}
	.st41{fill:url(#SVGID_6_);}
	.st42{fill:url(#SVGID_7_);}
	.st43{fill:url(#SVGID_8_);}
	.st44{fill:url(#SVGID_9_);}
	.st45{fill:url(#SVGID_10_);}
	.st46{fill:url(#SVGID_11_);}
	.st47{fill:#484747;}
	.st48{fill:#C9C8C8;}
	.st49{fill:url(#SVGID_12_);}
	.st50{fill:url(#SVGID_13_);}
</style>
<rect x="2.38" class="st0" width="1800" height="1800"/>
<g id="XMLID_1360_">
	<path id="XMLID_2360_" class="st1" d="M1404.02,1118.64l-235.67-83.75c0-0.28,0.24-0.28,0.24-0.55
		c-16.69-30.68-37.74-51.22-67.06-62.95c-13.13-6.88-27.38-11.25-42.17-13.2v-37.36c53.66-46.75,95.19-115.39,117.1-196.1
		c3.46,0.01,6.93-0.55,10.36-1.67c25.49-8.01,48.94-45.69,56.21-93.92c8.61-57.42-8.71-108.43-38.97-114.84
		c-0.28-0.17-0.81-0.37-1.13-0.37c-4.99-0.9-10.08-0.49-15.12,0.97c-0.01-0.07-0.03-0.15-0.04-0.22c13.69-6.28,14.5-30.1,14.5-82.15
		c0-9.16-5.87-20.53-16.41-32.88c-5.49-105.07-80.79-134.23-118.52-130.97c-5.73,0.53-10.66,1.64-14.2,3.56
		c-9.89-16.45-22.17-30.41-36.16-41.9c-110.61-92.52-329.34-34.21-399.2,150.33c9.05-7.94,19.73-15.86,31.5-23.84
		c13.7-9.01,29.03-18.08,45.77-26.53c-0.07,0.19-0.13,0.39-0.2,0.59c-16.41,8.38-31.61,17.28-45.1,26.34c-0.27,0-0.27,0-0.27,0
		c-40.77,27.38-66.26,56.14-66.26,75.3c0,51.23,0.86,74.8,13.61,81.65c-1.1,0.24-2.14,0.65-3.2,1c-0.47,0.16-0.95,0.26-1.41,0.44
		c-1.74,0.67-3.42,1.5-5.06,2.46c-0.02,0.01-0.04,0.02-0.06,0.03c-24.33,14.34-37.02,60.06-29.26,111.03
		c4.75,32.16,16.79,59.5,31.81,76.53c4.92,5.64,10.15,10.16,15.56,13.38c0.41,0.25,0.82,0.39,1.23,0.63
		c0.03,0.01,0.05,0.03,0.08,0.04c0.47,0.26,0.94,0.47,1.41,0.72c1.22,4.66,2.52,9.28,3.87,13.87c0.02,0.08,0.04,0.16,0.07,0.24
		c23.37,79.2,65.7,146,119.76,190.91v37.7c-14.5,0.81-29.04,4.12-36.69,8.25c-29.25,11.73-50.37,32.28-67.07,62.95l-227.81,84.57
		c-0.49,0.27-1.36,0.27-1.88,0.55c-0.29,0-0.29,0.31-0.56,0.31c-22.44,7.07-38.61,26.26-38.61,48.71v383.29
		c0,28.46,26.28,51.77,58.05,51.77h970.57c32.02,0,58.06-23.3,58.06-51.77v-383.29C1445.69,1144.94,1428.16,1124.94,1404.02,1118.64
		z M854.67,281.83c0.24-0.27,0.51-0.27,0.81,0c12.32-1.12,24.34-1.95,36.66-1.95c34.56,0,69.16,5.3,102.05,14.03
		c-32.75-8.65-67.17-13.89-101.54-13.89c-13.18,0-26.33,0.84-39.39,2.27C853.73,282.14,854.19,281.97,854.67,281.83z M1009.9,298.37
		c-4.98-1.5-10-2.93-15.06-4.27C999.9,295.45,1004.92,296.86,1009.9,298.37z"/>
	<path class="st2" d="M844.77,139.62c0,0-353.29,0.97-366.26,451.67c0,0,9.73,90.91-25.93,147.72s-26.09,195.85-19.45,224.91
		c6.55,28.69-119.38,236.22-47,253.71c232.09,56.07,1015.16-13.9,1015.16-13.9s-122.05-230.05-96.12-317.4s55.11-251.46,0-368.24
		S1272.81,139.55,844.77,139.62z"/>
	<path id="XMLID_2641_" class="st3" d="M1436.04,1157.12v383.29c0,28.46-26.04,51.77-58.06,51.77H407.41
		c-31.77,0-58.05-23.3-58.05-51.77v-383.29c0-22.45,16.17-41.65,38.61-48.71c0.27,0,0.27-0.31,0.56-0.31
		c0.52-0.28,1.39-0.28,1.88-0.55l227.81-84.57c32.3,85.43,104.08,149.21,183.98,195.2c3.05-18.61,11.82-39.43,23.84-58.58
		c15.05,62.96,16.14,272.11,16.14,272.11h57.77c30.41-192.48,0-327.7,0-327.7c35.87,25.18,68.46,73.94,75.04,114.17
		c79.64-45.99,151.38-109.53,183.71-194.65l235.67,83.75C1418.51,1113.58,1436.04,1133.58,1436.04,1157.12z"/>
	<path id="XMLID_2640_" class="st4" d="M620.16,712.89c-8.28,1.53-16.62-0.36-24.6-5.2c-21.81-12.96-40.85-47.22-47.37-89.91
		c-8.71-58.13,9.19-109.61,40.29-115.21c2.79-0.48,5.72-0.64,8.36-0.11c1.76,0,3.33,0.11,4.96,0.64
		c6.63,1.57,13.28,5.23,19.46,10.71c18.18,15.94,33.41,46.73,38.99,83.88C669.1,655.83,651.03,707.32,620.16,712.89z"/>
	<path id="XMLID_2639_" class="st5" d="M1233.37,617.78c-7.27,48.23-30.72,85.91-56.21,93.92c-5.2,1.69-10.48,2.25-15.7,1.19
		c-30.9-5.57-48.98-57.06-40.08-115.2c5.37-35.24,19.17-64.8,36.29-81.22c6.13-6.12,12.69-10.39,19.49-12.68
		c5.36-1.71,10.78-2.19,16.1-1.23c0.32,0,0.85,0.2,1.13,0.37C1224.67,509.36,1241.98,560.36,1233.37,617.78z"/>
	<path id="XMLID_2638_" class="st5" d="M1066.17,995.01c-5.23,5.79-10.71,11.25-16.46,16.45c-1.92,1.65-3.83,3.57-5.72,5.21
		c-2.47,2.75-5.21,5.19-8.24,7.37c-3.29,2.73-6.57,5.49-9.84,8.24c-18.64,15.04-37.81,27.62-54.23,36.4
		c-8.48,4.4-17.21,9.05-26.29,13.44c-14.49,7.4-29.82,15.04-45.45,21.89c0,0,30.41,135.22,0,327.7v-13.94
		c0-110.61-22.73-313.76-22.73-313.76c-16.96-7.68-33.68-15.89-49.51-23.84c-7.68-3.81-15.08-7.65-22.21-11.49
		c-16.69-8.77-35.84-21.36-54.21-36.4c-3.25-2.75-6.56-5.51-9.83-8.24c-6.85-5.7-13.18-11.78-19.48-17.78l-5.73-5.76
		c-0.56-0.53-1.12-1.09-1.36-1.63c2.19-1.09,4.67-1.95,7.09-2.75V852.39h327.73v134.16
		C1055.18,989.28,1060.65,992.02,1066.17,995.01z"/>
	<path id="XMLID_2637_" class="st6" d="M1184.12,577.23v4.67c-0.25,13.68-0.8,27.38-1.92,41.06c-1.87,21.64-4.39,42.45-8.72,62.71
		c-34.8,166.72-151.69,289.64-290.26,289.64c-139.87,0-257.34-124.56-291.29-293.48c-6.31-32.02-9.86-65.73-9.86-99.93v-4.67
		c0-25.74,1.95-50.37,5.49-74.18c1.09-8.77,2.73-17.56,4.37-26.02c9.57-47.9,26.02-92.28,47.9-131.16c0,0,0,0,0.27,0
		c59.44-39.96,150.89-77.22,242.89-77.22c91.67,0,183.71,37.26,243.37,77.22c21.34,38.08,37.53,81.06,47.13,127.34
		c1.63,7.95,2.44,16.14,3.55,24.06c0.24,0.85,0.55,1.41,0.55,2.23c0.24,1.35,0.53,2.45,0.53,3.81c0.8,4.64,1.65,9.29,2.23,14.53
		c0.24,0.8,0.24,1.33,0.24,2.16c0.53,5.76,1.11,11.78,1.63,17.54C1183.06,550.7,1184.12,563.55,1184.12,577.23z"/>
	<path id="XMLID_2636_" class="st7" d="M1192.62,421.17c0,52.05-0.81,75.87-14.5,82.15c-2.45,1.36-5.75,1.92-9.6,1.92
		c-22.72,0-96.91-110.34-285.52-110.34c-167.31,0-244.79,86.8-275.72,106.48c-4.11,2.19-7.39,3.87-9.87,3.87
		c-3.84,0-7.11-0.56-9.84-2.19c-13.13-6.59-13.98-30.13-13.98-81.88c0-19.16,25.49-47.91,66.26-75.3c0,0,0,0,0.27,0
		c59.44-39.96,150.89-77.22,242.89-77.22c91.67,0,183.71,37.26,243.37,77.22C1167.17,373.26,1192.62,402.01,1192.62,421.17z"/>
	<path id="XMLID_2634_" class="st8" d="M1168.82,505.16c0,44.31-2.56,74.27-39.73,74.27c-37.16,0-77.75-87.55-245.97-87.55
		c-168.24,0-208.84,87.55-245.99,87.55c-37.15,0-39.73-29.96-39.73-74.27c2.57,0,5.76-1.43,9.77-3.73
		c31.1-19.64,108.6-106.64,275.95-106.64c167.32,0,244.81,87,275.94,106.64C1163.08,503.73,1166.26,505.16,1168.82,505.16z"/>
	<path id="XMLID_2633_" class="st9" d="M1070.79,407.22c-28.74,29.28-0.83-40.75-41.35-48.13
		c-54.77-11.25-148.67,157.46-203.41,171.16c-63.81,15.89-117.41,97.08-153.83,149.4c-15.86,22.73-38.86,45.45-65.68,57.22
		c-3.01-9.08-5.76-18.36-8.22-27.93c-1.07-0.29-1.91-0.85-2.72-1.41c-21.92-12.83-41.06-47.06-47.37-89.75
		c-8.76-57.51,8.49-108.43,39.16-115.01c2.72,1.64,6,2.2,9.87,2.2c0,44.35,2.74,74.46,39.67,74.46c5.76,0-22.2-61.8-15.62-65.62
		c34.77-19.18,89.61-257.31,231.99-257.31C986.88,256.51,1036.02,384.51,1070.79,407.22z"/>
	<path id="XMLID_2632_" class="st10" d="M1176.26,389.02c-11.51-13.68-29.04-28.74-50.93-43.54
		c-59.69-39.96-151.39-76.95-242.85-76.95c-12.32,0-24.34,0.83-36.66,1.95c-0.31-0.27-0.57-0.27-0.81,0
		c-54.23,16.13-97.47,51.19-118.85,106.78c-4.93-27.12-3.01-54.47,9.3-78.87c-24.09,11.79-41.59,31.19-53.94,54.21
		c-1.89-9.55-0.28-22.74,3.88-33.65c-16.73,8.45-32.06,17.52-45.77,26.53c-11.77,7.97-22.45,15.89-31.5,23.84
		c69.86-184.53,288.59-242.85,399.2-150.33c13.98,11.49,26.26,25.45,36.15,41.9c3.53-1.92,8.47-3.03,14.2-3.56
		C1095.51,254.06,1171.09,283.35,1176.26,389.02z"/>
	<path id="XMLID_2631_" class="st11" d="M877.21,1104.01c-19.14,13.41-37.23,33.41-50.91,55.27l-0.27,0.32
		c-12.01,19.14-20.78,39.97-23.84,58.58c-79.9-45.99-151.67-109.77-183.98-195.2c16.71-30.68,37.82-51.22,67.07-62.95
		c7.15,13.12,17.54,26.26,29.6,38.85c0.24,0.53,0.8,1.09,1.36,1.63l5.73,5.76c6.29,6,12.63,12.08,19.48,17.78
		c3.27,2.73,6.57,5.49,9.83,8.24c18.37,15.04,37.52,27.62,54.21,36.4c7.13,3.84,14.53,7.68,22.21,11.49
		C843.53,1088.12,860.25,1096.33,877.21,1104.01z"/>
	<path id="XMLID_2630_" class="st11" d="M1158.93,1022.98c0,0.27-0.24,0.27-0.24,0.55c-32.33,85.12-104.07,148.66-183.71,194.65
		c-6.59-40.23-39.17-88.99-75.04-114.17c15.62-6.85,30.96-14.49,45.45-21.89c9.08-4.38,17.81-9.04,26.29-13.44
		c16.43-8.77,35.6-21.36,54.23-36.4c3.27-2.75,6.55-5.51,9.84-8.24c3.03-2.19,5.77-4.63,8.24-7.37c1.89-1.64,3.8-3.56,5.72-5.21
		c5.76-5.2,11.24-10.67,16.46-16.45c10.39-11.49,19.14-23.25,25.7-34.98C1121.19,971.76,1142.24,992.3,1158.93,1022.98z"/>
	<path id="XMLID_2629_" class="st12" d="M899.94,1417.77v13.94h-57.77c0,0-1.09-209.14-16.14-272.11l0.27-0.32
		c13.68-21.86,31.77-41.86,50.91-55.27C877.21,1104.01,899.94,1307.15,899.94,1417.77z"/>
	<path id="XMLID_2628_" class="st13" d="M970.69,1254.62c0,10.07-8.18,18.21-18.24,18.21c-10.1,0-18.26-8.15-18.26-18.21
		c0-10.1,8.16-18.28,18.26-18.28C962.5,1236.34,970.69,1244.51,970.69,1254.62z"/>
	<path id="XMLID_2627_" class="st13" d="M964.97,1354.99c0,10.05-8.17,18.26-18.25,18.26c-10.06,0-18.24-8.21-18.24-18.26
		c0-10.1,8.17-18.26,18.24-18.26C956.8,1336.72,964.97,1344.88,964.97,1354.99z"/>
	<rect id="XMLID_2624_" x="1039.66" y="1439.39" class="st11" width="238.39" height="57.05"/>
	<path id="XMLID_2623_" class="st12" d="M721.97,951.78v44.35c-2.43,0.8-4.91,1.65-7.09,2.75c-12.05-12.59-22.45-25.73-29.6-38.85
		C692.94,955.9,707.47,952.59,721.97,951.78z"/>
	<path id="XMLID_2622_" class="st12" d="M1091.87,960.03c-6.56,11.73-15.32,23.49-25.7,34.98c-5.52-2.99-10.99-5.73-16.46-8.47
		v-39.71C1064.49,948.78,1078.74,953.15,1091.87,960.03z"/>
	<g>
		<rect x="498.77" y="1271.31" class="st14" width="209.98" height="209.98"/>
		<circle class="st15" cx="603.76" cy="1383.08" r="69.68"/>
		<g>
			<path d="M565.01,1397.79l-0.21-21.01l-0.14-21.01l0.69-0.05c0.64,3.67,1.56,7.32,2.71,10.88c1.17,3.54,2.58,7.03,4.55,10.17
				c0.99,1.56,2.13,3.03,3.52,4.21c0.68,0.61,1.45,1.09,2.24,1.51c0.81,0.37,1.66,0.67,2.51,0.73c0.84,0.04,1.63-0.24,2.21-0.84
				c0.59-0.59,0.98-1.41,1.29-2.26c0.62-1.7,0.88-3.56,1.14-5.4c0.48-3.7,0.71-7.48,1.46-11.21c0.38-1.86,0.91-3.73,1.84-5.46
				c0.47-0.85,1.04-1.69,1.8-2.36c0.74-0.64,1.61-1.31,2.81-1.32c0.59-0.02,1.15,0.29,1.58,0.62c0.4,0.37,0.72,0.8,0.96,1.24
				c0.49,0.89,0.79,1.82,1.02,2.75c0.47,1.87,0.7,3.76,0.87,5.64c0.3,3.78,0.32,7.55,0.16,11.33l-0.06-0.24l12.22,21.93l-0.55-0.02
				c1.68-2.62,2.97-5.54,3.94-8.52c0.95-3,1.57-6.11,1.68-9.26c0.13-3.14-0.25-6.31-1.17-9.34c-0.91-3.03-2.37-5.87-4.19-8.46
				c1.87,2.55,3.4,5.38,4.37,8.41c0.98,3.02,1.43,6.22,1.37,9.41c-0.05,3.19-0.61,6.36-1.55,9.41c-0.95,3.05-2.21,5.99-3.92,8.72
				l-0.28,0.45l-0.27-0.47l-12.41-21.82l-0.06-0.11l0.01-0.13c0.14-3.73,0.11-7.49-0.2-11.21c-0.17-1.85-0.4-3.71-0.86-5.49
				c-0.22-0.89-0.52-1.76-0.94-2.52c-0.41-0.76-1.02-1.39-1.74-1.37c-0.72-0.02-1.5,0.5-2.13,1.08c-0.66,0.57-1.16,1.32-1.59,2.11
				c-0.85,1.59-1.35,3.38-1.72,5.2c-0.74,3.64-0.99,7.39-1.49,11.14c-0.27,1.87-0.53,3.76-1.21,5.6c-0.34,0.91-0.77,1.84-1.51,2.59
				c-0.73,0.77-1.87,1.17-2.91,1.1c-2.06-0.19-3.82-1.21-5.29-2.47c-1.48-1.27-2.66-2.81-3.68-4.42c-2.02-3.24-3.45-6.78-4.59-10.39
				c-1.13-3.61-2.01-7.28-2.62-11.02l0.69-0.05l-0.14,21.01L565.01,1397.79z"/>
		</g>
	</g>
	<path class="st2" d="M877.21,229.21c0,0-196.02,351.52-343.13,433.44C534.08,662.65,540.77,183.25,877.21,229.21z"/>
	<path class="st2" d="M797.86,203.11c0,0,374.73,456.42,435.97,459.54c61.24,3.12-61.36-329.22-61.36-329.22L797.86,203.11z"/>
	<ellipse class="st16" cx="739.61" cy="591.97" rx="35.98" ry="47.13"/>
	<ellipse class="st16" cx="1033.77" cy="591.97" rx="35.98" ry="47.13"/>
	<path d="M1092.02,502.13c-9.74-22-30.69-36.79-54.18-38.29c-35.75-2.27-65.66,26.97-62.02,38.29
		C978.42,510.22,1000.34,515.98,1092.02,502.13"/>
	<path d="M681.36,502.13c9.74-22,30.69-36.79,54.18-38.29c35.75-2.27,65.66,26.97,62.02,38.29
		C794.96,510.22,773.04,515.98,681.36,502.13"/>
	<path class="st17" d="M927.04,684.16c-58.51-43.44-87.89,8.91-87.89,8.91"/>
	<g>
		<path class="st18" d="M765.87,779.64c1.86,2.41,3.81,4.74,5.83,7c2,2.28,4.06,4.5,6.18,6.66c4.23,4.33,8.61,8.49,13.2,12.39
			c4.56,3.93,9.31,7.63,14.23,11.06c4.92,3.42,9.98,6.64,15.23,9.48c20.89,11.48,44.59,17.68,68.24,16.37
			c5.9-0.27,11.79-0.96,17.62-2.02c5.83-1.07,11.57-2.63,17.25-4.36c5.68-1.76,11.25-3.92,16.74-6.26l4.07-1.87
			c1.36-0.62,2.71-1.25,4.05-1.94l4.02-2c1.34-0.67,2.64-1.42,3.96-2.12c21.11-11.49,40.35-26.41,58.68-42.4
			c-16.3,18.06-34.83,34.44-55.97,47.14c-5.24,3.25-10.72,6.1-16.29,8.78c-5.62,2.58-11.34,4.98-17.22,6.97
			c-5.89,1.96-11.91,3.58-18.03,4.78c-6.12,1.17-12.32,1.96-18.56,2.29c-12.48,0.57-25.07-0.78-37.13-3.98
			c-12.04-3.27-23.59-8.22-34.16-14.67c-10.63-6.36-20.3-14.15-29.06-22.74c-4.34-4.34-8.49-8.86-12.33-13.62
			C772.6,789.83,768.97,784.89,765.87,779.64z"/>
	</g>
	<g>
		<circle class="st19" cx="703.01" cy="729.82" r="49.82"/>
		<circle class="st19" cx="1070.79" cy="725.73" r="49.82"/>
	</g>
	<g>
		<path d="M927.04,684.16c-7.65-3.85-15.16-7.55-22.94-10.06l-2.91-0.93c-0.97-0.3-1.96-0.51-2.93-0.77
			c-1.94-0.56-3.92-0.85-5.88-1.25c-3.94-0.57-7.88-0.85-11.8-0.65c-7.82,0.43-15.45,2.81-22.42,6.8c-3.5,1.97-6.83,4.34-9.99,7
			c-3.18,2.64-6.19,5.56-9.02,8.78c0.74-2.02,1.75-3.94,2.85-5.8c1.1-1.87,2.34-3.66,3.7-5.37c2.7-3.43,5.87-6.55,9.44-9.2
			c7.11-5.34,15.98-8.72,25.06-9.19c4.53-0.21,9.05,0.21,13.43,1.13c2.15,0.58,4.34,1.04,6.4,1.86c1.04,0.39,2.1,0.71,3.11,1.15
			l3.01,1.36C914.09,672.76,921.11,677.98,927.04,684.16z"/>
	</g>
</g>
<rect x="1160.88" y="1316.87" class="st20" width="625.1" height="468.06"/>
<ellipse class="st21" cx="1473.43" cy="1642.76" rx="272.09" ry="9.05"/>
<g>
	<g>
		<polygon class="st22" points="1263.22,1534.53 1283.85,1534.53 1277.7,1508.55 1257.08,1508.55 		"/>
		<path class="st0" d="M1588.83,1524.97c0,0-36.99-58.73-136.37-58.73c-69.66,0-119.55,48.44-119.55,48.44l-82.82,19.85
			c-1.7,0-4.09,0.92-5.22,2.19c-4.06,4.55-12.89,16.48-17.74,38.53c-0.36,1.66,0.17,4.13,1.15,5.52l18.74,32.7h487.57
			c3.39,0,6.14-2.75,6.14-6.14c0-4.1,0-9.45,0-13.43c0-7.42-5.88-17.62-10.12-24.97C1719.28,1549.3,1663.39,1512.36,1588.83,1524.97
			z"/>
		<rect x="1379.82" y="1609.42" class="st22" width="214.2" height="4.05"/>
		<rect x="1589.6" y="1598.17" width="104.32" height="15.33"/>
		<polygon class="st22" points="1288.21,1613.47 1247.01,1613.47 1236.98,1595.96 1288.21,1600.34 		"/>
		<rect x="1280.75" y="1598.17" width="104.32" height="15.33"/>
		<g>
			
				<linearGradient id="SVGID_1_" gradientUnits="userSpaceOnUse" x1="26.2681" y1="1569.2424" x2="27.2967" y2="1569.2424" gradientTransform="matrix(-1 0 0 1 1596.2949 0)">
				<stop  offset="0" style="stop-color:#989898"/>
				<stop  offset="0.3181" style="stop-color:#B5B5B5"/>
				<stop  offset="0.7618" style="stop-color:#D9D8D8"/>
				<stop  offset="1" style="stop-color:#E6E5E5"/>
			</linearGradient>
			<rect x="1569" y="1527.85" class="st23" width="1.03" height="82.78"/>
		</g>
		<g>
			
				<linearGradient id="SVGID_2_" gradientUnits="userSpaceOnUse" x1="172.5377" y1="1545.9243" x2="173.5663" y2="1545.9243" gradientTransform="matrix(-1 0 0 1 1596.2949 0)">
				<stop  offset="0" style="stop-color:#989898"/>
				<stop  offset="0.3181" style="stop-color:#B5B5B5"/>
				<stop  offset="0.7618" style="stop-color:#D9D8D8"/>
				<stop  offset="1" style="stop-color:#E6E5E5"/>
			</linearGradient>
			<rect x="1422.73" y="1481.22" class="st24" width="1.03" height="129.42"/>
		</g>
		<path class="st25" d="M1277.69,1599.44c0.03-30.43,24.79-56.75,55.22-56.75c21.31,0,40.94,12.5,50.02,31.84l0.09,0.2l4.46,14.73
			l0.03,0.21c0.42,2.71,0.63,16.89,0.63,19.62L1277.69,1599.44z"/>
		<polygon class="st22" points="1240.87,1514.69 1289.54,1514.69 1286.86,1502.4 1229.56,1502.4 		"/>
		<g>
			
				<linearGradient id="SVGID_3_" gradientUnits="userSpaceOnUse" x1="-131.036" y1="1564.7466" x2="-89.9044" y2="1564.7466" gradientTransform="matrix(-1 0 0 1 1596.2949 0)">
				<stop  offset="0" style="stop-color:#FFFFFF"/>
				<stop  offset="0.0598" style="stop-color:#EAEAEA"/>
				<stop  offset="0.2445" style="stop-color:#B0B0B0"/>
				<stop  offset="0.4229" style="stop-color:#808080"/>
				<stop  offset="0.5908" style="stop-color:#5A5A5A"/>
				<stop  offset="0.7455" style="stop-color:#3F3F3F"/>
				<stop  offset="0.8825" style="stop-color:#2F2F2F"/>
				<stop  offset="0.9873" style="stop-color:#292929"/>
			</linearGradient>
			<path class="st26" d="M1723.45,1562.87c-5.06-8.22-17.14-13.92-36.02-13.98c-5.39-0.02,6.76,30.87,39.9,31.71
				C1727.33,1580.6,1725.83,1566.74,1723.45,1562.87z"/>
			<path class="st15" d="M1725.14,1578.56c-0.69-5.26-1.98-12.46-3.33-14.67c-5.01-8.13-17.26-12.87-33.67-13.05
				c0.02,1.29,0.84,4.66,4,9.32C1695.66,1565.35,1705.78,1577.23,1725.14,1578.56z"/>
			<g>
				<path class="st15" d="M1703.22,1566.21c-1.14-0.25-3.31-2.57-1.44-4.09c1.88-1.53,1.34-4.09,1.45-5.18
					c0.11-1.1,2.46-1.27,4.02,0.67C1708.82,1559.55,1711.42,1568,1703.22,1566.21z"/>
				<path class="st27" d="M1703.33,1565.88c-1.06-0.23-3.07-2.38-1.33-3.79c1.74-1.42,1.24-3.79,1.34-4.8
					c0.11-1.02,2.28-1.18,3.73,0.62C1708.52,1559.71,1710.92,1567.53,1703.33,1565.88z"/>
				<path class="st28" d="M1703.44,1565.54c-0.97-0.21-2.83-2.19-1.22-3.49c1.61-1.3,1.14-3.49,1.24-4.42
					c0.1-0.94,2.1-1.08,3.43,0.57C1708.22,1559.86,1710.43,1567.06,1703.44,1565.54z"/>
				<path class="st29" d="M1703.55,1565.2c-0.89-0.19-2.58-2-1.12-3.18c1.47-1.19,1.04-3.18,1.13-4.03
					c0.09-0.86,1.91-0.99,3.13,0.52C1707.91,1560.02,1709.93,1566.59,1703.55,1565.2z"/>
				<path class="st30" d="M1703.66,1564.87c-0.81-0.18-2.34-1.81-1.01-2.88c1.33-1.08,0.94-2.88,1.02-3.65
					c0.08-0.77,1.73-0.9,2.84,0.47C1707.61,1560.17,1709.44,1566.13,1703.66,1564.87z"/>
				<path class="st31" d="M1703.77,1564.53c-0.72-0.16-2.09-1.62-0.91-2.58c1.19-0.96,0.84-2.58,0.92-3.27
					c0.07-0.69,1.55-0.8,2.54,0.42C1707.3,1560.33,1708.94,1565.66,1703.77,1564.53z"/>
				<path class="st32" d="M1703.88,1564.2c-0.64-0.14-1.85-1.43-0.8-2.28c1.05-0.85,0.75-2.28,0.81-2.89
					c0.06-0.61,1.37-0.71,2.24,0.37C1707,1560.48,1708.45,1565.19,1703.88,1564.2z"/>
				<path class="st33" d="M1703.99,1563.86c-0.56-0.12-1.6-1.24-0.7-1.98c0.91-0.74,0.65-1.98,0.7-2.51
					c0.05-0.53,1.19-0.61,1.95,0.32C1706.7,1560.63,1707.95,1564.73,1703.99,1563.86z"/>
				<path class="st34" d="M1704.09,1563.52c-0.47-0.1-1.36-1.05-0.59-1.68c0.77-0.63,0.55-1.68,0.59-2.13
					c0.05-0.45,1.01-0.52,1.65,0.27C1706.39,1560.79,1707.45,1564.27,1704.09,1563.52z"/>
				<path class="st35" d="M1704.2,1563.19c-0.39-0.09-1.12-0.87-0.48-1.38c0.63-0.51,0.45-1.38,0.49-1.74
					c0.04-0.37,0.83-0.43,1.35,0.22C1706.09,1560.94,1706.96,1563.8,1704.2,1563.19z"/>
				<path class="st36" d="M1704.31,1562.85c-0.3-0.07-0.87-0.68-0.38-1.08c0.49-0.4,0.35-1.08,0.38-1.36
					c0.03-0.29,0.65-0.33,1.06,0.17C1705.79,1561.1,1706.46,1563.34,1704.31,1562.85z"/>
				<path class="st37" d="M1704.42,1562.51c-0.22-0.05-0.63-0.49-0.27-0.78c0.35-0.29,0.25-0.77,0.27-0.98
					c0.02-0.21,0.47-0.24,0.76,0.13C1705.48,1561.25,1705.97,1562.84,1704.42,1562.51z"/>
			</g>
			<g>
				<path class="st15" d="M1718.13,1569.51c-1.65,3.59-5.44,5.36-8.48,3.97c-3.04-1.4-4.17-5.43-2.53-9.02
					c1.65-3.59,5.45-5.37,8.49-3.97C1718.65,1561.88,1719.78,1565.92,1718.13,1569.51z"/>
				<path class="st27" d="M1717.82,1569.36c-1.55,3.38-5.13,5.06-8,3.74c-2.87-1.32-3.94-5.13-2.38-8.51
					c1.56-3.39,5.14-5.06,8.01-3.75C1718.31,1562.17,1719.37,1565.98,1717.82,1569.36z"/>
				<path class="st28" d="M1717.51,1569.22c-1.46,3.18-4.83,4.75-7.52,3.52c-2.7-1.24-3.7-4.82-2.24-8
					c1.47-3.19,4.83-4.76,7.53-3.52C1717.97,1562.46,1718.97,1566.04,1717.51,1569.22z"/>
				<path class="st29" d="M1717.2,1569.08c-1.37,2.98-4.52,4.45-7.04,3.3c-2.53-1.16-3.46-4.51-2.1-7.49
					c1.37-2.98,4.52-4.46,7.05-3.3C1717.63,1562.75,1718.56,1566.1,1717.2,1569.08z"/>
				<path class="st30" d="M1716.89,1568.94c-1.27,2.77-4.21,4.15-6.56,3.07c-2.36-1.08-3.23-4.21-1.96-6.98
					c1.28-2.78,4.22-4.15,6.57-3.07C1717.29,1563.03,1718.16,1566.16,1716.89,1568.94z"/>
				<path class="st31" d="M1716.58,1568.79c-1.18,2.57-3.9,3.85-6.08,2.85c-2.18-1.01-2.99-3.9-1.81-6.47
					c1.18-2.58,3.91-3.85,6.09-2.85C1716.95,1563.32,1717.76,1566.22,1716.58,1568.79z"/>
				<path class="st32" d="M1716.27,1568.65c-1.09,2.37-3.6,3.54-5.61,2.62c-2.01-0.93-2.76-3.59-1.67-5.96
					c1.09-2.37,3.6-3.55,5.61-2.62C1716.61,1563.61,1717.35,1566.28,1716.27,1568.65z"/>
				<path class="st33" d="M1715.95,1568.51c-0.99,2.17-3.29,3.24-5.13,2.4c-1.84-0.85-2.52-3.29-1.53-5.46
					c1-2.17,3.29-3.25,5.13-2.4C1716.27,1563.9,1716.95,1566.34,1715.95,1568.51z"/>
				<path class="st34" d="M1715.64,1568.37c-0.9,1.96-2.98,2.94-4.65,2.18c-1.67-0.77-2.29-2.98-1.38-4.95
					c0.9-1.97,2.99-2.94,4.65-2.18C1715.93,1564.19,1716.55,1566.4,1715.64,1568.37z"/>
				<path class="st35" d="M1715.33,1568.23c-0.81,1.76-2.68,2.63-4.17,1.95c-1.49-0.69-2.05-2.68-1.24-4.44
					c0.81-1.76,2.68-2.64,4.18-1.95C1715.59,1564.47,1716.14,1566.46,1715.33,1568.23z"/>
				<path class="st36" d="M1715.02,1568.08c-0.71,1.56-2.37,2.33-3.69,1.73c-1.32-0.61-1.82-2.37-1.1-3.93
					c0.72-1.56,2.37-2.34,3.7-1.73C1715.25,1564.76,1715.74,1566.52,1715.02,1568.08z"/>
				<path class="st37" d="M1714.71,1567.94c-0.62,1.35-2.06,2.03-3.21,1.5c-1.15-0.53-1.58-2.06-0.96-3.42
					c0.62-1.36,2.07-2.03,3.22-1.5C1714.91,1565.05,1715.34,1566.58,1714.71,1567.94z"/>
			</g>
			<path class="st38" d="M1697.18,1555.32c-0.04-0.66-1.47-5.02-3.25-1.34c-1.78,3.68,0.27,7.62,2.63,7.3
				C1698.66,1561,1697.3,1557.13,1697.18,1555.32z"/>
		</g>
		<g>
			<path d="M1641.76,1546.01c20.87,0,38.91,12.33,47.24,30.07l4.33,14.31c0.39,2.54,0.6,5.14,0.6,7.78c-5.92,0-9.93,0-9.93,0h-94.39
				C1589.6,1569.41,1613,1546.01,1641.76,1546.01z"/>
			
				<radialGradient id="SVGID_4_" cx="-45.4608" cy="1598.1677" r="44.7018" gradientTransform="matrix(-1 0 0 1 1596.2949 0)" gradientUnits="userSpaceOnUse">
				<stop  offset="0.8558" style="stop-color:#303031"/>
				<stop  offset="0.8699" style="stop-color:#353435"/>
				<stop  offset="0.9483" style="stop-color:#49484A"/>
				<stop  offset="1" style="stop-color:#514F51"/>
			</radialGradient>
			<path class="st39" d="M1597.06,1598.17c0,24.69,20.01,44.7,44.7,44.7c24.69,0,44.7-20.01,44.7-44.7
				c0-24.69-20.01-44.71-44.7-44.71C1617.07,1553.46,1597.06,1573.48,1597.06,1598.17z"/>
			
				<radialGradient id="SVGID_5_" cx="-45.4624" cy="1598.1661" r="29.1228" gradientTransform="matrix(-1 0 0 1 1596.2949 0)" gradientUnits="userSpaceOnUse">
				<stop  offset="0" style="stop-color:#FFFFFF"/>
				<stop  offset="0.0651" style="stop-color:#F7F7F7"/>
				<stop  offset="0.1737" style="stop-color:#EFEFEF"/>
				<stop  offset="0.6285" style="stop-color:#EFEFEF"/>
				<stop  offset="0.7034" style="stop-color:#EFEFEF"/>
				<stop  offset="0.8455" style="stop-color:#EDEDED"/>
				<stop  offset="0.8967" style="stop-color:#E6E6E6"/>
				<stop  offset="0.9332" style="stop-color:#DBDBDB"/>
				<stop  offset="0.9627" style="stop-color:#CACACA"/>
				<stop  offset="0.9876" style="stop-color:#B5B5B4"/>
				<stop  offset="1" style="stop-color:#A7A7A6"/>
			</radialGradient>
			<path class="st40" d="M1641.76,1627.29c16.07,0,29.13-13.06,29.13-29.13c0-16.06-13.06-29.11-29.13-29.11
				c-16.06,0-29.12,13.06-29.12,29.11C1612.63,1614.22,1625.7,1627.29,1641.76,1627.29z"/>
			<g>
				<path d="M1634.76,1573.61c0-1.78,3.14-3.22,7-3.22c3.87,0,7,1.44,7,3.22c0,0.3-7.01,21.67-7.01,21.67
					S1634.76,1573.9,1634.76,1573.61z"/>
				<path d="M1659.53,1579.83c1.54-0.88,4.36,1.11,6.29,4.45c1.93,3.35,2.26,6.78,0.71,7.68c-0.26,0.15-22.27,4.76-22.27,4.76
					S1659.27,1579.98,1659.53,1579.83z"/>
				<path d="M1666.53,1604.39c1.54,0.89,1.22,4.32-0.71,7.67c-1.93,3.35-4.75,5.35-6.29,4.46c-0.26-0.15-15.26-16.9-15.26-16.9
					S1666.27,1604.24,1666.53,1604.39z"/>
				<path d="M1648.76,1622.73c0,1.78-3.14,3.22-7,3.22c-3.87,0-7.01-1.44-7.01-3.22c0-0.29,7.01-21.67,7.01-21.67
					S1648.76,1622.43,1648.76,1622.73z"/>
				<path d="M1623.99,1616.51c-1.54,0.89-4.36-1.11-6.29-4.45c-1.93-3.35-2.26-6.79-0.71-7.68c0.25-0.15,22.27-4.76,22.27-4.76
					S1624.24,1616.36,1623.99,1616.51z"/>
				<path d="M1616.99,1591.95c-1.54-0.89-1.22-4.33,0.71-7.67c1.93-3.35,4.75-5.35,6.29-4.46c0.26,0.14,15.26,16.91,15.26,16.91
					S1617.24,1592.1,1616.99,1591.95z"/>
				<path d="M1653.34,1575.09l-11.82,22.93c-0.07,0.14-0.02,0.31,0.12,0.39c0.13,0.07,0.29,0.02,0.37-0.09l14.5-21.34
					c0.57-0.84,0.36-1.99-0.49-2.56c-0.84-0.57-1.99-0.35-2.56,0.49C1653.41,1574.96,1653.37,1575.03,1653.34,1575.09z"/>
				<path d="M1667.53,1596.66l-25.77,1.22c-0.16,0.01-0.28,0.14-0.27,0.3c0.01,0.14,0.12,0.26,0.27,0.27l25.73,1.89
					c1.02,0.07,1.9-0.69,1.98-1.7c0.07-1.02-0.69-1.9-1.71-1.98C1667.69,1596.66,1667.6,1596.66,1667.53,1596.66z"/>
				<path d="M1655.95,1619.74l-13.95-21.71c-0.09-0.13-0.26-0.17-0.39-0.09c-0.12,0.08-0.16,0.24-0.1,0.36l11.23,23.23
					c0.44,0.92,1.55,1.3,2.47,0.86c0.92-0.44,1.3-1.55,0.86-2.47C1656.03,1619.87,1655.99,1619.8,1655.95,1619.74z"/>
				<path d="M1630.18,1621.24l11.82-22.93c0.07-0.14,0.02-0.32-0.12-0.39c-0.13-0.07-0.29-0.02-0.37,0.09l-14.5,21.34
					c-0.57,0.84-0.36,1.99,0.49,2.56c0.84,0.57,1.99,0.35,2.56-0.49C1630.1,1621.38,1630.15,1621.31,1630.18,1621.24z"/>
				<path d="M1615.99,1599.68l25.77-1.23c0.16-0.01,0.28-0.14,0.27-0.3c-0.01-0.14-0.12-0.26-0.27-0.27l-25.73-1.89
					c-1.02-0.07-1.9,0.69-1.98,1.71c-0.08,1.02,0.69,1.9,1.7,1.98C1615.83,1599.68,1615.92,1599.68,1615.99,1599.68z"/>
				<path d="M1627.56,1576.61l13.95,21.7c0.09,0.14,0.26,0.17,0.39,0.09c0.12-0.08,0.16-0.24,0.1-0.36l-11.23-23.22
					c-0.44-0.92-1.55-1.3-2.47-0.86c-0.92,0.44-1.3,1.55-0.86,2.47C1627.48,1576.48,1627.52,1576.55,1627.56,1576.61z"/>
			</g>
		</g>
		<path class="st22" d="M1719.14,1592.34h21.58c0,3.84,0,8.61,0,12.36c0,0.74-0.1,1.44-0.27,2.1h-26.47L1719.14,1592.34z"/>
		<polygon class="st15" points="1719.65,1603.52 1722.71,1603.52 1724.24,1594.97 1721.18,1594.97 		"/>
		<polygon class="st38" points="1720.22,1600.34 1723.28,1600.34 1722.71,1603.52 1719.65,1603.52 		"/>
		
			<linearGradient id="SVGID_6_" gradientUnits="userSpaceOnUse" x1="38.2509" y1="1480.3119" x2="38.2509" y2="1526.1768" gradientTransform="matrix(-1 0 0 1 1596.2949 0)">
			<stop  offset="0" style="stop-color:#5F5A5E"/>
			<stop  offset="0.2754" style="stop-color:#262529"/>
			<stop  offset="0.4741" style="stop-color:#29282C"/>
			<stop  offset="0.6249" style="stop-color:#333135"/>
			<stop  offset="0.7595" style="stop-color:#434044"/>
			<stop  offset="0.8093" style="stop-color:#4B484B"/>
		</linearGradient>
		<path class="st41" d="M1581.33,1521.54c-9.97-8.77-37.02-26.11-51.48-34.66c-6.45-3.81-5.3-5.46-1.21-6.79
			c42.9,17.42,60.2,44.88,60.2,44.88c0.66-0.11,1.32-0.19,1.98-0.3C1589.26,1527.08,1586.99,1526.53,1581.33,1521.54z"/>
		
			<linearGradient id="SVGID_7_" gradientUnits="userSpaceOnUse" x1="97.9982" y1="1476.8666" x2="97.9982" y2="1529.6637" gradientTransform="matrix(-1 0 0 1 1596.2949 0)">
			<stop  offset="0" style="stop-color:#5F5A5E"/>
			<stop  offset="0.2754" style="stop-color:#262529"/>
			<stop  offset="0.4741" style="stop-color:#29282C"/>
			<stop  offset="0.6249" style="stop-color:#333135"/>
			<stop  offset="0.7595" style="stop-color:#434044"/>
			<stop  offset="0.8093" style="stop-color:#4B484B"/>
		</linearGradient>
		<path class="st42" d="M1500.02,1478.29c3.36,0.49,7.92,3.42,10.66,5.43l57.72,42.18c2.74,2,2.21,3.63-1.18,3.63h-134.63
			c-3.39,0-6.14-2.75-6.14-6.14v-43.29c0-1.92,17.75-3.48,39.64-3.48C1480.48,1476.61,1493.08,1477.28,1500.02,1478.29z"/>
		
			<linearGradient id="SVGID_8_" gradientUnits="userSpaceOnUse" x1="204.6901" y1="1481.452" x2="204.6901" y2="1529.6517" gradientTransform="matrix(-1 0 0 1 1596.2949 0)">
			<stop  offset="0" style="stop-color:#5F5A5E"/>
			<stop  offset="0.2754" style="stop-color:#262529"/>
			<stop  offset="0.4741" style="stop-color:#29282C"/>
			<stop  offset="0.6249" style="stop-color:#333135"/>
			<stop  offset="0.7595" style="stop-color:#434044"/>
			<stop  offset="0.8093" style="stop-color:#4B484B"/>
		</linearGradient>
		<path class="st43" d="M1368.57,1529.53h43.52c3.39,0,6.14-2.75,6.14-6.14v-37.15c0-3.39-2.69-5.58-6.01-4.89l-14.11,2.95
			c-3.32,0.69-7.55,3.54-9.45,6.35l-22.81,33.79C1363.97,1527.25,1365.18,1529.53,1368.57,1529.53z"/>
		
			<linearGradient id="SVGID_9_" gradientUnits="userSpaceOnUse" x1="342.8543" y1="1551.4716" x2="363.4877" y2="1551.4716" gradientTransform="matrix(-1 0 0 1 1596.2949 0)">
			<stop  offset="0" style="stop-color:#DA2A24"/>
			<stop  offset="1" style="stop-color:#A01916"/>
		</linearGradient>
		<path class="st44" d="M1238.19,1546.04h15.25v10.87h-20.63C1234.58,1552.62,1236.43,1549.02,1238.19,1546.04z"/>
		<g>
			<path d="M1332.91,1545.9c20.87,0,38.91,12.33,47.24,30.07l4.33,14.31c0.39,2.54,0.6,16.85,0.6,19.49
				c-5.92,0-104.32-7.04-104.32-7.04C1280.76,1573.98,1304.15,1545.9,1332.91,1545.9z"/>
			
				<radialGradient id="SVGID_10_" cx="263.3826" cy="1598.0596" r="44.7018" gradientTransform="matrix(-1 0 0 1 1596.2949 0)" gradientUnits="userSpaceOnUse">
				<stop  offset="0.8558" style="stop-color:#303031"/>
				<stop  offset="0.8699" style="stop-color:#353435"/>
				<stop  offset="0.9483" style="stop-color:#49484A"/>
				<stop  offset="1" style="stop-color:#514F51"/>
			</radialGradient>
			<path class="st45" d="M1288.21,1598.06c0,24.69,20.01,44.7,44.7,44.7c24.69,0,44.7-20.01,44.7-44.7
				c0-24.69-20.01-44.71-44.7-44.71C1308.23,1553.36,1288.21,1573.37,1288.21,1598.06z"/>
			
				<radialGradient id="SVGID_11_" cx="263.3811" cy="1598.0581" r="29.1228" gradientTransform="matrix(-1 0 0 1 1596.2949 0)" gradientUnits="userSpaceOnUse">
				<stop  offset="0" style="stop-color:#FFFFFF"/>
				<stop  offset="0.0651" style="stop-color:#F7F7F7"/>
				<stop  offset="0.1737" style="stop-color:#EFEFEF"/>
				<stop  offset="0.6285" style="stop-color:#EFEFEF"/>
				<stop  offset="0.7034" style="stop-color:#EFEFEF"/>
				<stop  offset="0.8455" style="stop-color:#EDEDED"/>
				<stop  offset="0.8967" style="stop-color:#E6E6E6"/>
				<stop  offset="0.9332" style="stop-color:#DBDBDB"/>
				<stop  offset="0.9627" style="stop-color:#CACACA"/>
				<stop  offset="0.9876" style="stop-color:#B5B5B4"/>
				<stop  offset="1" style="stop-color:#A7A7A6"/>
			</radialGradient>
			<path class="st46" d="M1332.91,1627.18c16.07,0,29.13-13.06,29.13-29.13c0-16.06-13.06-29.11-29.13-29.11
				c-16.06,0-29.12,13.06-29.12,29.11C1303.79,1614.11,1316.86,1627.18,1332.91,1627.18z"/>
			<g>
				<path d="M1325.91,1573.5c0-1.78,3.14-3.22,7-3.22c3.87,0,7,1.44,7,3.22c0,0.3-7.01,21.67-7.01,21.67
					S1325.91,1573.79,1325.91,1573.5z"/>
				<path d="M1350.68,1579.72c1.54-0.88,4.36,1.11,6.29,4.45c1.93,3.35,2.26,6.78,0.71,7.68c-0.26,0.15-22.27,4.76-22.27,4.76
					S1350.43,1579.87,1350.68,1579.72z"/>
				<path d="M1357.68,1604.28c1.54,0.89,1.22,4.33-0.71,7.67c-1.93,3.35-4.75,5.35-6.29,4.46c-0.26-0.15-15.26-16.9-15.26-16.9
					S1357.42,1604.13,1357.68,1604.28z"/>
				<path d="M1339.91,1622.62c0,1.78-3.14,3.22-7,3.22c-3.87,0-7.01-1.44-7.01-3.22c0-0.29,7.01-21.67,7.01-21.67
					S1339.91,1622.32,1339.91,1622.62z"/>
				<path d="M1315.14,1616.4c-1.54,0.89-4.36-1.11-6.29-4.45c-1.93-3.35-2.26-6.79-0.71-7.68c0.25-0.15,22.27-4.76,22.27-4.76
					S1315.4,1616.25,1315.14,1616.4z"/>
				<path d="M1308.14,1591.84c-1.54-0.89-1.22-4.33,0.71-7.67c1.93-3.35,4.75-5.35,6.29-4.46c0.26,0.14,15.26,16.91,15.26,16.91
					S1308.4,1591.99,1308.14,1591.84z"/>
				<path d="M1344.49,1574.98l-11.82,22.93c-0.07,0.14-0.02,0.32,0.12,0.39c0.13,0.07,0.29,0.02,0.37-0.09l14.5-21.34
					c0.57-0.84,0.36-1.99-0.49-2.56c-0.84-0.57-1.99-0.35-2.56,0.49C1344.57,1574.85,1344.52,1574.91,1344.49,1574.98z"/>
				<path d="M1358.69,1596.55l-25.77,1.23c-0.16,0.01-0.28,0.14-0.27,0.3c0.01,0.14,0.12,0.26,0.27,0.27l25.73,1.89
					c1.02,0.07,1.9-0.69,1.98-1.71c0.07-1.02-0.69-1.9-1.71-1.98C1358.84,1596.55,1358.76,1596.55,1358.69,1596.55z"/>
				<path d="M1347.11,1619.63l-13.95-21.71c-0.09-0.14-0.26-0.17-0.39-0.09c-0.12,0.08-0.17,0.24-0.1,0.36l11.23,23.23
					c0.44,0.92,1.55,1.3,2.47,0.86c0.92-0.44,1.3-1.55,0.86-2.47C1347.19,1619.76,1347.14,1619.68,1347.11,1619.63z"/>
				<path d="M1321.33,1621.13l11.82-22.93c0.07-0.14,0.02-0.31-0.12-0.39c-0.13-0.07-0.29-0.02-0.37,0.09l-14.5,21.34
					c-0.57,0.84-0.36,1.99,0.49,2.56c0.84,0.57,1.99,0.35,2.56-0.49C1321.26,1621.27,1321.3,1621.2,1321.33,1621.13z"/>
				<path d="M1307.14,1599.57l25.77-1.23c0.16-0.01,0.28-0.14,0.27-0.3c-0.01-0.14-0.12-0.26-0.27-0.27l-25.73-1.89
					c-1.02-0.08-1.9,0.69-1.98,1.7c-0.07,1.02,0.69,1.9,1.71,1.98C1306.99,1599.57,1307.07,1599.57,1307.14,1599.57z"/>
				<path d="M1318.72,1576.49l13.95,21.7c0.09,0.14,0.26,0.17,0.39,0.09c0.12-0.08,0.16-0.24,0.1-0.36l-11.23-23.22
					c-0.44-0.92-1.55-1.3-2.47-0.86c-0.92,0.44-1.3,1.55-0.86,2.47C1318.64,1576.37,1318.68,1576.44,1318.72,1576.49z"/>
			</g>
		</g>
		<g>
			<path class="st47" d="M1466.08,1479.68c13.66,0,26.5,0.63,33.5,1.65c2.03,0.3,5.59,2.16,9.29,4.87l15.37,11.24l-94.72-2.4v-13.16
				C1433.53,1480.88,1446.28,1479.68,1466.08,1479.68z"/>
			<path d="M1563.95,1526.45h-131.36c-1.69,0-3.07-1.38-3.07-3.07v-28.36l94.72,2.4L1563.95,1526.45z"/>
			<path d="M1390.1,1494.03l25.07,0.64v28.72c0,1.69-1.38,3.07-3.07,3.07h-43.52c-0.13,0-0.24-0.01-0.34-0.02
				c0.05-0.09,0.11-0.18,0.18-0.29L1390.1,1494.03z"/>
			<path class="st47" d="M1391.22,1492.36c1.46-2.17,4.98-4.53,7.53-5.06l14.11-2.95c0.2-0.04,0.4-0.06,0.58-0.06
				c1.08,0,1.73,0.73,1.73,1.94v8.43l-25.07-0.64L1391.22,1492.36z"/>
		</g>
		<g>
			<polygon class="st22" points="1550.97,1517.18 1556.14,1522.75 1552.87,1525.9 1545.79,1523.58 			"/>
			<path class="st22" d="M1531.71,1520.61l2.22-16.41c0.41-2.95,4-4.52,7.82-3.12c8.24,3.03,11.4,20.26,11,21.03
				c-2.18,4.24-7.76,3.94-14.28,3.92C1534.34,1526.03,1531.31,1523.57,1531.71,1520.61z"/>
			<path class="st22" d="M1531.71,1520.61l2.22-16.41c0.41-2.95,4-4.52,7.82-3.12c8.24,3.03,11.4,20.26,11,21.03
				c-2.18,4.24-7.76,3.94-14.28,3.92C1534.34,1526.03,1531.31,1523.57,1531.71,1520.61z"/>
			<path class="st22" d="M1531.71,1520.61l2.22-16.41c0.41-2.95,4-4.52,7.82-3.12c8.24,3.03,11.4,20.26,11,21.03
				c-2.18,4.24-7.76,3.94-14.28,3.92C1534.34,1526.03,1531.31,1523.57,1531.71,1520.61z"/>
		</g>
		<g>
			<g>
				<path class="st48" d="M1433.96,1556.9c0-3.71,4.79-6.62,10.92-6.62c6.12,0,10.92,2.91,10.92,6.62c0,3.71-4.8,6.63-10.92,6.63
					C1438.76,1563.53,1433.96,1560.61,1433.96,1556.9z M1435.9,1556.9c0,2.53,4.12,4.68,8.98,4.68c4.87,0,8.98-2.14,8.98-4.68
					c0-2.53-4.11-4.67-8.98-4.67C1440.02,1552.23,1435.9,1554.37,1435.9,1556.9z"/>
			</g>
			<g>
				
					<linearGradient id="SVGID_12_" gradientUnits="userSpaceOnUse" x1="151.4204" y1="1550.1252" x2="151.4204" y2="1564.3153" gradientTransform="matrix(-1 0 0 1 1596.2949 0)">
					<stop  offset="0" style="stop-color:#A7A7A6"/>
					<stop  offset="0.1273" style="stop-color:#A9A9A8"/>
					<stop  offset="0.1752" style="stop-color:#B0B0AF"/>
					<stop  offset="0.2096" style="stop-color:#BBBBBB"/>
					<stop  offset="0.2376" style="stop-color:#CCCCCC"/>
					<stop  offset="0.2615" style="stop-color:#E2E2E2"/>
					<stop  offset="0.2669" style="stop-color:#E8E8E8"/>
					<stop  offset="0.5381" style="stop-color:#F1F1F1"/>
					<stop  offset="0.6992" style="stop-color:#DDDEDE"/>
					<stop  offset="0.7523" style="stop-color:#C5C6C6"/>
					<stop  offset="0.8515" style="stop-color:#9E9E9E"/>
					<stop  offset="0.9305" style="stop-color:#868686"/>
					<stop  offset="0.9788" style="stop-color:#7D7D7D"/>
				</linearGradient>
				<path class="st49" d="M1434.93,1556.9c0,3.12,4.45,5.65,9.95,5.65c5.5,0,9.94-2.53,9.94-5.65c0-3.12-4.44-5.64-9.94-5.64
					C1439.38,1551.26,1434.93,1553.78,1434.93,1556.9z"/>
				<g>
					
						<linearGradient id="SVGID_13_" gradientUnits="userSpaceOnUse" x1="171.5229" y1="1578.4471" x2="171.5229" y2="1583.5636" gradientTransform="matrix(-1 -3.500000e-03 -3.500000e-03 1 1622.2535 -24.1386)">
						<stop  offset="0" style="stop-color:#989898"/>
						<stop  offset="0.2585" style="stop-color:#EAEAEA"/>
						<stop  offset="0.6907" style="stop-color:#5D5D5D"/>
					</linearGradient>
					<path class="st50" d="M1430.95,1556.85c-0.01,1.11,0.88,2.02,1.99,2.02l24.8,0.08c1.1,0,1.99-0.89,1.99-1.99l0,0
						c0.01-1.12-0.88-2.02-1.98-2.02l-24.88-1.19C1431.77,1553.75,1429.96,1554.45,1430.95,1556.85L1430.95,1556.85z"/>
				</g>
			</g>
		</g>
	</g>
</g>
</svg>
