<?xml version="1.0" encoding="utf-8"?>
<!-- Generator: Adobe Illustrator 23.0.0, SVG Export Plug-In . SVG Version: 6.00 Build 0)  -->
<svg version="1.1" id="Camada_1" xmlns="http://www.w3.org/2000/svg" xmlns:xlink="http://www.w3.org/1999/xlink" x="0px" y="0px"
	 viewBox="0 0 1800 1800" style="enable-background:new 0 0 1800 1800;" xml:space="preserve">
<style type="text/css">
	.st0{fill:#45B8EA;}
	.st1{opacity:0.5;fill:#808080;}
	.st2{fill:#E63C1E;}
	.st3{fill:#F3CBA2;}
	.st4{fill:#84543B;}
	.st5{fill:#8D5B3F;}
	.st6{opacity:0.6;fill:#84543B;}
	.st7{fill:#E74527;}
	.st8{fill:#C33917;}
	.st9{fill:#E95A1C;}
	.st10{fill:#FCCB68;}
	.st11{fill:#FFFFFF;}
	.st12{stroke:#1D1E1C;stroke-linecap:round;stroke-linejoin:round;stroke-miterlimit:10;}
	.st13{opacity:0.5;fill:#986230;}
	.st14{fill:#1D1E1C;}
	.st15{opacity:0.1;fill:#EC686A;}
	.st16{fill:#FFEBC9;stroke:#CDA058;stroke-miterlimit:10;}
	.st17{fill:none;stroke:#1D1E1C;stroke-miterlimit:10;}
	.st18{fill:#FBC61C;}
	.st19{opacity:0.2;fill:#1D1D1B;}
	.st20{fill:#1E9BC5;}
	.st21{fill:url(#SVGID_1_);}
	.st22{fill:#3092CB;}
	.st23{fill:url(#SVGID_2_);}
	.st24{fill:url(#SVGID_3_);}
	.st25{fill:url(#SVGID_4_);}
	.st26{fill:#FCFBFA;}
	.st27{fill:#F9F7F4;}
	.st28{fill:#F7F3EF;}
	.st29{fill:#F3EFE9;}
	.st30{fill:#F1EAE3;}
	.st31{fill:#EEE7DE;}
	.st32{fill:#EBE3D8;}
	.st33{fill:#E8DED3;}
	.st34{fill:#E5DBCE;}
	.st35{fill:#E3D7C8;}
	.st36{fill:#DFD2C2;}
	.st37{fill:#F6B9AB;}
	.st38{fill:url(#SVGID_5_);}
	.st39{fill:url(#SVGID_6_);}
	.st40{fill:url(#SVGID_7_);}
	.st41{fill:url(#SVGID_8_);}
	.st42{fill:url(#SVGID_9_);}
	.st43{fill:url(#SVGID_10_);}
	.st44{fill:url(#SVGID_11_);}
	.st45{fill:url(#SVGID_12_);}
	.st46{fill:#484747;}
	.st47{fill:url(#SVGID_13_);}
	.st48{fill:#0E87C9;}
	.st49{fill:url(#SVGID_14_);}
	.st50{fill:url(#SVGID_15_);}
	.st51{fill:#C9C8C8;}
	.st52{fill:url(#SVGID_16_);}
	.st53{fill:url(#SVGID_17_);}
</style>
<rect x="2.38" class="st0" width="1800" height="1800"/>
<g>
	<path id="XMLID_15_" class="st1" d="M1403.88,1176.63l-235.89-83.82c0-0.28,0.24-0.28,0.24-0.55
		c-16.71-30.7-37.78-51.27-67.12-63.01c-13.14-6.89-27.41-11.26-42.2-13.21v-37.4c53.71-46.79,95.28-115.49,117.21-196.28
		c3.47,0.01,6.94-0.55,10.37-1.67c25.51-8.02,48.98-45.73,56.26-94.01c8.62-57.47-8.71-108.52-39-114.94
		c-0.28-0.17-0.81-0.37-1.13-0.37c-5-0.9-10.09-0.49-15.13,0.97c-0.01-0.07-0.03-0.15-0.04-0.23c13.7-6.28,14.52-30.13,14.52-82.22
		c0-9.17-5.88-20.55-16.42-32.91c-5.49-105.16-80.86-134.35-118.63-131.09c-5.74,0.53-10.67,1.64-14.21,3.56
		c-9.9-16.47-22.19-30.44-36.19-41.94C905.79,194.93,686.86,253.29,616.94,438c9.06-7.95,19.75-15.88,31.53-23.86
		c13.72-9.02,29.06-18.09,45.81-26.55c-0.07,0.19-0.13,0.39-0.2,0.59c-16.43,8.39-31.64,17.3-45.14,26.37c-0.27,0-0.27,0-0.27,0
		c-40.8,27.41-66.32,56.19-66.32,75.36c0,51.28,0.86,74.86,13.63,81.73c-1.1,0.24-2.14,0.65-3.21,1c-0.47,0.16-0.95,0.26-1.41,0.44
		c-1.74,0.67-3.43,1.5-5.06,2.46c-0.02,0.01-0.04,0.02-0.06,0.03c-24.35,14.35-37.06,60.11-29.29,111.13
		c4.76,32.19,16.8,59.56,31.84,76.6c4.92,5.64,10.16,10.17,15.57,13.39c0.41,0.25,0.82,0.4,1.23,0.63c0.03,0.01,0.05,0.03,0.08,0.04
		c0.47,0.26,0.94,0.47,1.41,0.72c1.22,4.67,2.52,9.29,3.87,13.88c0.02,0.08,0.04,0.16,0.07,0.24
		c23.39,79.27,65.76,146.13,119.87,191.08v37.73c-14.52,0.81-29.06,4.12-36.72,8.26c-29.27,11.74-50.41,32.3-67.13,63.01
		l-228.02,84.65c-0.49,0.27-1.36,0.27-1.88,0.55c-0.29,0-0.29,0.31-0.56,0.31c-22.46,7.07-38.64,26.29-38.64,48.76v383.64
		c0,28.49,26.3,51.81,58.1,51.81h971.46c32.05,0,58.11-23.32,58.11-51.81v-383.64C1445.59,1202.96,1428.05,1182.95,1403.88,1176.63z
		 M854.03,339.07c0.24-0.27,0.51-0.27,0.81,0c12.33-1.12,24.37-1.95,36.69-1.95c34.6,0,69.22,5.3,102.15,14.04
		c-32.78-8.66-67.23-13.91-101.64-13.91c-13.19,0-26.35,0.84-39.43,2.27C853.09,339.38,853.55,339.21,854.03,339.07z M1009.4,355.62
		c-4.98-1.5-10.01-2.93-15.08-4.28C999.39,352.69,1004.42,354.11,1009.4,355.62z"/>
	<path id="XMLID_14_" class="st2" d="M1435.93,1215.16v383.64c0,28.49-26.06,51.81-58.11,51.81H406.36
		c-31.8,0-58.1-23.32-58.1-51.81v-383.64c0-22.47,16.19-41.69,38.64-48.76c0.27,0,0.27-0.31,0.56-0.31
		c0.52-0.28,1.39-0.28,1.88-0.55l228.02-84.65c32.33,85.51,104.18,149.34,184.14,195.38c3.05-18.63,11.84-39.47,23.86-58.63
		c15.06,63.02,16.16,272.36,16.16,272.36h57.82c30.44-192.66,0-328,0-328c35.91,25.21,68.52,74,75.11,114.27
		c79.72-46.04,151.52-109.63,183.88-194.83l235.89,83.82C1418.38,1171.57,1435.93,1191.59,1435.93,1215.16z"/>
	<path id="XMLID_13_" class="st3" d="M619.31,770.52c-8.29,1.53-16.64-0.36-24.62-5.2c-21.83-12.97-40.88-47.26-47.41-89.99
		c-8.71-58.18,9.19-109.71,40.32-115.32c2.79-0.48,5.73-0.64,8.37-0.11c1.76,0,3.34,0.11,4.96,0.64
		c6.63,1.57,13.29,5.23,19.48,10.72c18.2,15.96,33.44,46.77,39.03,83.96C668.29,713.41,650.2,764.94,619.31,770.52z"/>
	<path id="XMLID_12_" class="st4" d="M1233.08,675.32c-7.27,48.28-30.74,85.99-56.26,94.01c-5.2,1.69-10.49,2.25-15.72,1.19
		c-30.93-5.58-49.02-57.11-40.11-115.3c5.38-35.27,19.19-64.86,36.32-81.29c6.14-6.13,12.7-10.4,19.51-12.69
		c5.36-1.71,10.79-2.19,16.12-1.23c0.32,0,0.85,0.2,1.13,0.37C1224.36,566.8,1241.7,617.85,1233.08,675.32z"/>
	<path id="XMLID_11_" class="st4" d="M1065.72,1052.9c-5.23,5.79-10.72,11.26-16.48,16.47c-1.92,1.65-3.83,3.58-5.72,5.22
		c-2.47,2.75-5.22,5.19-8.25,7.38c-3.3,2.74-6.58,5.5-9.85,8.25c-18.65,15.05-37.84,27.65-54.28,36.43
		c-8.48,4.4-17.23,9.06-26.31,13.45c-14.51,7.41-29.85,15.05-45.49,21.91c0,0,30.44,135.34,0,328v-13.96
		c0-110.71-22.75-314.04-22.75-314.04c-16.97-7.69-33.71-15.91-49.56-23.86c-7.69-3.82-15.09-7.66-22.23-11.5
		c-16.71-8.78-35.87-21.38-54.25-36.43c-3.26-2.75-6.57-5.51-9.83-8.25c-6.86-5.71-13.2-11.8-19.5-17.8l-5.74-5.76
		c-0.56-0.53-1.12-1.09-1.36-1.63c2.19-1.09,4.67-1.95,7.1-2.75V910.14h328.03v134.28
		C1054.73,1047.16,1060.2,1049.91,1065.72,1052.9z"/>
	<path id="XMLID_10_" class="st5" d="M1183.79,634.73v4.67c-0.25,13.69-0.8,27.41-1.92,41.1c-1.87,21.66-4.39,42.49-8.73,62.77
		c-34.83,166.88-151.83,289.9-290.52,289.9c-140,0-257.57-124.67-291.56-293.75c-6.31-32.05-9.87-65.79-9.87-100.02v-4.67
		c0-25.77,1.95-50.41,5.5-74.24c1.09-8.78,2.74-17.57,4.38-26.05c9.58-47.94,26.05-92.36,47.94-131.27c0,0,0,0,0.27,0
		c59.5-39.99,151.02-77.29,243.11-77.29c91.75,0,183.88,37.29,243.59,77.29c21.36,38.11,37.56,81.13,47.17,127.46
		c1.63,7.95,2.44,16.16,3.55,24.09c0.24,0.85,0.55,1.41,0.55,2.23c0.24,1.35,0.53,2.46,0.53,3.82c0.8,4.64,1.65,9.3,2.23,14.55
		c0.24,0.8,0.24,1.33,0.24,2.16c0.53,5.76,1.11,11.8,1.63,17.56C1182.72,608.18,1183.79,621.04,1183.79,634.73z"/>
	<path id="XMLID_9_" class="st6" d="M1076.85,368.16c-28.77,29.3-7.33,55.62-47.9,48.24c-54.82-11.26-148.8,157.6-203.59,171.32
		c-63.86,15.91-117.52,97.17-153.97,149.53c-15.88,22.75-38.9,45.49-65.74,57.27c-3.02-9.09-5.76-18.37-8.23-27.95
		c-1.07-0.29-1.91-0.85-2.72-1.41c-21.94-12.84-41.1-47.1-47.41-89.83c-8.77-57.56,8.5-108.52,39.19-115.12
		c2.72,1.64,6.01,2.2,9.87,2.2c0,44.39-26.03-88.13,10.93-88.13c5.76,0,38.52-99.68,45.1-103.49c34.8-19.2,57.74-57.07,200.25-57.07
		C986.36,313.72,1042.05,345.42,1076.85,368.16z"/>
	<path id="XMLID_8_" class="st7" d="M876.59,1161.99c-19.16,13.42-37.27,33.44-50.96,55.32l-0.27,0.32
		c-12.02,19.16-20.8,40.01-23.86,58.63c-79.97-46.04-151.81-109.87-184.14-195.38c16.72-30.7,37.86-51.27,67.13-63.01
		c7.15,13.13,17.56,26.29,29.62,38.88c0.24,0.53,0.8,1.09,1.36,1.63l5.74,5.76c6.3,6.01,12.64,12.09,19.5,17.8
		c3.27,2.74,6.58,5.5,9.83,8.25c18.39,15.05,37.55,27.65,54.25,36.43c7.14,3.84,14.55,7.69,22.23,11.5
		C842.88,1146.09,859.61,1154.31,876.59,1161.99z"/>
	<path id="XMLID_7_" class="st7" d="M1158.57,1080.89c0,0.27-0.24,0.27-0.24,0.55c-32.36,85.2-104.16,148.79-183.88,194.83
		c-6.59-40.27-39.2-89.07-75.11-114.27c15.64-6.86,30.98-14.51,45.49-21.91c9.09-4.39,17.83-9.05,26.31-13.45
		c16.44-8.78,35.63-21.38,54.28-36.43c3.27-2.75,6.55-5.51,9.85-8.25c3.03-2.19,5.78-4.63,8.25-7.38c1.9-1.64,3.8-3.56,5.72-5.22
		c5.76-5.2,11.25-10.68,16.48-16.47c10.4-11.5,19.16-23.27,25.73-35.01C1120.79,1029.62,1141.86,1050.19,1158.57,1080.89z"/>
	<path id="XMLID_6_" class="st8" d="M899.34,1476.04v13.96h-57.82c0,0-1.09-209.34-16.16-272.36l0.27-0.32
		c13.69-21.88,31.8-41.9,50.96-55.32C876.59,1161.99,899.34,1365.32,899.34,1476.04z"/>
	<path id="XMLID_5_" class="st9" d="M970.15,1312.74c0,10.07-8.19,18.23-18.26,18.23c-10.11,0-18.28-8.15-18.28-18.23
		c0-10.11,8.17-18.29,18.28-18.29C961.96,1294.44,970.15,1302.62,970.15,1312.74z"/>
	<path id="XMLID_4_" class="st9" d="M964.43,1413.2c0,10.06-8.18,18.28-18.27,18.28c-10.07,0-18.25-8.22-18.25-18.28
		c0-10.11,8.18-18.28,18.25-18.28C956.25,1394.92,964.43,1403.09,964.43,1413.2z"/>
	<rect id="XMLID_3_" x="1039.19" y="1497.68" class="st7" width="238.61" height="57.1"/>
	<path id="XMLID_2_" class="st8" d="M721.21,1009.62v44.39c-2.43,0.8-4.91,1.65-7.1,2.75c-12.06-12.6-22.47-25.75-29.62-38.88
		C692.15,1013.75,706.7,1010.44,721.21,1009.62z"/>
	<path id="XMLID_1_" class="st8" d="M1091.45,1017.88c-6.56,11.74-15.33,23.51-25.73,35.01c-5.52-2.99-11-5.74-16.48-8.47v-39.75
		C1064.04,1006.62,1078.3,1011,1091.45,1017.88z"/>
	<g>
		<rect x="497.81" y="1329.44" class="st10" width="210.17" height="210.17"/>
		<circle class="st11" cx="602.89" cy="1441.32" r="69.75"/>
		<g>
			<path d="M564.11,1456.04l-0.21-21.03l-0.14-21.03l0.69-0.05c0.64,3.68,1.56,7.33,2.72,10.89c1.17,3.54,2.58,7.04,4.56,10.18
				c0.99,1.56,2.13,3.03,3.52,4.21c0.68,0.61,1.45,1.09,2.24,1.51c0.81,0.37,1.67,0.67,2.51,0.73c0.84,0.04,1.63-0.24,2.21-0.84
				c0.59-0.59,0.98-1.42,1.29-2.26c0.62-1.7,0.88-3.57,1.14-5.41c0.48-3.71,0.71-7.48,1.46-11.22c0.38-1.86,0.91-3.73,1.84-5.47
				c0.47-0.85,1.04-1.69,1.8-2.36c0.74-0.64,1.61-1.32,2.81-1.32c0.6-0.02,1.15,0.29,1.58,0.62c0.4,0.37,0.72,0.8,0.96,1.24
				c0.49,0.89,0.79,1.82,1.02,2.75c0.47,1.87,0.7,3.76,0.87,5.65c0.3,3.78,0.32,7.56,0.16,11.34l-0.06-0.24l12.23,21.95l-0.55-0.02
				c1.68-2.63,2.98-5.54,3.94-8.53c0.95-3,1.57-6.11,1.69-9.27c0.13-3.15-0.25-6.32-1.17-9.35c-0.91-3.03-2.37-5.88-4.19-8.47
				c1.87,2.56,3.4,5.38,4.38,8.42c0.98,3.03,1.43,6.22,1.37,9.41c-0.05,3.19-0.61,6.37-1.55,9.42c-0.95,3.05-2.22,5.99-3.92,8.73
				l-0.28,0.45l-0.27-0.47l-12.43-21.84l-0.06-0.11l0.01-0.13c0.14-3.73,0.11-7.5-0.2-11.22c-0.17-1.85-0.4-3.71-0.86-5.49
				c-0.22-0.89-0.52-1.76-0.94-2.52c-0.41-0.76-1.02-1.4-1.74-1.37c-0.72-0.02-1.5,0.5-2.14,1.08c-0.66,0.57-1.16,1.32-1.59,2.11
				c-0.85,1.59-1.35,3.39-1.72,5.2c-0.74,3.64-0.99,7.4-1.49,11.15c-0.27,1.87-0.54,3.77-1.21,5.61c-0.34,0.91-0.77,1.84-1.51,2.59
				c-0.73,0.77-1.87,1.17-2.91,1.1c-2.07-0.19-3.83-1.21-5.3-2.48c-1.48-1.27-2.66-2.81-3.68-4.42c-2.02-3.25-3.45-6.79-4.6-10.39
				c-1.13-3.61-2.01-7.29-2.62-11.03l0.69-0.05l-0.14,21.03L564.11,1456.04z"/>
		</g>
	</g>
	<ellipse class="st12" cx="738.87" cy="649.49" rx="36.01" ry="47.17"/>
	<ellipse class="st12" cx="1033.29" cy="649.49" rx="36.01" ry="47.17"/>
	<path d="M1091.6,559.57c-9.75-22.02-30.71-36.83-54.23-38.32c-35.78-2.28-65.72,26.99-62.07,38.32
		C977.89,567.66,999.83,573.43,1091.6,559.57"/>
	<path d="M680.56,559.57c9.75-22.02,30.71-36.83,54.23-38.32c35.78-2.28,65.72,26.99,62.07,38.32
		C794.27,567.66,772.33,573.43,680.56,559.57"/>
	<path class="st13" d="M926.47,741.76c-58.56-43.48-87.97,8.92-87.97,8.92"/>
	<g>
		<path class="st14" d="M765.15,837.33c1.86,2.41,3.82,4.74,5.83,7.01c2,2.28,4.06,4.51,6.18,6.67c4.23,4.33,8.61,8.5,13.22,12.4
			c4.56,3.94,9.32,7.63,14.25,11.07c4.93,3.43,9.98,6.65,15.24,9.49c20.91,11.49,44.63,17.7,68.3,16.39
			c5.91-0.27,11.8-0.96,17.63-2.02c5.84-1.07,11.58-2.63,17.27-4.36c5.69-1.76,11.26-3.92,16.76-6.26l4.08-1.87
			c1.36-0.62,2.72-1.25,4.05-1.94l4.03-2c1.34-0.67,2.64-1.42,3.97-2.13c21.13-11.51,40.38-26.44,58.74-42.44
			c-16.31,18.08-34.86,34.47-56.02,47.18c-5.24,3.25-10.73,6.11-16.3,8.79c-5.62,2.58-11.35,4.98-17.24,6.98
			c-5.9,1.96-11.92,3.58-18.04,4.78c-6.13,1.17-12.34,1.96-18.58,2.29c-12.49,0.57-25.09-0.78-37.16-3.98
			c-12.05-3.27-23.61-8.22-34.19-14.68c-10.64-6.37-20.32-14.16-29.09-22.76c-4.35-4.34-8.5-8.87-12.34-13.64
			C771.88,847.52,768.25,842.59,765.15,837.33z"/>
	</g>
	<circle class="st15" cx="702.24" cy="787.46" r="49.87"/>
	<circle class="st15" cx="1070.34" cy="783.37" r="49.87"/>
	<path class="st16" d="M506.87,904.01"/>
	<g>
		<path d="M926.47,741.76c-7.66-3.86-15.17-7.56-22.96-10.07l-2.91-0.93c-0.97-0.3-1.96-0.51-2.93-0.78
			c-1.94-0.56-3.93-0.85-5.88-1.25c-3.94-0.57-7.89-0.85-11.81-0.65c-7.83,0.43-15.46,2.81-22.45,6.81c-3.5,1.97-6.84,4.35-10,7.01
			c-3.19,2.64-6.19,5.57-9.03,8.78c0.74-2.02,1.75-3.94,2.85-5.81c1.1-1.87,2.34-3.66,3.7-5.37c2.7-3.44,5.87-6.55,9.45-9.21
			c7.11-5.34,15.99-8.73,25.08-9.2c4.54-0.21,9.06,0.21,13.44,1.13c2.16,0.58,4.35,1.04,6.41,1.86c1.04,0.39,2.1,0.71,3.11,1.15
			l3.01,1.36C913.5,730.35,920.53,735.57,926.47,741.76z"/>
	</g>
	<path class="st17" d="M838.5,747.76"/>
	<path d="M581.19,639.4c0,0-30-61.27-36.19-94.87s3.86-80.77,19.47-96.99s41.58-56.01,38.91-69.28
		c-2.66-13.27,21.99-75.18,58.31-89.92s36.32-57.49,64.33-61.91s90.82-16.21,112.48-20.64s37.22,8.84,56.71,7.37
		s95.58,9.92,114.19,19.16c23.89,11.87,92.27,14.39,100.81,29.48c10.01,17.69,50.67,79.87,59.51,75.31
		c8.84-4.56,24.48,64.73,36.56,64.73s-5.63,37.47,0,54.54c11.67,35.38-2.66,69.02,9.14,70.62s-21.08,133.87-26.53,129.85
		s-14.1-106.38-30.64-135.74c-16.53-29.36-18.01-49.99-29.8-64.73c-11.79-14.74-8.56-43.38-39.82-59.68
		c-31.26-16.29-83.45-24.35-94.94-34.66c-11.49-10.32-37.71-17.35-56.87-10.89c-19.16,6.46-32.93-12.36-56.26,0
		c-23.34,12.36-78.02,7.87-97.11,11.59c-19.09,3.72-44.13,46.92-60.36,44.99c-16.23-1.93-26.06,32.43-42.51,33.9
		c-16.45,1.47-41.51,48.64-54.78,60.44c-13.27,11.79-26.53,91.39-33.9,91.39C584.51,593.47,581.19,639.4,581.19,639.4z"/>
	<path d="M1326.81,417.47c-3.02-7.01-7.28-14.43-12.49-21.56c24.82-14.63,10.56-66.54-6.09-84.82
		c-15.29-16.78-32.99-30.15-53.72-38.65c6.58-18.89,3.61-41.85-10.03-61.31c-15.62-22.31-46.38-37.4-74.56-35.29
		c-2.46-10.66-6.82-20.54-12.39-27.41c-15.92-19.59-50.8-38.72-77.92-31.51c-6.91-10.46-15.54-19.81-24.59-27.01
		c-30.32-24.15-76.11-32.78-114.52-21.82c-9.86-7.12-20.09-12.55-28.65-15.36c-9.96-3.26-21.4-4.44-32.87-3.55
		c-11.47-0.88-22.92,0.3-32.87,3.55c-8.58,2.81-18.8,8.24-28.65,15.36c-38.41-10.97-84.2-2.34-114.52,21.82
		c-9.04,7.2-17.68,16.55-24.59,27.01c-27.11-7.21-62,11.92-77.92,31.51c-5.58,6.87-9.94,16.75-12.39,27.41
		c-28.18-2.11-58.93,12.98-74.56,35.29c-13.63,19.46-16.61,42.42-10.03,61.31c-20.73,8.51-38.44,21.87-53.71,38.65
		c-16.65,18.28-30.92,70.19-6.1,84.82c-5.2,7.13-9.47,14.55-12.48,21.56c-11.82,27.46,2.57,62.31,28.56,67.42
		c-6.97,15.49-10.6,32.74-10.33,44.55c0.77,33.54,26.22,65.68,56.88,67.4c-0.17,1.33-0.28,2.48-0.3,3.35
		c-0.6,33.69,32.24,78.01,67.45,84.21c0.15,0.14,0.22,0.3,0.42,0.42c0.26,0.15,0.49,0.23,0.75,0.38c-0.42,4.9-0.23,9.73,0.07,13.38
		c0.8,9.67,4.42,34.96,17.67,34.91c12.43-0.04,12.59-23.04,12.92-30.6c0.39-9.15-0.87-19.47-3.73-29.26
		c2.37-6.74,3.54-14.6,4.07-21.15c1.55-19.47-1.06-42.05-7.64-60.5c-2.13-5.99-5.16-13.19-8.58-18.54c-0.28-0.45-0.7-0.9-1.06-1.35
		c4.31-6.28,7.86-13.33,11.11-19.95c8.73-17.79,14.25-37.41,9.2-54.6c9.66-2.59,18.48-7.62,25.91-16.85
		c7.17-8.91,12.39-18.1,15.3-28.87c16.17-4.7,31.91-12.45,37.81-16.49c10.83-7.39,21.22-18.42,28.05-30.8
		c4.98,3.87,10.66,7.49,17.12,10.79c30.62,15.7,70.38,13.17,103.16-1.38c21.71,16.14,60.02,14.92,80.79-2.42
		c33.71,16.69,76.17,20.35,108.45,3.8c6.46-3.3,12.14-6.92,17.12-10.79c6.83,12.38,17.22,23.41,28.05,30.8
		c5.9,4.03,21.64,11.78,37.8,16.49c2.91,10.77,8.14,19.97,15.31,28.87c7.44,9.24,16.25,14.26,25.91,16.85
		c-5.05,17.19,0.48,36.82,9.2,54.6c3.25,6.61,6.79,13.67,11.11,19.95c-0.36,0.45-0.78,0.9-1.07,1.35
		c-3.42,5.36-6.44,12.55-8.58,18.54c-6.58,18.45-9.2,41.04-7.64,60.5c0.52,6.55,1.69,14.41,4.07,21.15
		c-2.87,9.79-4.13,20.11-3.74,29.26c0.32,7.57,0.49,30.57,12.92,30.6c13.25,0.04,16.87-25.25,17.67-34.91
		c0.31-3.65,0.49-8.47,0.07-13.38c0.27-0.15,0.49-0.23,0.75-0.38c0.2-0.12,0.27-0.29,0.42-0.42c35.2-6.2,68.04-50.52,67.45-84.21
		c-0.02-0.87-0.12-2.02-0.29-3.35c30.65-1.72,56.1-33.86,56.87-67.4c0.27-11.8-3.36-29.05-10.34-44.55
		C1324.24,479.77,1338.62,444.93,1326.81,417.47z"/>
</g>
<rect x="1160.88" y="1316.87" class="st18" width="625.1" height="468.06"/>
<g>
	<g>
		<ellipse class="st19" cx="1476.58" cy="1615.69" rx="272.09" ry="9.05"/>
		<polygon class="st20" points="1261.39,1511.47 1281.23,1511.47 1275.32,1486.47 1255.48,1486.47 		"/>
		<path class="st0" d="M1574.62,1502.28c0,0-35.59-56.5-131.18-56.5c-67.01,0-115.01,46.6-115.01,46.6l-79.67,19.09
			c-1.63,0-3.94,0.89-5.02,2.11c-3.91,4.37-12.4,15.86-17.06,37.06c-0.35,1.6,0.16,3.98,1.1,5.31l18.03,31.45h469.03
			c3.26,0,5.91-2.65,5.91-5.91c0-3.94,0-9.09,0-12.92c0-7.14-5.65-16.95-9.73-24.02
			C1700.11,1525.68,1646.35,1490.14,1574.62,1502.28z"/>
		
			<linearGradient id="SVGID_1_" gradientUnits="userSpaceOnUse" x1="16.6804" y1="1585.4618" x2="222.7407" y2="1585.4618" gradientTransform="matrix(-1 0 0 1 1596.2949 0)">
			<stop  offset="0" style="stop-color:#5F5A5E"/>
			<stop  offset="0.2754" style="stop-color:#262529"/>
			<stop  offset="0.4741" style="stop-color:#29282C"/>
			<stop  offset="0.6249" style="stop-color:#333135"/>
			<stop  offset="0.7595" style="stop-color:#434044"/>
			<stop  offset="0.8093" style="stop-color:#4B484B"/>
		</linearGradient>
		<rect x="1373.55" y="1583.52" class="st21" width="206.06" height="3.89"/>
		<rect x="1575.36" y="1572.69" width="100.35" height="14.75"/>
		<polygon class="st22" points="1285.43,1587.41 1245.8,1587.41 1236.15,1570.57 1285.43,1574.77 		"/>
		<rect x="1278.25" y="1572.69" width="100.35" height="14.75"/>
		<g>
			
				<linearGradient id="SVGID_2_" gradientUnits="userSpaceOnUse" x1="39.7626" y1="1544.8617" x2="40.752" y2="1544.8617" gradientTransform="matrix(-1 0 0 1 1596.2949 0)">
				<stop  offset="0" style="stop-color:#989898"/>
				<stop  offset="0.3181" style="stop-color:#B5B5B5"/>
				<stop  offset="0.7618" style="stop-color:#D9D8D8"/>
				<stop  offset="1" style="stop-color:#E6E5E5"/>
			</linearGradient>
			<rect x="1555.54" y="1505.05" class="st23" width="0.99" height="79.63"/>
		</g>
		<g>
			
				<linearGradient id="SVGID_3_" gradientUnits="userSpaceOnUse" x1="180.4716" y1="1522.4302" x2="181.461" y2="1522.4302" gradientTransform="matrix(-1 0 0 1 1596.2949 0)">
				<stop  offset="0" style="stop-color:#989898"/>
				<stop  offset="0.3181" style="stop-color:#B5B5B5"/>
				<stop  offset="0.7618" style="stop-color:#D9D8D8"/>
				<stop  offset="1" style="stop-color:#E6E5E5"/>
			</linearGradient>
			<rect x="1414.83" y="1460.18" class="st24" width="0.99" height="124.5"/>
		</g>
		<path class="st20" d="M1275.31,1573.91c0.03-29.27,23.85-54.59,53.12-54.59c20.5,0,39.38,12.02,48.12,30.63l0.09,0.19l4.29,14.17
			l0.03,0.21c0.4,2.61,0.6,16.25,0.6,18.87L1275.31,1573.91z"/>
		<polygon class="st20" points="1239.89,1492.38 1286.71,1492.38 1284.13,1480.56 1229.01,1480.56 		"/>
		<g>
			
				<linearGradient id="SVGID_4_" gradientUnits="userSpaceOnUse" x1="-111.5614" y1="1540.5367" x2="-71.9935" y2="1540.5367" gradientTransform="matrix(-1 0 0 1 1596.2949 0)">
				<stop  offset="0" style="stop-color:#FFFFFF"/>
				<stop  offset="0.0598" style="stop-color:#EAEAEA"/>
				<stop  offset="0.2445" style="stop-color:#B0B0B0"/>
				<stop  offset="0.4229" style="stop-color:#808080"/>
				<stop  offset="0.5908" style="stop-color:#5A5A5A"/>
				<stop  offset="0.7455" style="stop-color:#3F3F3F"/>
				<stop  offset="0.8825" style="stop-color:#2F2F2F"/>
				<stop  offset="0.9873" style="stop-color:#292929"/>
			</linearGradient>
			<path class="st25" d="M1704.13,1538.73c-4.87-7.91-16.49-13.39-34.65-13.45c-5.19-0.02,6.5,29.7,38.38,30.5
				C1707.86,1555.79,1706.41,1542.45,1704.13,1538.73z"/>
			<path class="st11" d="M1705.75,1553.82c-0.66-5.06-1.9-11.99-3.21-14.11c-4.82-7.82-16.6-12.38-32.39-12.56
				c0.02,1.24,0.81,4.49,3.84,8.96C1677.39,1541.11,1687.12,1552.54,1705.75,1553.82z"/>
			<g>
				<path class="st11" d="M1684.66,1541.95c-1.1-0.24-3.19-2.48-1.38-3.93c1.81-1.47,1.29-3.93,1.4-4.98
					c0.11-1.06,2.36-1.22,3.87,0.64C1690.05,1535.54,1692.55,1543.67,1684.66,1541.95z"/>
				<path class="st26" d="M1684.77,1541.62c-1.02-0.22-2.95-2.29-1.28-3.64c1.68-1.36,1.19-3.64,1.29-4.62
					c0.1-0.98,2.19-1.13,3.59,0.59C1689.76,1535.69,1692.07,1543.22,1684.77,1541.62z"/>
				<path class="st27" d="M1684.87,1541.3c-0.94-0.2-2.72-2.11-1.18-3.35c1.54-1.26,1.1-3.35,1.19-4.25c0.09-0.9,2.02-1.04,3.3,0.55
					C1689.47,1535.84,1691.59,1542.77,1684.87,1541.3z"/>
				<path class="st28" d="M1684.98,1540.98c-0.86-0.19-2.48-1.93-1.08-3.06c1.41-1.15,1-3.06,1.09-3.88
					c0.08-0.82,1.84-0.95,3.01,0.5C1689.18,1535.99,1691.12,1542.31,1684.98,1540.98z"/>
				<path class="st29" d="M1685.08,1540.65c-0.78-0.17-2.25-1.74-0.97-2.77c1.28-1.04,0.91-2.77,0.98-3.51
					c0.08-0.75,1.67-0.86,2.73,0.45C1688.88,1536.14,1690.64,1541.86,1685.08,1540.65z"/>
				<path class="st30" d="M1685.19,1540.33c-0.7-0.15-2.01-1.56-0.87-2.48c1.14-0.93,0.81-2.48,0.88-3.15
					c0.07-0.67,1.49-0.77,2.44,0.4C1688.59,1536.28,1690.17,1541.41,1685.19,1540.33z"/>
				<path class="st31" d="M1685.29,1540.01c-0.61-0.14-1.78-1.38-0.77-2.2c1.01-0.82,0.72-2.19,0.78-2.78
					c0.06-0.59,1.32-0.68,2.16,0.36C1688.3,1536.43,1689.69,1540.96,1685.29,1540.01z"/>
				<path class="st32" d="M1685.4,1539.68c-0.53-0.12-1.54-1.2-0.67-1.91c0.88-0.71,0.62-1.9,0.67-2.41
					c0.05-0.51,1.15-0.59,1.87,0.31C1688.01,1536.58,1689.21,1540.52,1685.4,1539.68z"/>
				<path class="st33" d="M1685.5,1539.36c-0.45-0.1-1.31-1.01-0.57-1.62c0.74-0.6,0.53-1.61,0.57-2.05
					c0.04-0.43,0.97-0.5,1.59,0.26C1687.72,1536.73,1688.73,1540.07,1685.5,1539.36z"/>
				<path class="st34" d="M1685.61,1539.04c-0.37-0.08-1.07-0.83-0.47-1.33c0.61-0.49,0.43-1.32,0.47-1.68
					c0.04-0.36,0.8-0.41,1.3,0.22C1687.42,1536.88,1688.26,1539.63,1685.61,1539.04z"/>
				<path class="st35" d="M1685.71,1538.71c-0.29-0.07-0.84-0.65-0.36-1.04c0.47-0.39,0.34-1.03,0.37-1.31
					c0.03-0.28,0.62-0.32,1.02,0.17C1687.13,1537.02,1687.78,1539.18,1685.71,1538.71z"/>
				<path class="st36" d="M1685.82,1538.39c-0.21-0.05-0.61-0.47-0.26-0.75c0.34-0.28,0.24-0.74,0.26-0.94
					c0.02-0.2,0.45-0.23,0.73,0.12C1686.84,1537.17,1687.31,1538.71,1685.82,1538.39z"/>
			</g>
			<g>
				<path class="st11" d="M1699,1545.12c-1.59,3.45-5.23,5.16-8.16,3.82c-2.93-1.35-4.01-5.23-2.43-8.67
					c1.59-3.46,5.24-5.16,8.16-3.82C1699.5,1537.78,1700.59,1541.66,1699,1545.12z"/>
				<path class="st26" d="M1698.7,1544.98c-1.5,3.26-4.94,4.86-7.69,3.6c-2.76-1.27-3.79-4.93-2.29-8.18c1.5-3.26,4.94-4.87,7.7-3.6
					C1699.18,1538.06,1700.2,1541.72,1698.7,1544.98z"/>
				<path class="st27" d="M1698.41,1544.84c-1.41,3.06-4.64,4.57-7.23,3.39c-2.6-1.2-3.56-4.64-2.16-7.69
					c1.41-3.07,4.65-4.58,7.24-3.39S1699.81,1541.78,1698.41,1544.84z"/>
				<path class="st28" d="M1698.11,1544.7c-1.32,2.86-4.35,4.28-6.77,3.17c-2.43-1.12-3.33-4.34-2.02-7.21
					c1.32-2.87,4.35-4.29,6.78-3.17C1698.52,1538.61,1699.42,1541.84,1698.11,1544.7z"/>
				<path class="st29" d="M1697.81,1544.57c-1.23,2.67-4.05,3.99-6.31,2.95c-2.27-1.04-3.11-4.05-1.88-6.72
					c1.23-2.67,4.06-4,6.32-2.96C1698.2,1538.89,1699.04,1541.89,1697.81,1544.57z"/>
				<path class="st30" d="M1697.51,1544.43c-1.14,2.47-3.76,3.7-5.85,2.74c-2.1-0.97-2.88-3.75-1.74-6.23
					c1.14-2.48,3.76-3.7,5.86-2.74C1697.87,1539.17,1698.65,1541.95,1697.51,1544.43z"/>
				<path class="st31" d="M1697.21,1544.29c-1.05,2.28-3.46,3.41-5.39,2.52c-1.93-0.89-2.65-3.46-1.61-5.74
					c1.05-2.28,3.46-3.41,5.4-2.52C1697.54,1539.44,1698.26,1542.01,1697.21,1544.29z"/>
				<path class="st32" d="M1696.91,1544.16c-0.96,2.08-3.16,3.12-4.93,2.31c-1.77-0.82-2.43-3.16-1.47-5.25
					c0.96-2.09,3.17-3.12,4.94-2.31C1697.22,1539.72,1697.87,1542.07,1696.91,1544.16z"/>
				<path class="st33" d="M1696.61,1544.02c-0.87,1.89-2.87,2.82-4.47,2.09c-1.6-0.74-2.2-2.87-1.33-4.76
					c0.87-1.89,2.87-2.83,4.48-2.09C1696.89,1540,1697.48,1542.13,1696.61,1544.02z"/>
				<path class="st34" d="M1696.32,1543.88c-0.78,1.69-2.57,2.53-4.01,1.88c-1.44-0.66-1.97-2.57-1.19-4.27
					c0.78-1.7,2.58-2.54,4.02-1.88C1696.56,1540.27,1697.09,1542.18,1696.32,1543.88z"/>
				<path class="st35" d="M1696.02,1543.75c-0.69,1.5-2.28,2.24-3.55,1.66c-1.27-0.58-1.75-2.28-1.06-3.78
					c0.69-1.5,2.28-2.25,3.56-1.66C1696.24,1540.55,1696.71,1542.24,1696.02,1543.75z"/>
				<path class="st36" d="M1695.72,1543.61c-0.6,1.3-1.98,1.95-3.09,1.45c-1.11-0.51-1.52-1.99-0.92-3.29
					c0.6-1.3,1.99-1.96,3.1-1.45C1695.91,1540.83,1696.32,1542.3,1695.72,1543.61z"/>
			</g>
			<path class="st37" d="M1678.85,1531.47c-0.04-0.63-1.42-4.83-3.13-1.29c-1.72,3.54,0.26,7.33,2.53,7.03
				C1680.27,1536.93,1678.97,1533.21,1678.85,1531.47z"/>
		</g>
		<g>
			<path d="M1625.53,1522.51c20.08,0,37.43,11.86,45.44,28.93l4.17,13.77c0.38,2.44,0.57,4.94,0.57,7.48c-5.7,0-9.55,0-9.55,0h-90.8
				C1575.36,1545.02,1597.87,1522.51,1625.53,1522.51z"/>
			
				<radialGradient id="SVGID_5_" cx="-29.2395" cy="1572.6874" r="43.0024" gradientTransform="matrix(-1 0 0 1 1596.2949 0)" gradientUnits="userSpaceOnUse">
				<stop  offset="0.8558" style="stop-color:#303031"/>
				<stop  offset="0.8699" style="stop-color:#353435"/>
				<stop  offset="0.9483" style="stop-color:#49484A"/>
				<stop  offset="1" style="stop-color:#514F51"/>
			</radialGradient>
			<path class="st38" d="M1582.53,1572.69c0,23.75,19.25,43,43,43c23.75,0,43-19.25,43-43c0-23.75-19.25-43.01-43-43.01
				C1601.79,1529.68,1582.53,1548.94,1582.53,1572.69z"/>
			
				<radialGradient id="SVGID_6_" cx="-29.241" cy="1572.6859" r="28.0156" gradientTransform="matrix(-1 0 0 1 1596.2949 0)" gradientUnits="userSpaceOnUse">
				<stop  offset="0" style="stop-color:#FFFFFF"/>
				<stop  offset="0.0651" style="stop-color:#F7F7F7"/>
				<stop  offset="0.1737" style="stop-color:#EFEFEF"/>
				<stop  offset="0.6285" style="stop-color:#EFEFEF"/>
				<stop  offset="0.7034" style="stop-color:#EFEFEF"/>
				<stop  offset="0.8455" style="stop-color:#EDEDED"/>
				<stop  offset="0.8967" style="stop-color:#E6E6E6"/>
				<stop  offset="0.9332" style="stop-color:#DBDBDB"/>
				<stop  offset="0.9627" style="stop-color:#CACACA"/>
				<stop  offset="0.9876" style="stop-color:#B5B5B4"/>
				<stop  offset="1" style="stop-color:#A7A7A6"/>
			</radialGradient>
			<path class="st39" d="M1625.53,1600.7c15.46,0,28.02-12.57,28.02-28.02c0-15.44-12.56-28-28.02-28c-15.44,0-28.01,12.56-28.01,28
				C1597.52,1588.13,1610.09,1600.7,1625.53,1600.7z"/>
			<g>
				<path d="M1618.8,1549.06c0-1.71,3.02-3.1,6.74-3.1c3.72,0,6.74,1.38,6.74,3.1c0,0.29-6.74,20.84-6.74,20.84
					S1618.8,1549.34,1618.8,1549.06z"/>
				<path d="M1642.63,1555.04c1.49-0.85,4.19,1.07,6.05,4.28c1.86,3.23,2.17,6.53,0.68,7.39c-0.25,0.14-21.42,4.58-21.42,4.58
					S1642.39,1555.19,1642.63,1555.04z"/>
				<path d="M1649.36,1578.67c1.48,0.86,1.17,4.16-0.69,7.38c-1.86,3.23-4.57,5.14-6.05,4.29c-0.25-0.14-14.68-16.26-14.68-16.26
					S1649.12,1578.53,1649.36,1578.67z"/>
				<path d="M1632.27,1596.31c0,1.72-3.02,3.1-6.73,3.1c-3.72,0-6.74-1.38-6.74-3.1c0-0.28,6.74-20.84,6.74-20.84
					S1632.27,1596.03,1632.27,1596.31z"/>
				<path d="M1608.44,1590.33c-1.49,0.85-4.19-1.07-6.05-4.28c-1.86-3.23-2.17-6.53-0.68-7.39c0.24-0.14,21.42-4.58,21.42-4.58
					S1608.69,1590.19,1608.44,1590.33z"/>
				<path d="M1601.71,1566.7c-1.49-0.85-1.17-4.16,0.68-7.37c1.86-3.23,4.57-5.15,6.05-4.29c0.25,0.14,14.68,16.26,14.68,16.26
					S1601.96,1566.85,1601.71,1566.7z"/>
				<path d="M1636.68,1550.49l-11.38,22.06c-0.07,0.14-0.02,0.3,0.12,0.37c0.12,0.06,0.28,0.02,0.35-0.09l13.95-20.53
					c0.55-0.81,0.34-1.92-0.47-2.47c-0.81-0.55-1.92-0.34-2.47,0.47C1636.75,1550.36,1636.71,1550.42,1636.68,1550.49z"/>
				<path d="M1650.33,1571.24l-24.79,1.18c-0.15,0.01-0.27,0.14-0.26,0.29c0.01,0.14,0.12,0.25,0.26,0.26l24.75,1.82
					c0.98,0.07,1.83-0.66,1.9-1.64c0.07-0.98-0.66-1.83-1.64-1.9C1650.48,1571.23,1650.4,1571.23,1650.33,1571.24z"/>
				<path d="M1639.19,1593.44l-13.42-20.88c-0.08-0.13-0.25-0.16-0.38-0.08c-0.12,0.08-0.16,0.23-0.1,0.35l10.8,22.35
					c0.43,0.89,1.49,1.26,2.37,0.83c0.88-0.43,1.25-1.49,0.83-2.37C1639.27,1593.56,1639.23,1593.49,1639.19,1593.44z"/>
				<path d="M1614.4,1594.89l11.37-22.06c0.07-0.14,0.02-0.3-0.12-0.37c-0.12-0.06-0.28-0.02-0.35,0.09l-13.95,20.53
					c-0.55,0.81-0.34,1.92,0.47,2.47c0.81,0.55,1.92,0.34,2.47-0.47C1614.33,1595.01,1614.37,1594.95,1614.4,1594.89z"/>
				<path d="M1600.74,1574.14l24.79-1.18c0.15-0.01,0.27-0.14,0.26-0.29c-0.01-0.14-0.12-0.25-0.26-0.26l-24.75-1.82
					c-0.98-0.07-1.83,0.66-1.9,1.64c-0.07,0.98,0.66,1.83,1.64,1.9C1600.6,1574.14,1600.68,1574.14,1600.74,1574.14z"/>
				<path d="M1611.88,1551.95l13.42,20.87c0.08,0.13,0.25,0.16,0.38,0.08c0.12-0.08,0.16-0.23,0.1-0.35l-10.8-22.34
					c-0.43-0.89-1.49-1.26-2.37-0.83c-0.88,0.43-1.25,1.49-0.83,2.37C1611.81,1551.82,1611.84,1551.89,1611.88,1551.95z"/>
			</g>
		</g>
		<path class="st20" d="M1699.98,1567.08h20.76c0,3.7,0,8.28,0,11.89c0,0.71-0.1,1.39-0.26,2.02h-25.46L1699.98,1567.08z"/>
		<polygon class="st11" points="1700.47,1577.84 1703.41,1577.84 1704.88,1569.61 1701.94,1569.61 		"/>
		<polygon class="st37" points="1701.02,1574.77 1703.96,1574.77 1703.41,1577.84 1700.47,1577.84 		"/>
		
			<linearGradient id="SVGID_7_" gradientUnits="userSpaceOnUse" x1="51.2899" y1="1459.3121" x2="51.2899" y2="1503.4332" gradientTransform="matrix(-1 0 0 1 1596.2949 0)">
			<stop  offset="0" style="stop-color:#5F5A5E"/>
			<stop  offset="0.2754" style="stop-color:#262529"/>
			<stop  offset="0.4741" style="stop-color:#29282C"/>
			<stop  offset="0.6249" style="stop-color:#333135"/>
			<stop  offset="0.7595" style="stop-color:#434044"/>
			<stop  offset="0.8093" style="stop-color:#4B484B"/>
		</linearGradient>
		<path class="st40" d="M1567.4,1498.97c-9.59-8.44-35.62-25.12-49.53-33.34c-6.21-3.67-5.1-5.26-1.17-6.53
			c41.27,16.76,57.91,43.18,57.91,43.18c0.64-0.11,1.27-0.18,1.9-0.29C1575.04,1504.31,1572.85,1503.77,1567.4,1498.97z"/>
		
			<linearGradient id="SVGID_8_" gradientUnits="userSpaceOnUse" x1="108.7657" y1="1455.9977" x2="108.7657" y2="1506.7877" gradientTransform="matrix(-1 0 0 1 1596.2949 0)">
			<stop  offset="0" style="stop-color:#5F5A5E"/>
			<stop  offset="0.2754" style="stop-color:#262529"/>
			<stop  offset="0.4741" style="stop-color:#29282C"/>
			<stop  offset="0.6249" style="stop-color:#333135"/>
			<stop  offset="0.7595" style="stop-color:#434044"/>
			<stop  offset="0.8093" style="stop-color:#4B484B"/>
		</linearGradient>
		<path class="st41" d="M1489.19,1457.37c3.23,0.47,7.62,3.29,10.25,5.22l55.52,40.58c2.63,1.93,2.12,3.49-1.14,3.49h-129.51
			c-3.26,0-5.91-2.65-5.91-5.91v-41.65c0-1.85,17.07-3.35,38.13-3.35C1470.39,1455.75,1482.51,1456.4,1489.19,1457.37z"/>
		
			<linearGradient id="SVGID_9_" gradientUnits="userSpaceOnUse" x1="211.4016" y1="1460.4088" x2="211.4016" y2="1506.7761" gradientTransform="matrix(-1 0 0 1 1596.2949 0)">
			<stop  offset="0" style="stop-color:#5F5A5E"/>
			<stop  offset="0.2754" style="stop-color:#262529"/>
			<stop  offset="0.4741" style="stop-color:#29282C"/>
			<stop  offset="0.6249" style="stop-color:#333135"/>
			<stop  offset="0.7595" style="stop-color:#434044"/>
			<stop  offset="0.8093" style="stop-color:#4B484B"/>
		</linearGradient>
		<path class="st42" d="M1362.74,1506.65h41.87c3.26,0,5.91-2.65,5.91-5.91v-35.74c0-3.26-2.59-5.37-5.78-4.7l-13.57,2.84
			c-3.19,0.67-7.26,3.4-9.09,6.11l-21.94,32.5C1358.31,1504.46,1359.47,1506.65,1362.74,1506.65z"/>
		
			<linearGradient id="SVGID_10_" gradientUnits="userSpaceOnUse" x1="344.3133" y1="1527.7665" x2="364.1623" y2="1527.7665" gradientTransform="matrix(-1 0 0 1 1596.2949 0)">
			<stop  offset="0" style="stop-color:#DA2A24"/>
			<stop  offset="1" style="stop-color:#A01916"/>
		</linearGradient>
		<path class="st43" d="M1237.31,1522.54h14.67v10.46h-19.85C1233.84,1528.87,1235.62,1525.4,1237.31,1522.54z"/>
		<g>
			<path d="M1328.43,1522.41c20.08,0,37.43,11.86,45.44,28.93l4.17,13.77c0.38,2.44,0.57,16.21,0.57,18.75
				c-5.7,0-100.35-6.77-100.35-6.77C1278.26,1549.41,1300.77,1522.41,1328.43,1522.41z"/>
			
				<radialGradient id="SVGID_11_" cx="267.8629" cy="1572.5834" r="43.0024" gradientTransform="matrix(-1 0 0 1 1596.2949 0)" gradientUnits="userSpaceOnUse">
				<stop  offset="0.8558" style="stop-color:#303031"/>
				<stop  offset="0.8699" style="stop-color:#353435"/>
				<stop  offset="0.9483" style="stop-color:#49484A"/>
				<stop  offset="1" style="stop-color:#514F51"/>
			</radialGradient>
			<path class="st44" d="M1285.43,1572.59c0,23.75,19.25,43,43,43c23.75,0,43-19.25,43-43c0-23.75-19.25-43.01-43-43.01
				C1304.69,1529.58,1285.43,1548.83,1285.43,1572.59z"/>
			
				<radialGradient id="SVGID_12_" cx="267.8614" cy="1572.5819" r="28.0156" gradientTransform="matrix(-1 0 0 1 1596.2949 0)" gradientUnits="userSpaceOnUse">
				<stop  offset="0" style="stop-color:#FFFFFF"/>
				<stop  offset="0.0651" style="stop-color:#F7F7F7"/>
				<stop  offset="0.1737" style="stop-color:#EFEFEF"/>
				<stop  offset="0.6285" style="stop-color:#EFEFEF"/>
				<stop  offset="0.7034" style="stop-color:#EFEFEF"/>
				<stop  offset="0.8455" style="stop-color:#EDEDED"/>
				<stop  offset="0.8967" style="stop-color:#E6E6E6"/>
				<stop  offset="0.9332" style="stop-color:#DBDBDB"/>
				<stop  offset="0.9627" style="stop-color:#CACACA"/>
				<stop  offset="0.9876" style="stop-color:#B5B5B4"/>
				<stop  offset="1" style="stop-color:#A7A7A6"/>
			</radialGradient>
			<path class="st45" d="M1328.43,1600.6c15.46,0,28.02-12.57,28.02-28.02c0-15.45-12.56-28-28.02-28c-15.44,0-28.01,12.56-28.01,28
				C1300.42,1588.03,1312.99,1600.6,1328.43,1600.6z"/>
			<g>
				<path d="M1321.7,1548.96c0-1.71,3.02-3.1,6.74-3.1c3.72,0,6.74,1.38,6.74,3.1c0,0.29-6.74,20.84-6.74,20.84
					S1321.7,1549.24,1321.7,1548.96z"/>
				<path d="M1345.53,1554.94c1.49-0.85,4.19,1.07,6.05,4.28c1.86,3.23,2.17,6.53,0.68,7.39c-0.25,0.14-21.42,4.58-21.42,4.58
					S1345.28,1555.08,1345.53,1554.94z"/>
				<path d="M1352.26,1578.57c1.48,0.86,1.17,4.16-0.69,7.38c-1.86,3.23-4.57,5.14-6.05,4.29c-0.25-0.14-14.68-16.26-14.68-16.26
					S1352.01,1578.43,1352.26,1578.57z"/>
				<path d="M1335.16,1596.21c0,1.72-3.02,3.1-6.73,3.1c-3.72,0-6.74-1.38-6.74-3.1c0-0.28,6.74-20.84,6.74-20.84
					S1335.16,1595.92,1335.16,1596.21z"/>
				<path d="M1311.34,1590.23c-1.49,0.85-4.19-1.07-6.05-4.28c-1.86-3.23-2.17-6.53-0.68-7.39c0.24-0.14,21.42-4.58,21.42-4.58
					S1311.58,1590.09,1311.34,1590.23z"/>
				<path d="M1304.6,1566.6c-1.49-0.85-1.17-4.16,0.68-7.37c1.86-3.23,4.57-5.15,6.05-4.29c0.25,0.14,14.68,16.26,14.68,16.26
					S1304.85,1566.74,1304.6,1566.6z"/>
				<path d="M1339.57,1550.38l-11.38,22.06c-0.07,0.14-0.02,0.3,0.12,0.37c0.12,0.06,0.28,0.02,0.35-0.09l13.95-20.53
					c0.55-0.81,0.34-1.92-0.47-2.47c-0.81-0.55-1.92-0.34-2.47,0.47C1339.64,1550.25,1339.6,1550.32,1339.57,1550.38z"/>
				<path d="M1353.23,1571.13l-24.79,1.18c-0.15,0.01-0.27,0.14-0.26,0.29c0.01,0.14,0.12,0.25,0.26,0.26l24.75,1.82
					c0.98,0.07,1.83-0.66,1.9-1.64c0.07-0.98-0.66-1.83-1.64-1.9C1353.37,1571.13,1353.3,1571.13,1353.23,1571.13z"/>
				<path d="M1342.09,1593.33l-13.42-20.88c-0.08-0.13-0.25-0.16-0.38-0.08c-0.12,0.08-0.16,0.23-0.1,0.35l10.8,22.35
					c0.43,0.88,1.49,1.26,2.37,0.83c0.88-0.43,1.25-1.49,0.83-2.37C1342.16,1593.46,1342.12,1593.39,1342.09,1593.33z"/>
				<path d="M1317.29,1594.78l11.37-22.06c0.07-0.14,0.02-0.3-0.12-0.37c-0.12-0.06-0.28-0.02-0.35,0.09l-13.95,20.53
					c-0.55,0.81-0.34,1.92,0.47,2.47c0.81,0.55,1.92,0.34,2.47-0.47C1317.22,1594.91,1317.26,1594.84,1317.29,1594.78z"/>
				<path d="M1303.64,1574.03l24.79-1.18c0.15-0.01,0.27-0.14,0.26-0.29c-0.01-0.14-0.12-0.25-0.26-0.26l-24.75-1.81
					c-0.98-0.07-1.83,0.66-1.9,1.64c-0.07,0.98,0.66,1.83,1.64,1.9C1303.49,1574.04,1303.57,1574.04,1303.64,1574.03z"/>
				<path d="M1314.78,1551.84l13.42,20.87c0.08,0.13,0.25,0.16,0.38,0.08c0.12-0.08,0.16-0.23,0.1-0.35l-10.8-22.34
					c-0.43-0.89-1.49-1.26-2.37-0.83c-0.88,0.43-1.25,1.49-0.83,2.37C1314.7,1551.71,1314.74,1551.78,1314.78,1551.84z"/>
			</g>
		</g>
		<g>
			<path class="st46" d="M1456.54,1458.7c13.14,0,25.49,0.61,32.23,1.58c1.95,0.29,5.37,2.08,8.93,4.68l14.79,10.81l-91.12-2.31
				v-12.66C1425.23,1459.86,1437.49,1458.7,1456.54,1458.7z"/>
			<path d="M1550.69,1503.7h-126.37c-1.63,0-2.95-1.32-2.95-2.95v-27.28l91.12,2.31L1550.69,1503.7z"/>
			<path d="M1383.44,1472.5l24.12,0.61v27.63c0,1.63-1.33,2.95-2.95,2.95h-41.87c-0.12,0-0.23-0.01-0.33-0.01
				c0.05-0.08,0.1-0.18,0.17-0.28L1383.44,1472.5z"/>
			<path class="st46" d="M1384.52,1470.91c1.4-2.08,4.79-4.36,7.24-4.87l13.57-2.84c0.19-0.04,0.38-0.06,0.56-0.06
				c1.04,0,1.66,0.7,1.66,1.87v8.11l-24.12-0.61L1384.52,1470.91z"/>
		</g>
		<g>
			
				<linearGradient id="SVGID_13_" gradientUnits="userSpaceOnUse" x1="58.0998" y1="1494.7762" x2="58.0998" y2="1503.1638" gradientTransform="matrix(-1 0 0 1 1596.2949 0)">
				<stop  offset="0" style="stop-color:#5F5A5E"/>
				<stop  offset="0.2754" style="stop-color:#000000"/>
				<stop  offset="0.7541" style="stop-color:#000000"/>
				<stop  offset="0.8093" style="stop-color:#000000"/>
			</linearGradient>
			<polygon class="st47" points="1538.2,1494.78 1543.17,1500.14 1540.03,1503.16 1533.22,1500.93 			"/>
			<path class="st48" d="M1519.68,1498.08l2.14-15.79c0.39-2.84,3.84-4.35,7.52-3c7.93,2.91,10.96,19.49,10.58,20.23
				c-2.1,4.08-7.47,3.79-13.74,3.77C1522.2,1503.29,1519.29,1500.92,1519.68,1498.08z"/>
			
				<radialGradient id="SVGID_14_" cx="127.8932" cy="-1425.1257" r="10.4754" gradientTransform="matrix(-1.1414 -0.1548 0.1508 -1.1116 1887.9434 -73.1779)" gradientUnits="userSpaceOnUse">
				<stop  offset="0" style="stop-color:#FFFFFF"/>
				<stop  offset="0.2273" style="stop-color:#FBFBFB"/>
				<stop  offset="0.4494" style="stop-color:#EFEFEF"/>
				<stop  offset="0.6696" style="stop-color:#DCDCDC"/>
				<stop  offset="0.8872" style="stop-color:#C0C0C0"/>
				<stop  offset="1" style="stop-color:#AFAFAF"/>
			</radialGradient>
			<path class="st49" d="M1519.68,1498.08l2.14-15.79c0.39-2.84,3.84-4.35,7.52-3c7.93,2.91,10.96,19.49,10.58,20.23
				c-2.1,4.08-7.47,3.79-13.74,3.77C1522.2,1503.29,1519.29,1500.92,1519.68,1498.08z"/>
			
				<linearGradient id="SVGID_15_" gradientUnits="userSpaceOnUse" x1="62.3326" y1="1481.7255" x2="65.286" y2="1490.4587" gradientTransform="matrix(-1 0 0 1 1596.2949 0)">
				<stop  offset="0" style="stop-color:#717070"/>
				<stop  offset="0.339" style="stop-color:#939393"/>
				<stop  offset="0.3456" style="stop-color:#919191"/>
				<stop  offset="0.5067" style="stop-color:#5D5D5D"/>
				<stop  offset="0.658" style="stop-color:#353535"/>
				<stop  offset="0.7952" style="stop-color:#181818"/>
				<stop  offset="0.9137" style="stop-color:#060606"/>
				<stop  offset="1" style="stop-color:#000000"/>
			</linearGradient>
			<path class="st50" d="M1519.68,1498.15l2.14-15.79c0.39-2.84,3.84-4.35,7.52-3c7.93,2.91,10.96,19.49,10.58,20.23
				c-2.1,4.08-7.47,3.79-13.74,3.77C1522.2,1503.36,1519.29,1500.99,1519.68,1498.15z"/>
		</g>
		<g>
			<g>
				<path class="st51" d="M1425.64,1532.99c0-3.57,4.61-6.36,10.5-6.36c5.89,0,10.5,2.8,10.5,6.36c0,3.57-4.62,6.37-10.5,6.37
					C1430.25,1539.36,1425.64,1536.56,1425.64,1532.99z M1427.5,1532.99c0,2.44,3.96,4.5,8.64,4.5c4.68,0,8.64-2.06,8.64-4.5
					c0-2.44-3.95-4.5-8.64-4.5C1431.46,1528.49,1427.5,1530.55,1427.5,1532.99z"/>
			</g>
			<g>
				
					<linearGradient id="SVGID_16_" gradientUnits="userSpaceOnUse" x1="160.157" y1="1526.4713" x2="160.157" y2="1540.1219" gradientTransform="matrix(-1 0 0 1 1596.2949 0)">
					<stop  offset="0" style="stop-color:#A7A7A6"/>
					<stop  offset="0.1273" style="stop-color:#A9A9A8"/>
					<stop  offset="0.1752" style="stop-color:#B0B0AF"/>
					<stop  offset="0.2096" style="stop-color:#BBBBBB"/>
					<stop  offset="0.2376" style="stop-color:#CCCCCC"/>
					<stop  offset="0.2615" style="stop-color:#E2E2E2"/>
					<stop  offset="0.2669" style="stop-color:#E8E8E8"/>
					<stop  offset="0.5381" style="stop-color:#F1F1F1"/>
					<stop  offset="0.6992" style="stop-color:#DDDEDE"/>
					<stop  offset="0.7523" style="stop-color:#C5C6C6"/>
					<stop  offset="0.8515" style="stop-color:#9E9E9E"/>
					<stop  offset="0.9305" style="stop-color:#868686"/>
					<stop  offset="0.9788" style="stop-color:#7D7D7D"/>
				</linearGradient>
				<path class="st52" d="M1426.57,1532.99c0,3,4.28,5.44,9.57,5.44c5.29,0,9.56-2.44,9.56-5.44s-4.27-5.43-9.56-5.43
					C1430.85,1527.56,1426.57,1529.99,1426.57,1532.99z"/>
				<g>
					
						<linearGradient id="SVGID_17_" gradientUnits="userSpaceOnUse" x1="180.3553" y1="1554.6879" x2="180.3553" y2="1559.6099" gradientTransform="matrix(-1 -3.500000e-03 -3.500000e-03 1 1622.2535 -24.1386)">
						<stop  offset="0" style="stop-color:#989898"/>
						<stop  offset="0.2585" style="stop-color:#EAEAEA"/>
						<stop  offset="0.6907" style="stop-color:#5D5D5D"/>
					</linearGradient>
					<path class="st53" d="M1422.74,1532.94c-0.01,1.07,0.85,1.94,1.91,1.94l23.86,0.08c1.06,0,1.92-0.85,1.92-1.92l0,0
						c0.01-1.08-0.84-1.94-1.9-1.94l-23.93-1.14C1423.54,1529.96,1421.79,1530.63,1422.74,1532.94L1422.74,1532.94z"/>
				</g>
			</g>
		</g>
	</g>
</g>
</svg>
